M48
; DRILL file KiCad 10.0.5 date 2026-08-11T20:57:31
; FORMAT={-:-/ absolute / metric / decimal}
; #@! TF.CreationDate,2026-08-11T20:57:31+02:00
; #@! TF.GenerationSoftware,Kicad,Pcbnew,10.0.5
; #@! TF.FileFunction,Plated,1,2,PTH
FMAT,2
METRIC
; #@! TA.AperFunction,Plated,PTH,ViaDrill
T1C0.300
; #@! TA.AperFunction,Plated,PTH,ComponentDrill
T2C0.750
; #@! TA.AperFunction,Plated,PTH,ComponentDrill
T3C0.800
; #@! TA.AperFunction,Plated,PTH,ComponentDrill
T4C1.000
%
G90
G05
T1
X63.166Y-48.9
X63.166Y-62.62
X63.166Y-72.43
X63.166Y-89.07
X63.166Y-96.23
X63.166Y-106.02
X63.17Y-115.81
X63.18Y-52.82
X67.18Y-50.82
X67.18Y-70.399
X67.18Y-95.2
X67.18Y-114.82
X67.21Y-105.0
X67.219Y-60.599
X68.63Y-54.7
X68.63Y-58.03
X69.746Y-95.206
X69.756Y-70.433
X105.53Y-58.9
X105.53Y-64.02
X106.49Y-58.88
X106.49Y-64.05
X107.57Y-54.0
X107.57Y-64.02
X108.69Y-54.0
X108.69Y-64.08
X109.91Y-117.35
X111.001Y-115.611
X130.59Y-48.23
X130.59Y-60.41
X135.91Y-113.8
X137.85Y-79.4
X148.49Y-71.81
T2
X72.426Y-124.14
X74.426Y-124.14
X76.426Y-124.14
X78.426Y-124.14
X85.076Y-124.14
X87.076Y-124.14
X89.076Y-124.14
X91.076Y-124.14
X100.3Y-124.27
X102.3Y-124.27
X104.3Y-124.27
X106.3Y-124.27
X112.14Y-124.27
X114.14Y-124.27
X116.14Y-124.27
X118.14Y-124.27
X124.13Y-124.27
X126.13Y-124.27
X128.13Y-124.27
X130.13Y-124.27
X135.91Y-124.27
X137.91Y-124.27
X139.91Y-124.27
X141.91Y-124.27
X149.87Y-125.87
X151.87Y-125.87
X154.156Y-53.442
X154.156Y-61.169
X154.156Y-68.896
X154.156Y-76.623
X154.156Y-84.35
X154.156Y-92.077
X154.156Y-99.804
X154.156Y-107.531
X154.156Y-115.257
X156.156Y-53.442
X156.156Y-61.169
X156.156Y-68.896
X156.156Y-76.623
X156.156Y-84.35
X156.156Y-92.077
X156.156Y-99.804
X156.156Y-107.531
X156.156Y-115.257
X158.156Y-53.442
X158.156Y-61.169
X158.156Y-68.896
X158.156Y-76.623
X158.156Y-84.35
X158.156Y-92.077
X158.156Y-99.804
X158.156Y-107.531
X158.156Y-115.257
X160.156Y-53.442
X160.156Y-61.169
X160.156Y-68.896
X160.156Y-76.623
X160.156Y-84.35
X160.156Y-92.077
X160.156Y-99.804
X160.156Y-107.531
X160.156Y-115.257
T3
X115.154Y-45.127
X115.154Y-47.667
X115.154Y-50.207
X115.154Y-52.747
X115.154Y-55.287
X115.154Y-57.827
X115.154Y-60.367
X115.154Y-62.907
X115.154Y-65.447
X115.154Y-67.987
X115.154Y-70.527
X115.154Y-73.067
X115.154Y-75.607
X115.154Y-78.147
X115.154Y-80.687
X115.154Y-83.227
X115.154Y-85.767
X115.154Y-88.307
X115.154Y-90.847
X140.55Y-88.304
X140.55Y-90.844
X140.554Y-45.127
X140.554Y-47.667
X140.554Y-50.207
X140.554Y-52.747
X140.554Y-55.287
X140.554Y-57.827
X140.554Y-60.367
X140.554Y-62.907
X140.554Y-65.447
X140.554Y-67.987
X140.554Y-70.527
X140.554Y-73.067
X140.554Y-75.607
X140.554Y-78.147
X140.554Y-80.687
X140.554Y-83.227
X140.554Y-85.767
T4
X85.806Y-115.611
X86.314Y-49.789
X88.346Y-115.611
X88.854Y-49.789
X90.886Y-115.611
X91.394Y-49.789
X93.426Y-115.611
X93.934Y-49.789
M30
