%TF.GenerationSoftware,KiCad,Pcbnew,10.0.5*%
%TF.CreationDate,2026-08-11T20:57:21+02:00*%
%TF.ProjectId,EnvNode,456e764e-6f64-4652-9e6b-696361645f70,rev?*%
%TF.SameCoordinates,Original*%
%TF.FileFunction,Soldermask,Bot*%
%TF.FilePolarity,Negative*%
%FSLAX46Y46*%
G04 Gerber Fmt 4.6, Leading zero omitted, Abs format (unit mm)*
G04 Created by KiCad (PCBNEW 10.0.5) date 2026-08-11 20:57:21*
%MOMM*%
%LPD*%
G01*
G04 APERTURE LIST*
G04 Aperture macros list*
%AMRoundRect*
0 Rectangle with rounded corners*
0 $1 Rounding radius*
0 $2 $3 $4 $5 $6 $7 $8 $9 X,Y pos of 4 corners*
0 Add a 4 corners polygon primitive as box body*
4,1,4,$2,$3,$4,$5,$6,$7,$8,$9,$2,$3,0*
0 Add four circle primitives for the rounded corners*
1,1,$1+$1,$2,$3*
1,1,$1+$1,$4,$5*
1,1,$1+$1,$6,$7*
1,1,$1+$1,$8,$9*
0 Add four rect primitives between the rounded corners*
20,1,$1+$1,$2,$3,$4,$5,0*
20,1,$1+$1,$4,$5,$6,$7,0*
20,1,$1+$1,$6,$7,$8,$9,0*
20,1,$1+$1,$8,$9,$2,$3,0*%
G04 Aperture macros list end*
%ADD10RoundRect,0.250000X0.350000X0.625000X-0.350000X0.625000X-0.350000X-0.625000X0.350000X-0.625000X0*%
%ADD11O,1.200000X1.750000*%
%ADD12RoundRect,0.250000X-0.350000X-0.625000X0.350000X-0.625000X0.350000X0.625000X-0.350000X0.625000X0*%
%ADD13R,1.700000X1.700000*%
%ADD14C,1.700000*%
%ADD15R,2.000000X1.200000*%
%ADD16O,2.000000X1.200000*%
G04 APERTURE END LIST*
D10*
%TO.C,J1*%
X151870000Y-125870000D03*
D11*
X149870000Y-125870000D03*
%TD*%
D10*
%TO.C,GPIO32*%
X78426429Y-124140000D03*
D11*
X76426429Y-124140000D03*
X74426429Y-124140000D03*
X72426429Y-124140000D03*
%TD*%
D12*
%TO.C,GPIO4*%
X154156225Y-53442500D03*
D11*
X156156225Y-53442500D03*
X158156225Y-53442500D03*
X160156225Y-53442500D03*
%TD*%
D12*
%TO.C,GPIO18*%
X154156225Y-99803750D03*
D11*
X156156225Y-99803750D03*
X158156225Y-99803750D03*
X160156225Y-99803750D03*
%TD*%
D13*
%TO.C,I2C0_4*%
X93934000Y-49788800D03*
D14*
X91394000Y-49788800D03*
X88854000Y-49788800D03*
X86314000Y-49788800D03*
%TD*%
D15*
%TO.C,U2*%
X115153680Y-45126560D03*
D16*
X115153680Y-47666560D03*
X115153680Y-50206560D03*
X115153680Y-52746560D03*
X115153680Y-55286560D03*
X115153680Y-57826560D03*
X115153680Y-60366560D03*
X115153680Y-62906560D03*
X115153680Y-65446560D03*
X115153680Y-67986560D03*
X115153680Y-70526560D03*
X115153680Y-73066560D03*
X115153680Y-75606560D03*
X115153680Y-78146560D03*
X115153680Y-80686560D03*
X115153680Y-83226560D03*
X115153680Y-85766560D03*
X115153680Y-88306560D03*
X115153680Y-90846560D03*
X140550000Y-90843840D03*
X140550000Y-88303840D03*
X140553680Y-85766560D03*
X140553680Y-83226560D03*
X140553680Y-80686560D03*
X140553680Y-78146560D03*
X140553680Y-75606560D03*
X140553680Y-73066560D03*
X140553680Y-70526560D03*
X140553680Y-67986560D03*
X140553680Y-65446560D03*
X140553680Y-62906560D03*
X140553680Y-60366560D03*
X140553680Y-57826560D03*
X140553680Y-55286560D03*
X140553680Y-52746560D03*
X140553680Y-50206560D03*
X140553680Y-47666560D03*
X140553680Y-45126560D03*
%TD*%
D10*
%TO.C,GPIO39*%
X141910000Y-124270000D03*
D11*
X139910000Y-124270000D03*
X137910000Y-124270000D03*
X135910000Y-124270000D03*
%TD*%
D10*
%TO.C,GPIO36*%
X130130000Y-124270000D03*
D11*
X128130000Y-124270000D03*
X126130000Y-124270000D03*
X124130000Y-124270000D03*
%TD*%
D12*
%TO.C,GPIO14*%
X154156225Y-68896250D03*
D11*
X156156225Y-68896250D03*
X158156225Y-68896250D03*
X160156225Y-68896250D03*
%TD*%
D12*
%TO.C,GPIO17*%
X154156225Y-92076875D03*
D11*
X156156225Y-92076875D03*
X158156225Y-92076875D03*
X160156225Y-92076875D03*
%TD*%
D12*
%TO.C,GPIO19*%
X154156225Y-107530625D03*
D11*
X156156225Y-107530625D03*
X158156225Y-107530625D03*
X160156225Y-107530625D03*
%TD*%
D10*
%TO.C,GPIO34*%
X106300000Y-124270000D03*
D11*
X104300000Y-124270000D03*
X102300000Y-124270000D03*
X100300000Y-124270000D03*
%TD*%
D12*
%TO.C,GPIO15*%
X154156225Y-76623125D03*
D11*
X156156225Y-76623125D03*
X158156225Y-76623125D03*
X160156225Y-76623125D03*
%TD*%
D13*
%TO.C,I2C1_4*%
X85806000Y-115611200D03*
D14*
X88346000Y-115611200D03*
X90886000Y-115611200D03*
X93426000Y-115611200D03*
%TD*%
D12*
%TO.C,GPIO13*%
X154156225Y-61169375D03*
D11*
X156156225Y-61169375D03*
X158156225Y-61169375D03*
X160156225Y-61169375D03*
%TD*%
D12*
%TO.C,GPIO23*%
X154156225Y-115257500D03*
D11*
X156156225Y-115257500D03*
X158156225Y-115257500D03*
X160156225Y-115257500D03*
%TD*%
D10*
%TO.C,GPIO33*%
X91076429Y-124140000D03*
D11*
X89076429Y-124140000D03*
X87076429Y-124140000D03*
X85076429Y-124140000D03*
%TD*%
D12*
%TO.C,GPIO16*%
X154156225Y-84350000D03*
D11*
X156156225Y-84350000D03*
X158156225Y-84350000D03*
X160156225Y-84350000D03*
%TD*%
D10*
%TO.C,GPIO35*%
X118140000Y-124270000D03*
D11*
X116140000Y-124270000D03*
X114140000Y-124270000D03*
X112140000Y-124270000D03*
%TD*%
M02*
