%TF.GenerationSoftware,KiCad,Pcbnew,10.0.5*%
%TF.CreationDate,2026-08-11T20:57:21+02:00*%
%TF.ProjectId,EnvNode,456e764e-6f64-4652-9e6b-696361645f70,rev?*%
%TF.SameCoordinates,Original*%
%TF.FileFunction,Copper,L2,Bot*%
%TF.FilePolarity,Positive*%
%FSLAX46Y46*%
G04 Gerber Fmt 4.6, Leading zero omitted, Abs format (unit mm)*
G04 Created by KiCad (PCBNEW 10.0.5) date 2026-08-11 20:57:21*
%MOMM*%
%LPD*%
G01*
G04 APERTURE LIST*
G04 Aperture macros list*
%AMRoundRect*
0 Rectangle with rounded corners*
0 $1 Rounding radius*
0 $2 $3 $4 $5 $6 $7 $8 $9 X,Y pos of 4 corners*
0 Add a 4 corners polygon primitive as box body*
4,1,4,$2,$3,$4,$5,$6,$7,$8,$9,$2,$3,0*
0 Add four circle primitives for the rounded corners*
1,1,$1+$1,$2,$3*
1,1,$1+$1,$4,$5*
1,1,$1+$1,$6,$7*
1,1,$1+$1,$8,$9*
0 Add four rect primitives between the rounded corners*
20,1,$1+$1,$2,$3,$4,$5,0*
20,1,$1+$1,$4,$5,$6,$7,0*
20,1,$1+$1,$6,$7,$8,$9,0*
20,1,$1+$1,$8,$9,$2,$3,0*%
G04 Aperture macros list end*
%TA.AperFunction,ComponentPad*%
%ADD10RoundRect,0.250000X0.350000X0.625000X-0.350000X0.625000X-0.350000X-0.625000X0.350000X-0.625000X0*%
%TD*%
%TA.AperFunction,ComponentPad*%
%ADD11O,1.200000X1.750000*%
%TD*%
%TA.AperFunction,ComponentPad*%
%ADD12RoundRect,0.250000X-0.350000X-0.625000X0.350000X-0.625000X0.350000X0.625000X-0.350000X0.625000X0*%
%TD*%
%TA.AperFunction,ComponentPad*%
%ADD13R,1.700000X1.700000*%
%TD*%
%TA.AperFunction,ComponentPad*%
%ADD14C,1.700000*%
%TD*%
%TA.AperFunction,ComponentPad*%
%ADD15R,2.000000X1.200000*%
%TD*%
%TA.AperFunction,ComponentPad*%
%ADD16O,2.000000X1.200000*%
%TD*%
%TA.AperFunction,ViaPad*%
%ADD17C,0.600000*%
%TD*%
%TA.AperFunction,Conductor*%
%ADD18C,0.250000*%
%TD*%
%TA.AperFunction,Conductor*%
%ADD19C,0.500000*%
%TD*%
%TA.AperFunction,Conductor*%
%ADD20C,1.000000*%
%TD*%
G04 APERTURE END LIST*
D10*
%TO.P,J1,1,Pin_1_1*%
%TO.N,+5V*%
X151870000Y-125870000D03*
D11*
%TO.P,J1,2,Pin_2_2*%
%TO.N,GND*%
X149870000Y-125870000D03*
%TD*%
D10*
%TO.P,GPIO32,1,Pin_1_1*%
%TO.N,GND*%
X78426429Y-124140000D03*
D11*
%TO.P,GPIO32,2,Pin_2_2*%
%TO.N,+5V*%
X76426429Y-124140000D03*
%TO.P,GPIO32,3,Pin_3_3*%
%TO.N,GPIO32*%
X74426429Y-124140000D03*
%TO.P,GPIO32,4,Pin_4_4*%
%TO.N,+3V3*%
X72426429Y-124140000D03*
%TD*%
D12*
%TO.P,GPIO4,1,Pin_1_1*%
%TO.N,GND*%
X154156225Y-53442500D03*
D11*
%TO.P,GPIO4,2,Pin_2_2*%
%TO.N,+5V*%
X156156225Y-53442500D03*
%TO.P,GPIO4,3,Pin_3_3*%
%TO.N,GPIO4*%
X158156225Y-53442500D03*
%TO.P,GPIO4,4,Pin_4_4*%
%TO.N,+3V3*%
X160156225Y-53442500D03*
%TD*%
D12*
%TO.P,GPIO18,1,Pin_1_1*%
%TO.N,GND*%
X154156225Y-99803750D03*
D11*
%TO.P,GPIO18,2,Pin_2_2*%
%TO.N,+5V*%
X156156225Y-99803750D03*
%TO.P,GPIO18,3,Pin_3_3*%
%TO.N,GPIO18*%
X158156225Y-99803750D03*
%TO.P,GPIO18,4,Pin_4_4*%
%TO.N,+3V3*%
X160156225Y-99803750D03*
%TD*%
D13*
%TO.P,I2C0_4,1,Pin_1_1*%
%TO.N,GND*%
X93934000Y-49788800D03*
D14*
%TO.P,I2C0_4,2,Pin_2_2*%
%TO.N,+3V3*%
X91394000Y-49788800D03*
%TO.P,I2C0_4,3,Pin_3_3*%
%TO.N,I2C0_SDA*%
X88854000Y-49788800D03*
%TO.P,I2C0_4,4,Pin_4_4*%
%TO.N,I2C0_SCL*%
X86314000Y-49788800D03*
%TD*%
D15*
%TO.P,U2,1,3V3_1*%
%TO.N,unconnected-(U2-3V3-Pad1)*%
X115153680Y-45126560D03*
D16*
%TO.P,U2,2,CHIP_PU_2*%
%TO.N,unconnected-(U2-CHIP_PU-Pad2)*%
X115153680Y-47666560D03*
%TO.P,U2,3,SENSOR_VP/GPIO36/ADC1_CH0_3*%
%TO.N,GPIO36*%
X115153680Y-50206560D03*
%TO.P,U2,4,SENSOR_VN/GPIO39/ADC1_CH3_4*%
%TO.N,GPIO39*%
X115153680Y-52746560D03*
%TO.P,U2,5,VDET_1/GPIO34/ADC1_CH6_5*%
%TO.N,GPIO34*%
X115153680Y-55286560D03*
%TO.P,U2,6,VDET_2/GPIO35/ADC1_CH7_6*%
%TO.N,GPIO35*%
X115153680Y-57826560D03*
%TO.P,U2,7,32K_XP/GPIO32/ADC1_CH4_7*%
%TO.N,GPIO32*%
X115153680Y-60366560D03*
%TO.P,U2,8,32K_XN/GPIO33/ADC1_CH5_8*%
%TO.N,GPIO33*%
X115153680Y-62906560D03*
%TO.P,U2,9,DAC_1/ADC2_CH8/GPIO25_9*%
%TO.N,I2C1_SDA*%
X115153680Y-65446560D03*
%TO.P,U2,10,DAC_2/ADC2_CH9/GPIO26_10*%
%TO.N,I2C1_SCL*%
X115153680Y-67986560D03*
%TO.P,U2,11,ADC2_CH7/GPIO27_11*%
%TO.N,unconnected-(U2-ADC2_CH7{slash}GPIO27-Pad11)*%
X115153680Y-70526560D03*
%TO.P,U2,12,MTMS/GPIO14/ADC2_CH6_12*%
%TO.N,GPIO14*%
X115153680Y-73066560D03*
%TO.P,U2,13,MTDI/GPIO12/ADC2_CH5_13*%
%TO.N,unconnected-(U2-MTDI{slash}GPIO12{slash}ADC2_CH5-Pad13)*%
X115153680Y-75606560D03*
%TO.P,U2,14,GND_14*%
%TO.N,GND*%
X115153680Y-78146560D03*
%TO.P,U2,15,MTCK/GPIO13/ADC2_CH4_15*%
%TO.N,GPIO13*%
X115153680Y-80686560D03*
%TO.P,U2,16,SD_DATA2/GPIO9_16*%
%TO.N,unconnected-(U2-SD_DATA2{slash}GPIO9-Pad16)*%
X115153680Y-83226560D03*
%TO.P,U2,17,SD_DATA3/GPIO10_17*%
%TO.N,unconnected-(U2-SD_DATA3{slash}GPIO10-Pad17)*%
X115153680Y-85766560D03*
%TO.P,U2,18,CMD_18*%
%TO.N,unconnected-(U2-CMD-Pad18)*%
X115153680Y-88306560D03*
%TO.P,U2,19,5V_19*%
%TO.N,+5V*%
X115153680Y-90846560D03*
%TO.P,U2,20,SD_CLK/GPIO6_20*%
%TO.N,unconnected-(U2-SD_CLK{slash}GPIO6-Pad20)*%
X140550000Y-90843840D03*
%TO.P,U2,21,SD_DATA0/GPIO7_21*%
%TO.N,unconnected-(U2-SD_DATA0{slash}GPIO7-Pad21)*%
X140550000Y-88303840D03*
%TO.P,U2,22,SD_DATA1/GPIO8_22*%
%TO.N,unconnected-(U2-SD_DATA1{slash}GPIO8-Pad22)*%
X140553680Y-85766560D03*
%TO.P,U2,23,MTDO/GPIO15/ADC2_CH3_23*%
%TO.N,GPIO15*%
X140553680Y-83226560D03*
%TO.P,U2,24,ADC2_CH2/GPIO2_24*%
%TO.N,unconnected-(U2-ADC2_CH2{slash}GPIO2-Pad24)*%
X140553680Y-80686560D03*
%TO.P,U2,25,GPIO0/BOOT/ADC2_CH1_25*%
%TO.N,unconnected-(U2-GPIO0{slash}BOOT{slash}ADC2_CH1-Pad25)*%
X140553680Y-78146560D03*
%TO.P,U2,26,ADC2_CH0/GPIO4_26*%
%TO.N,GPIO4*%
X140553680Y-75606560D03*
%TO.P,U2,27,GPIO16_27*%
%TO.N,GPIO16*%
X140553680Y-73066560D03*
%TO.P,U2,28,GPIO17_28*%
%TO.N,GPIO17*%
X140553680Y-70526560D03*
%TO.P,U2,29,GPIO5_29*%
%TO.N,unconnected-(U2-GPIO5-Pad29)*%
X140553680Y-67986560D03*
%TO.P,U2,30,GPIO18_30*%
%TO.N,GPIO18*%
X140553680Y-65446560D03*
%TO.P,U2,31,GPIO19_31*%
%TO.N,GPIO19*%
X140553680Y-62906560D03*
%TO.P,U2,32,GND_32*%
%TO.N,GND*%
X140553680Y-60366560D03*
%TO.P,U2,33,GPIO21_33*%
%TO.N,I2C0_SDA*%
X140553680Y-57826560D03*
%TO.P,U2,34,U0RXD/GPIO3_34*%
%TO.N,unconnected-(U2-U0RXD{slash}GPIO3-Pad34)*%
X140553680Y-55286560D03*
%TO.P,U2,35,U0TXD/GPIO1_35*%
%TO.N,unconnected-(U2-U0TXD{slash}GPIO1-Pad35)*%
X140553680Y-52746560D03*
%TO.P,U2,36,GPIO22_36*%
%TO.N,I2C0_SCL*%
X140553680Y-50206560D03*
%TO.P,U2,37,GPIO23_37*%
%TO.N,GPIO23*%
X140553680Y-47666560D03*
%TO.P,U2,38,GND_38*%
%TO.N,GND*%
X140553680Y-45126560D03*
%TD*%
D10*
%TO.P,GPIO39,1,Pin_1_1*%
%TO.N,GND*%
X141910000Y-124270000D03*
D11*
%TO.P,GPIO39,2,Pin_2_2*%
%TO.N,+5V*%
X139910000Y-124270000D03*
%TO.P,GPIO39,3,Pin_3_3*%
%TO.N,GPIO39*%
X137910000Y-124270000D03*
%TO.P,GPIO39,4,Pin_4_4*%
%TO.N,+3V3*%
X135910000Y-124270000D03*
%TD*%
D10*
%TO.P,GPIO36,1,Pin_1_1*%
%TO.N,GND*%
X130130000Y-124270000D03*
D11*
%TO.P,GPIO36,2,Pin_2_2*%
%TO.N,+5V*%
X128130000Y-124270000D03*
%TO.P,GPIO36,3,Pin_3_3*%
%TO.N,GPIO36*%
X126130000Y-124270000D03*
%TO.P,GPIO36,4,Pin_4_4*%
%TO.N,+3V3*%
X124130000Y-124270000D03*
%TD*%
D12*
%TO.P,GPIO14,1,Pin_1_1*%
%TO.N,GND*%
X154156225Y-68896250D03*
D11*
%TO.P,GPIO14,2,Pin_2_2*%
%TO.N,+5V*%
X156156225Y-68896250D03*
%TO.P,GPIO14,3,Pin_3_3*%
%TO.N,GPIO14*%
X158156225Y-68896250D03*
%TO.P,GPIO14,4,Pin_4_4*%
%TO.N,+3V3*%
X160156225Y-68896250D03*
%TD*%
D12*
%TO.P,GPIO17,1,Pin_1_1*%
%TO.N,GND*%
X154156225Y-92076875D03*
D11*
%TO.P,GPIO17,2,Pin_2_2*%
%TO.N,+5V*%
X156156225Y-92076875D03*
%TO.P,GPIO17,3,Pin_3_3*%
%TO.N,GPIO17*%
X158156225Y-92076875D03*
%TO.P,GPIO17,4,Pin_4_4*%
%TO.N,+3V3*%
X160156225Y-92076875D03*
%TD*%
D12*
%TO.P,GPIO19,1,Pin_1_1*%
%TO.N,GND*%
X154156225Y-107530625D03*
D11*
%TO.P,GPIO19,2,Pin_2_2*%
%TO.N,+5V*%
X156156225Y-107530625D03*
%TO.P,GPIO19,3,Pin_3_3*%
%TO.N,GPIO19*%
X158156225Y-107530625D03*
%TO.P,GPIO19,4,Pin_4_4*%
%TO.N,+3V3*%
X160156225Y-107530625D03*
%TD*%
D10*
%TO.P,GPIO34,1,Pin_1_1*%
%TO.N,GND*%
X106300000Y-124270000D03*
D11*
%TO.P,GPIO34,2,Pin_2_2*%
%TO.N,+5V*%
X104300000Y-124270000D03*
%TO.P,GPIO34,3,Pin_3_3*%
%TO.N,GPIO34*%
X102300000Y-124270000D03*
%TO.P,GPIO34,4,Pin_4_4*%
%TO.N,+3V3*%
X100300000Y-124270000D03*
%TD*%
D12*
%TO.P,GPIO15,1,Pin_1_1*%
%TO.N,GND*%
X154156225Y-76623125D03*
D11*
%TO.P,GPIO15,2,Pin_2_2*%
%TO.N,+5V*%
X156156225Y-76623125D03*
%TO.P,GPIO15,3,Pin_3_3*%
%TO.N,GPIO15*%
X158156225Y-76623125D03*
%TO.P,GPIO15,4,Pin_4_4*%
%TO.N,+3V3*%
X160156225Y-76623125D03*
%TD*%
D13*
%TO.P,I2C1_4,1,Pin_1_1*%
%TO.N,GND*%
X85806000Y-115611200D03*
D14*
%TO.P,I2C1_4,2,Pin_2_2*%
%TO.N,+3V3*%
X88346000Y-115611200D03*
%TO.P,I2C1_4,3,Pin_3_3*%
%TO.N,I2C1_SDA*%
X90886000Y-115611200D03*
%TO.P,I2C1_4,4,Pin_4_4*%
%TO.N,I2C1_SCL*%
X93426000Y-115611200D03*
%TD*%
D12*
%TO.P,GPIO13,1,Pin_1_1*%
%TO.N,GND*%
X154156225Y-61169375D03*
D11*
%TO.P,GPIO13,2,Pin_2_2*%
%TO.N,+5V*%
X156156225Y-61169375D03*
%TO.P,GPIO13,3,Pin_3_3*%
%TO.N,GPIO13*%
X158156225Y-61169375D03*
%TO.P,GPIO13,4,Pin_4_4*%
%TO.N,+3V3*%
X160156225Y-61169375D03*
%TD*%
D12*
%TO.P,GPIO23,1,Pin_1_1*%
%TO.N,GND*%
X154156225Y-115257500D03*
D11*
%TO.P,GPIO23,2,Pin_2_2*%
%TO.N,+5V*%
X156156225Y-115257500D03*
%TO.P,GPIO23,3,Pin_3_3*%
%TO.N,GPIO23*%
X158156225Y-115257500D03*
%TO.P,GPIO23,4,Pin_4_4*%
%TO.N,+3V3*%
X160156225Y-115257500D03*
%TD*%
D10*
%TO.P,GPIO33,1,Pin_1_1*%
%TO.N,GND*%
X91076429Y-124140000D03*
D11*
%TO.P,GPIO33,2,Pin_2_2*%
%TO.N,+5V*%
X89076429Y-124140000D03*
%TO.P,GPIO33,3,Pin_3_3*%
%TO.N,GPIO33*%
X87076429Y-124140000D03*
%TO.P,GPIO33,4,Pin_4_4*%
%TO.N,+3V3*%
X85076429Y-124140000D03*
%TD*%
D12*
%TO.P,GPIO16,1,Pin_1_1*%
%TO.N,GND*%
X154156225Y-84350000D03*
D11*
%TO.P,GPIO16,2,Pin_2_2*%
%TO.N,+5V*%
X156156225Y-84350000D03*
%TO.P,GPIO16,3,Pin_3_3*%
%TO.N,GPIO16*%
X158156225Y-84350000D03*
%TO.P,GPIO16,4,Pin_4_4*%
%TO.N,+3V3*%
X160156225Y-84350000D03*
%TD*%
D10*
%TO.P,GPIO35,1,Pin_1_1*%
%TO.N,GND*%
X118140000Y-124270000D03*
D11*
%TO.P,GPIO35,2,Pin_2_2*%
%TO.N,+5V*%
X116140000Y-124270000D03*
%TO.P,GPIO35,3,Pin_3_3*%
%TO.N,GPIO35*%
X114140000Y-124270000D03*
%TO.P,GPIO35,4,Pin_4_4*%
%TO.N,+3V3*%
X112140000Y-124270000D03*
%TD*%
D17*
%TO.N,I2C0_SDA*%
X68630000Y-58030000D03*
X68630000Y-54700000D03*
%TO.N,GPIO13*%
X137850000Y-79400000D03*
%TO.N,GPIO23*%
X130590000Y-60410000D03*
X130590000Y-48230000D03*
%TO.N,GPIO14*%
X148490000Y-71810000D03*
%TO.N,I2C1_SDA*%
X63170000Y-115810000D03*
X63166190Y-106020000D03*
X63166190Y-96230000D03*
X63166190Y-89070000D03*
%TO.N,I2C0_SCL*%
X63166190Y-72430000D03*
X63166190Y-62620000D03*
X63180000Y-52820000D03*
X63166190Y-48900000D03*
%TO.N,+3V3*%
X135910000Y-113800000D03*
X67219458Y-60599458D03*
X67180000Y-50820000D03*
X69756190Y-70432727D03*
X67180000Y-70398917D03*
X69746190Y-95206190D03*
%TO.N,I2C1_SCL*%
X111001200Y-115611200D03*
%TO.N,I2C1_SDA*%
X109910000Y-117350000D03*
%TO.N,+3V3*%
X67210000Y-105000000D03*
X67180000Y-95200000D03*
X67180000Y-114820000D03*
%TO.N,GPIO35*%
X106490000Y-64050000D03*
%TO.N,GPIO34*%
X105530000Y-64020000D03*
%TO.N,GPIO36*%
X107570000Y-64020000D03*
%TO.N,GPIO39*%
X108690000Y-64080000D03*
%TO.N,GPIO36*%
X107570000Y-54000000D03*
%TO.N,GPIO39*%
X108690000Y-54000000D03*
%TO.N,GPIO34*%
X105530000Y-58900000D03*
%TO.N,GPIO35*%
X106490000Y-58880000D03*
%TD*%
%TO.N,I2C0_SDA*%
D18*
X68630000Y-54700000D02*
X68630000Y-58030000D01*
%TO.N,GPIO23*%
X130590000Y-60410000D02*
X130600000Y-60420000D01*
X130590000Y-48230000D02*
X130590000Y-60410000D01*
%TO.N,GPIO14*%
X115153680Y-73066560D02*
X130093440Y-73066560D01*
X130093440Y-73066560D02*
X131350000Y-71810000D01*
X131350000Y-71810000D02*
X148490000Y-71810000D01*
%TO.N,GPIO13*%
X115153680Y-80686560D02*
X116440240Y-79400000D01*
X116440240Y-79400000D02*
X137850000Y-79400000D01*
%TO.N,I2C1_SDA*%
X63166190Y-106020000D02*
X63166190Y-115806190D01*
X63166190Y-115806190D02*
X63170000Y-115810000D01*
X63166190Y-96230000D02*
X63166190Y-106020000D01*
X63166190Y-89070000D02*
X63166190Y-96230000D01*
%TO.N,I2C0_SCL*%
X63166190Y-48900000D02*
X63166190Y-52806190D01*
X63166190Y-52806190D02*
X63180000Y-52820000D01*
X63166190Y-62620000D02*
X63166190Y-52833810D01*
X63166190Y-52833810D02*
X63180000Y-52820000D01*
X63166190Y-72430000D02*
X63166190Y-62620000D01*
%TO.N,+3V3*%
D19*
X135910000Y-124270000D02*
X135910000Y-113800000D01*
X151750912Y-129140000D02*
X135900000Y-129140000D01*
X135910000Y-124270000D02*
X135910000Y-129130000D01*
X135910000Y-129130000D02*
X135900000Y-129140000D01*
X160156225Y-115257500D02*
X160156225Y-120734687D01*
X135900000Y-129140000D02*
X124230000Y-129140000D01*
X160156225Y-120734687D02*
X151750912Y-129140000D01*
X69756190Y-70432727D02*
X67213810Y-70432727D01*
X67213810Y-70432727D02*
X67180000Y-70398917D01*
%TO.N,+5V*%
D20*
X151870000Y-125870000D02*
X156156225Y-121583775D01*
X156156225Y-121583775D02*
X156156225Y-115257500D01*
%TO.N,+3V3*%
D19*
X67180000Y-70398917D02*
X67180000Y-52370000D01*
X91394000Y-49788800D02*
X91394000Y-51916000D01*
X91394000Y-51916000D02*
X90940000Y-52370000D01*
X90940000Y-52370000D02*
X67180000Y-52370000D01*
X67180000Y-50820000D02*
X67180000Y-50800000D01*
X67180000Y-52370000D02*
X67180000Y-50820000D01*
X69722380Y-70398917D02*
X69756190Y-70432727D01*
X69746190Y-95206190D02*
X67186190Y-95206190D01*
X67186190Y-95206190D02*
X67180000Y-95200000D01*
%TO.N,I2C1_SCL*%
D18*
X111001200Y-115611200D02*
X111030000Y-115640000D01*
X93426000Y-115611200D02*
X111001200Y-115611200D01*
%TO.N,I2C1_SDA*%
X109910000Y-117350000D02*
X91430000Y-117350000D01*
X91430000Y-117350000D02*
X90886000Y-116806000D01*
X90886000Y-116806000D02*
X90886000Y-115611200D01*
%TO.N,+3V3*%
D19*
X67180000Y-123850000D02*
X67470000Y-124140000D01*
X67180000Y-114820000D02*
X67180000Y-123850000D01*
X67470000Y-124140000D02*
X72426429Y-124140000D01*
X67180000Y-114820000D02*
X67180000Y-95200000D01*
%TO.N,GPIO35*%
D18*
X106490000Y-64050000D02*
X106490000Y-64130000D01*
%TO.N,GPIO36*%
X107570000Y-64020000D02*
X107570000Y-54000000D01*
%TO.N,I2C1_SDA*%
X115153680Y-65446560D02*
X114600240Y-66000000D01*
%TO.N,+3V3*%
D19*
X85076429Y-124140000D02*
X85076429Y-122003571D01*
X85076429Y-122003571D02*
X86680000Y-120400000D01*
X124230000Y-129140000D02*
X112140000Y-129140000D01*
X112140000Y-124270000D02*
X112140000Y-129140000D01*
X112140000Y-129140000D02*
X100370000Y-129140000D01*
X100300000Y-129070000D02*
X100370000Y-129140000D01*
X100300000Y-124270000D02*
X100300000Y-129070000D01*
X100370000Y-129140000D02*
X84930000Y-129140000D01*
X85076429Y-124140000D02*
X85076429Y-128993571D01*
X85076429Y-128993571D02*
X84930000Y-129140000D01*
X84930000Y-129140000D02*
X74306429Y-129140000D01*
X74306429Y-129140000D02*
X72426429Y-127260000D01*
X72426429Y-127260000D02*
X72426429Y-124140000D01*
X124130000Y-124270000D02*
X124130000Y-129040000D01*
X124130000Y-129040000D02*
X124230000Y-129140000D01*
X88346000Y-118734000D02*
X88346000Y-115611200D01*
X86680000Y-120400000D02*
X88346000Y-118734000D01*
%TO.N,+5V*%
D20*
X156156225Y-84350000D02*
X156156225Y-76623125D01*
X156156225Y-92076875D02*
X156156225Y-84350000D01*
X156156225Y-68896250D02*
X156156225Y-76623125D01*
X156156225Y-99803750D02*
X156156225Y-92076875D01*
X156156225Y-53442500D02*
X156156225Y-61169375D01*
X156156225Y-68896250D02*
X156156225Y-61169375D01*
X156156225Y-115257500D02*
X156156225Y-107530625D01*
X156156225Y-107530625D02*
X156156225Y-99803750D01*
%TO.N,+3V3*%
D19*
X160156225Y-84350000D02*
X160156225Y-76623125D01*
X160156225Y-92076875D02*
X160156225Y-99803750D01*
X160156225Y-61169375D02*
X160156225Y-68896250D01*
X160156225Y-92076875D02*
X160156225Y-84350000D01*
X160156225Y-115257500D02*
X160156225Y-107530625D01*
X160156225Y-53442500D02*
X160156225Y-61169375D01*
X160156225Y-76623125D02*
X160156225Y-68896250D01*
X160156225Y-107530625D02*
X160156225Y-99803750D01*
%TO.N,GPIO39*%
D18*
X108690000Y-54000000D02*
X108690000Y-64080000D01*
%TO.N,GPIO34*%
X105530000Y-58900000D02*
X105530000Y-64020000D01*
%TO.N,GPIO35*%
X106490000Y-58880000D02*
X106490000Y-64050000D01*
%TD*%
%TA.AperFunction,Conductor*%
%TO.N,GND*%
G36*
X160844605Y-37739075D02*
G01*
X161178502Y-37755479D01*
X161190610Y-37756672D01*
X161293719Y-37771966D01*
X161518272Y-37805276D01*
X161530190Y-37807646D01*
X161851524Y-37888136D01*
X161863161Y-37891667D01*
X161934379Y-37917149D01*
X162175040Y-38003259D01*
X162186261Y-38007906D01*
X162485736Y-38149547D01*
X162496444Y-38155271D01*
X162780561Y-38325564D01*
X162790679Y-38332324D01*
X163056743Y-38529651D01*
X163066149Y-38537371D01*
X163311586Y-38759822D01*
X163320177Y-38768413D01*
X163507328Y-38974902D01*
X163542628Y-39013850D01*
X163550348Y-39023256D01*
X163747675Y-39289320D01*
X163754435Y-39299438D01*
X163883349Y-39514519D01*
X163924721Y-39583543D01*
X163930458Y-39594275D01*
X164072087Y-39893724D01*
X164076743Y-39904967D01*
X164188332Y-40216838D01*
X164191865Y-40228482D01*
X164272350Y-40549796D01*
X164274724Y-40561731D01*
X164323327Y-40889387D01*
X164324520Y-40901498D01*
X164340922Y-41235388D01*
X164341071Y-41241474D01*
X164339501Y-128168973D01*
X164339500Y-128169001D01*
X164339500Y-128236948D01*
X164339351Y-128243033D01*
X164322947Y-128576928D01*
X164321754Y-128589037D01*
X164273151Y-128916694D01*
X164270777Y-128928630D01*
X164190292Y-129249944D01*
X164186759Y-129261588D01*
X164075170Y-129573459D01*
X164070514Y-129584702D01*
X163928885Y-129884151D01*
X163923148Y-129894883D01*
X163752862Y-130178988D01*
X163746102Y-130189106D01*
X163548775Y-130455170D01*
X163541055Y-130464576D01*
X163318611Y-130710006D01*
X163310006Y-130718611D01*
X163064576Y-130941055D01*
X163055170Y-130948775D01*
X162789106Y-131146102D01*
X162778988Y-131152862D01*
X162494883Y-131323148D01*
X162484151Y-131328885D01*
X162184702Y-131470514D01*
X162173459Y-131475170D01*
X161861588Y-131586759D01*
X161849944Y-131590292D01*
X161528630Y-131670777D01*
X161516694Y-131673151D01*
X161189037Y-131721754D01*
X161176928Y-131722947D01*
X160861989Y-131738419D01*
X160843031Y-131739351D01*
X160836949Y-131739500D01*
X57843051Y-131739500D01*
X57836968Y-131739351D01*
X57816900Y-131738365D01*
X57503071Y-131722947D01*
X57490962Y-131721754D01*
X57163305Y-131673151D01*
X57151369Y-131670777D01*
X56830055Y-131590292D01*
X56818411Y-131586759D01*
X56506540Y-131475170D01*
X56495301Y-131470515D01*
X56195844Y-131328883D01*
X56185121Y-131323150D01*
X55901011Y-131152862D01*
X55890893Y-131146102D01*
X55624829Y-130948775D01*
X55615423Y-130941055D01*
X55576475Y-130905755D01*
X55369986Y-130718604D01*
X55361395Y-130710013D01*
X55138944Y-130464576D01*
X55131224Y-130455170D01*
X54933897Y-130189106D01*
X54927137Y-130178988D01*
X54756844Y-129894871D01*
X54751120Y-129884163D01*
X54609479Y-129584688D01*
X54604829Y-129573459D01*
X54493240Y-129261588D01*
X54489707Y-129249944D01*
X54480958Y-129215015D01*
X54409219Y-128928617D01*
X54406848Y-128916694D01*
X54358245Y-128589037D01*
X54357052Y-128576927D01*
X54340649Y-128243032D01*
X54340500Y-128236948D01*
X54340500Y-126299568D01*
X57839500Y-126299568D01*
X57839500Y-126580431D01*
X57870942Y-126859494D01*
X57870945Y-126859512D01*
X57933439Y-127133317D01*
X57933443Y-127133329D01*
X58026200Y-127398411D01*
X58148053Y-127651442D01*
X58148055Y-127651445D01*
X58297477Y-127889248D01*
X58472584Y-128108825D01*
X58671175Y-128307416D01*
X58890752Y-128482523D01*
X59128555Y-128631945D01*
X59381592Y-128753801D01*
X59580680Y-128823465D01*
X59646670Y-128846556D01*
X59646682Y-128846560D01*
X59920491Y-128909055D01*
X59920497Y-128909055D01*
X59920505Y-128909057D01*
X60094225Y-128928630D01*
X60199569Y-128940499D01*
X60199572Y-128940500D01*
X60199575Y-128940500D01*
X60480428Y-128940500D01*
X60480429Y-128940499D01*
X60638237Y-128922719D01*
X60759494Y-128909057D01*
X60759499Y-128909056D01*
X60759509Y-128909055D01*
X61033318Y-128846560D01*
X61298408Y-128753801D01*
X61551445Y-128631945D01*
X61789248Y-128482523D01*
X62008825Y-128307416D01*
X62207416Y-128108825D01*
X62382523Y-127889248D01*
X62531945Y-127651445D01*
X62653801Y-127398408D01*
X62746560Y-127133318D01*
X62809055Y-126859509D01*
X62810360Y-126847933D01*
X62840499Y-126580431D01*
X62840500Y-126580427D01*
X62840500Y-126299572D01*
X62840499Y-126299568D01*
X62840092Y-126295959D01*
X62809055Y-126020491D01*
X62746560Y-125746682D01*
X62739062Y-125725255D01*
X62723465Y-125680680D01*
X62653801Y-125481592D01*
X62531945Y-125228555D01*
X62382523Y-124990752D01*
X62207416Y-124771175D01*
X62008825Y-124572584D01*
X61993278Y-124560186D01*
X61919828Y-124501611D01*
X61789248Y-124397477D01*
X61551445Y-124248055D01*
X61551442Y-124248053D01*
X61298411Y-124126200D01*
X61033329Y-124033443D01*
X61033317Y-124033439D01*
X60759512Y-123970945D01*
X60759494Y-123970942D01*
X60480431Y-123939500D01*
X60480425Y-123939500D01*
X60199575Y-123939500D01*
X60199568Y-123939500D01*
X59920505Y-123970942D01*
X59920487Y-123970945D01*
X59646682Y-124033439D01*
X59646670Y-124033443D01*
X59381588Y-124126200D01*
X59128557Y-124248053D01*
X58890753Y-124397476D01*
X58671175Y-124572583D01*
X58472583Y-124771175D01*
X58297476Y-124990753D01*
X58148053Y-125228557D01*
X58026200Y-125481588D01*
X57933443Y-125746670D01*
X57933439Y-125746682D01*
X57870945Y-126020487D01*
X57870942Y-126020505D01*
X57839500Y-126299568D01*
X54340500Y-126299568D01*
X54340500Y-88991153D01*
X62365690Y-88991153D01*
X62365690Y-89148846D01*
X62396451Y-89303489D01*
X62396454Y-89303501D01*
X62456792Y-89449172D01*
X62456799Y-89449184D01*
X62519792Y-89543459D01*
X62540670Y-89610136D01*
X62540690Y-89612350D01*
X62540690Y-95687650D01*
X62521005Y-95754689D01*
X62519792Y-95756541D01*
X62456799Y-95850815D01*
X62456792Y-95850828D01*
X62396454Y-95996498D01*
X62396451Y-95996510D01*
X62365690Y-96151153D01*
X62365690Y-96308846D01*
X62396451Y-96463489D01*
X62396454Y-96463501D01*
X62456792Y-96609172D01*
X62456799Y-96609184D01*
X62519792Y-96703459D01*
X62540670Y-96770136D01*
X62540690Y-96772350D01*
X62540690Y-105477650D01*
X62521005Y-105544689D01*
X62519792Y-105546541D01*
X62456799Y-105640815D01*
X62456792Y-105640828D01*
X62396454Y-105786498D01*
X62396451Y-105786510D01*
X62365690Y-105941153D01*
X62365690Y-106098846D01*
X62396451Y-106253489D01*
X62396454Y-106253501D01*
X62456792Y-106399172D01*
X62456799Y-106399184D01*
X62519792Y-106493459D01*
X62540670Y-106560136D01*
X62540690Y-106562350D01*
X62540690Y-115273352D01*
X62521005Y-115340391D01*
X62519792Y-115342243D01*
X62460609Y-115430815D01*
X62460602Y-115430828D01*
X62400264Y-115576498D01*
X62400261Y-115576510D01*
X62369500Y-115731153D01*
X62369500Y-115888846D01*
X62400261Y-116043489D01*
X62400264Y-116043501D01*
X62460602Y-116189172D01*
X62460609Y-116189185D01*
X62548210Y-116320288D01*
X62548213Y-116320292D01*
X62659707Y-116431786D01*
X62659711Y-116431789D01*
X62790814Y-116519390D01*
X62790827Y-116519397D01*
X62905398Y-116566853D01*
X62936503Y-116579737D01*
X63091153Y-116610499D01*
X63091156Y-116610500D01*
X63091158Y-116610500D01*
X63248844Y-116610500D01*
X63248845Y-116610499D01*
X63403497Y-116579737D01*
X63549179Y-116519394D01*
X63680289Y-116431789D01*
X63791789Y-116320289D01*
X63879394Y-116189179D01*
X63939737Y-116043497D01*
X63970500Y-115888842D01*
X63970500Y-115731158D01*
X63970500Y-115731155D01*
X63970499Y-115731153D01*
X63959732Y-115677026D01*
X63939737Y-115576503D01*
X63921452Y-115532358D01*
X63879397Y-115430827D01*
X63879390Y-115430814D01*
X63812588Y-115330838D01*
X63791710Y-115264160D01*
X63791690Y-115261947D01*
X63791690Y-106562350D01*
X63811375Y-106495311D01*
X63812588Y-106493459D01*
X63850126Y-106437279D01*
X63875584Y-106399179D01*
X63935927Y-106253497D01*
X63966690Y-106098842D01*
X63966690Y-105941158D01*
X63966690Y-105941155D01*
X63966689Y-105941153D01*
X63935928Y-105786510D01*
X63935927Y-105786503D01*
X63875584Y-105640821D01*
X63812587Y-105546539D01*
X63791710Y-105479863D01*
X63791690Y-105477650D01*
X63791690Y-96772350D01*
X63811375Y-96705311D01*
X63812588Y-96703459D01*
X63812999Y-96702843D01*
X63875584Y-96609179D01*
X63935927Y-96463497D01*
X63966690Y-96308842D01*
X63966690Y-96151158D01*
X63966690Y-96151155D01*
X63966689Y-96151153D01*
X63935928Y-95996510D01*
X63935927Y-95996503D01*
X63875584Y-95850821D01*
X63812587Y-95756539D01*
X63791710Y-95689863D01*
X63791690Y-95687650D01*
X63791690Y-95121153D01*
X66379500Y-95121153D01*
X66379500Y-95278846D01*
X66410261Y-95433489D01*
X66410263Y-95433497D01*
X66420061Y-95457151D01*
X66429500Y-95504604D01*
X66429500Y-104808399D01*
X66427117Y-104832590D01*
X66409500Y-104921154D01*
X66409500Y-105078844D01*
X66427117Y-105167407D01*
X66429500Y-105191599D01*
X66429500Y-114515396D01*
X66420062Y-114562844D01*
X66412506Y-114581089D01*
X66410262Y-114586506D01*
X66410260Y-114586511D01*
X66379500Y-114741153D01*
X66379500Y-114898846D01*
X66410261Y-115053489D01*
X66410263Y-115053497D01*
X66420061Y-115077151D01*
X66429500Y-115124604D01*
X66429500Y-123923918D01*
X66429500Y-123923920D01*
X66429499Y-123923920D01*
X66458340Y-124068907D01*
X66458343Y-124068917D01*
X66514912Y-124205488D01*
X66514921Y-124205504D01*
X66528767Y-124226225D01*
X66528768Y-124226229D01*
X66528769Y-124226229D01*
X66597046Y-124328414D01*
X66597052Y-124328421D01*
X66991581Y-124722950D01*
X66991584Y-124722952D01*
X67063756Y-124771175D01*
X67114505Y-124805084D01*
X67251087Y-124861658D01*
X67251091Y-124861658D01*
X67251092Y-124861659D01*
X67396079Y-124890500D01*
X67396082Y-124890500D01*
X67396083Y-124890500D01*
X67543917Y-124890500D01*
X71357602Y-124890500D01*
X71424641Y-124910185D01*
X71468085Y-124958204D01*
X71480175Y-124981931D01*
X71485198Y-124991790D01*
X71485199Y-124991792D01*
X71504586Y-125018475D01*
X71587015Y-125131928D01*
X71587017Y-125131930D01*
X71639610Y-125184523D01*
X71673095Y-125245846D01*
X71675929Y-125272204D01*
X71675929Y-127333918D01*
X71675929Y-127333920D01*
X71675928Y-127333920D01*
X71704769Y-127478907D01*
X71704772Y-127478917D01*
X71761341Y-127615488D01*
X71761349Y-127615502D01*
X71785364Y-127651442D01*
X71785365Y-127651445D01*
X71843475Y-127738414D01*
X71843481Y-127738421D01*
X73320077Y-129215015D01*
X73723477Y-129618415D01*
X73723478Y-129618416D01*
X73828013Y-129722951D01*
X73828014Y-129722952D01*
X73950927Y-129805080D01*
X73950940Y-129805087D01*
X74087511Y-129861656D01*
X74087516Y-129861658D01*
X74087520Y-129861658D01*
X74087521Y-129861659D01*
X74232508Y-129890500D01*
X74232511Y-129890500D01*
X151824832Y-129890500D01*
X151922374Y-129871096D01*
X151969825Y-129861658D01*
X152106407Y-129805084D01*
X152197720Y-129744071D01*
X152229328Y-129722952D01*
X155627819Y-126324459D01*
X155689142Y-126290975D01*
X155758834Y-126295959D01*
X155814767Y-126337831D01*
X155839184Y-126403295D01*
X155839500Y-126412141D01*
X155839500Y-126580431D01*
X155870942Y-126859494D01*
X155870945Y-126859512D01*
X155933439Y-127133317D01*
X155933443Y-127133329D01*
X156026200Y-127398411D01*
X156148053Y-127651442D01*
X156148055Y-127651445D01*
X156297477Y-127889248D01*
X156472584Y-128108825D01*
X156671175Y-128307416D01*
X156890752Y-128482523D01*
X157128555Y-128631945D01*
X157381592Y-128753801D01*
X157580680Y-128823465D01*
X157646670Y-128846556D01*
X157646682Y-128846560D01*
X157920491Y-128909055D01*
X157920497Y-128909055D01*
X157920505Y-128909057D01*
X158094225Y-128928630D01*
X158199569Y-128940499D01*
X158199572Y-128940500D01*
X158199575Y-128940500D01*
X158480428Y-128940500D01*
X158480429Y-128940499D01*
X158638237Y-128922719D01*
X158759494Y-128909057D01*
X158759499Y-128909056D01*
X158759509Y-128909055D01*
X159033318Y-128846560D01*
X159298408Y-128753801D01*
X159551445Y-128631945D01*
X159789248Y-128482523D01*
X160008825Y-128307416D01*
X160207416Y-128108825D01*
X160382523Y-127889248D01*
X160531945Y-127651445D01*
X160653801Y-127398408D01*
X160746560Y-127133318D01*
X160809055Y-126859509D01*
X160810360Y-126847933D01*
X160840499Y-126580431D01*
X160840500Y-126580427D01*
X160840500Y-126299572D01*
X160840499Y-126299568D01*
X160840092Y-126295959D01*
X160809055Y-126020491D01*
X160746560Y-125746682D01*
X160739062Y-125725255D01*
X160723465Y-125680680D01*
X160653801Y-125481592D01*
X160531945Y-125228555D01*
X160382523Y-124990752D01*
X160207416Y-124771175D01*
X160008825Y-124572584D01*
X159993278Y-124560186D01*
X159919828Y-124501611D01*
X159789248Y-124397477D01*
X159551445Y-124248055D01*
X159551442Y-124248053D01*
X159298411Y-124126200D01*
X159033329Y-124033443D01*
X159033317Y-124033439D01*
X158759512Y-123970945D01*
X158759494Y-123970942D01*
X158480431Y-123939500D01*
X158480425Y-123939500D01*
X158312141Y-123939500D01*
X158245102Y-123919815D01*
X158199347Y-123867011D01*
X158189403Y-123797853D01*
X158218428Y-123734297D01*
X158224460Y-123727819D01*
X160739175Y-121213104D01*
X160739177Y-121213102D01*
X160769622Y-121167536D01*
X160800277Y-121121659D01*
X160807272Y-121111188D01*
X160821309Y-121090182D01*
X160865725Y-120982952D01*
X160877884Y-120953599D01*
X160906725Y-120808604D01*
X160906725Y-120660769D01*
X160906725Y-116389704D01*
X160926410Y-116322665D01*
X160943044Y-116302023D01*
X160969157Y-116275910D01*
X160995639Y-116249428D01*
X161097457Y-116109288D01*
X161176098Y-115954945D01*
X161229627Y-115790201D01*
X161256725Y-115619111D01*
X161256725Y-114895889D01*
X161229627Y-114724799D01*
X161176098Y-114560055D01*
X161097457Y-114405712D01*
X160995639Y-114265572D01*
X160943044Y-114212977D01*
X160909559Y-114151654D01*
X160906725Y-114125296D01*
X160906725Y-108662829D01*
X160926410Y-108595790D01*
X160943044Y-108575148D01*
X160969157Y-108549035D01*
X160995639Y-108522553D01*
X161097457Y-108382413D01*
X161176098Y-108228070D01*
X161229627Y-108063326D01*
X161256725Y-107892236D01*
X161256725Y-107169014D01*
X161229627Y-106997924D01*
X161176098Y-106833180D01*
X161097457Y-106678837D01*
X160995639Y-106538697D01*
X160943044Y-106486102D01*
X160909559Y-106424779D01*
X160906725Y-106398421D01*
X160906725Y-100935954D01*
X160926410Y-100868915D01*
X160943044Y-100848273D01*
X160969157Y-100822160D01*
X160995639Y-100795678D01*
X161097457Y-100655538D01*
X161176098Y-100501195D01*
X161229627Y-100336451D01*
X161256725Y-100165361D01*
X161256725Y-99442139D01*
X161229627Y-99271049D01*
X161176098Y-99106305D01*
X161097457Y-98951962D01*
X160995639Y-98811822D01*
X160943044Y-98759227D01*
X160909559Y-98697904D01*
X160906725Y-98671546D01*
X160906725Y-93209079D01*
X160926410Y-93142040D01*
X160943044Y-93121398D01*
X160969157Y-93095285D01*
X160995639Y-93068803D01*
X161097457Y-92928663D01*
X161176098Y-92774320D01*
X161229627Y-92609576D01*
X161256725Y-92438486D01*
X161256725Y-91715264D01*
X161229627Y-91544174D01*
X161176098Y-91379430D01*
X161097457Y-91225087D01*
X160995639Y-91084947D01*
X160943044Y-91032352D01*
X160909559Y-90971029D01*
X160906725Y-90944671D01*
X160906725Y-85482204D01*
X160926410Y-85415165D01*
X160943044Y-85394523D01*
X160969157Y-85368410D01*
X160995639Y-85341928D01*
X161097457Y-85201788D01*
X161176098Y-85047445D01*
X161229627Y-84882701D01*
X161256725Y-84711611D01*
X161256725Y-83988389D01*
X161229627Y-83817299D01*
X161176098Y-83652555D01*
X161097457Y-83498212D01*
X160995639Y-83358072D01*
X160943044Y-83305477D01*
X160909559Y-83244154D01*
X160906725Y-83217796D01*
X160906725Y-77755329D01*
X160926410Y-77688290D01*
X160943044Y-77667648D01*
X160969157Y-77641535D01*
X160995639Y-77615053D01*
X161097457Y-77474913D01*
X161176098Y-77320570D01*
X161229627Y-77155826D01*
X161256725Y-76984736D01*
X161256725Y-76261514D01*
X161229627Y-76090424D01*
X161176098Y-75925680D01*
X161097457Y-75771337D01*
X160995639Y-75631197D01*
X160943044Y-75578602D01*
X160909559Y-75517279D01*
X160906725Y-75490921D01*
X160906725Y-70028454D01*
X160926410Y-69961415D01*
X160943044Y-69940773D01*
X160969157Y-69914660D01*
X160995639Y-69888178D01*
X161097457Y-69748038D01*
X161176098Y-69593695D01*
X161229627Y-69428951D01*
X161256725Y-69257861D01*
X161256725Y-68534639D01*
X161229627Y-68363549D01*
X161176098Y-68198805D01*
X161097457Y-68044462D01*
X160995639Y-67904322D01*
X160943044Y-67851727D01*
X160909559Y-67790404D01*
X160906725Y-67764046D01*
X160906725Y-62301579D01*
X160926410Y-62234540D01*
X160943044Y-62213898D01*
X160969157Y-62187785D01*
X160995639Y-62161303D01*
X161097457Y-62021163D01*
X161176098Y-61866820D01*
X161229627Y-61702076D01*
X161256725Y-61530986D01*
X161256725Y-60807764D01*
X161229627Y-60636674D01*
X161176098Y-60471930D01*
X161097457Y-60317587D01*
X160995639Y-60177447D01*
X160943044Y-60124852D01*
X160909559Y-60063529D01*
X160906725Y-60037171D01*
X160906725Y-54574704D01*
X160926410Y-54507665D01*
X160943044Y-54487023D01*
X160969157Y-54460910D01*
X160995639Y-54434428D01*
X161097457Y-54294288D01*
X161176098Y-54139945D01*
X161229627Y-53975201D01*
X161256725Y-53804111D01*
X161256725Y-53080889D01*
X161229627Y-52909799D01*
X161176098Y-52745055D01*
X161097457Y-52590712D01*
X160995639Y-52450572D01*
X160873153Y-52328086D01*
X160733013Y-52226268D01*
X160578670Y-52147627D01*
X160413926Y-52094098D01*
X160413924Y-52094097D01*
X160413923Y-52094097D01*
X160282496Y-52073281D01*
X160242836Y-52067000D01*
X160069614Y-52067000D01*
X160029953Y-52073281D01*
X159898527Y-52094097D01*
X159733777Y-52147628D01*
X159579436Y-52226268D01*
X159499481Y-52284359D01*
X159439297Y-52328086D01*
X159439295Y-52328088D01*
X159439294Y-52328088D01*
X159316813Y-52450569D01*
X159316806Y-52450578D01*
X159256542Y-52533523D01*
X159201212Y-52576189D01*
X159131599Y-52582167D01*
X159069804Y-52549561D01*
X159055908Y-52533523D01*
X159008124Y-52467757D01*
X158995639Y-52450572D01*
X158873153Y-52328086D01*
X158733013Y-52226268D01*
X158578670Y-52147627D01*
X158413926Y-52094098D01*
X158413924Y-52094097D01*
X158413923Y-52094097D01*
X158282496Y-52073281D01*
X158242836Y-52067000D01*
X158069614Y-52067000D01*
X158029953Y-52073281D01*
X157898527Y-52094097D01*
X157733777Y-52147628D01*
X157579436Y-52226268D01*
X157499481Y-52284359D01*
X157439297Y-52328086D01*
X157439295Y-52328088D01*
X157439294Y-52328088D01*
X157316813Y-52450569D01*
X157316806Y-52450578D01*
X157256542Y-52533523D01*
X157201212Y-52576189D01*
X157131599Y-52582167D01*
X157069804Y-52549561D01*
X157055908Y-52533523D01*
X157008124Y-52467757D01*
X156995639Y-52450572D01*
X156873153Y-52328086D01*
X156733013Y-52226268D01*
X156578670Y-52147627D01*
X156413926Y-52094098D01*
X156413924Y-52094097D01*
X156413923Y-52094097D01*
X156282496Y-52073281D01*
X156242836Y-52067000D01*
X156069614Y-52067000D01*
X156029953Y-52073281D01*
X155898527Y-52094097D01*
X155733777Y-52147628D01*
X155579436Y-52226268D01*
X155439298Y-52328085D01*
X155331391Y-52435992D01*
X155270068Y-52469476D01*
X155200376Y-52464492D01*
X155144443Y-52422620D01*
X155138171Y-52413406D01*
X155098542Y-52349156D01*
X154974570Y-52225184D01*
X154825349Y-52133143D01*
X154825344Y-52133141D01*
X154658922Y-52077994D01*
X154658915Y-52077993D01*
X154556211Y-52067500D01*
X154406225Y-52067500D01*
X154406225Y-53162170D01*
X154386480Y-53142425D01*
X154300970Y-53093056D01*
X154205595Y-53067500D01*
X154106855Y-53067500D01*
X154011480Y-53093056D01*
X153925970Y-53142425D01*
X153906225Y-53162170D01*
X153906225Y-52067500D01*
X153756252Y-52067500D01*
X153756237Y-52067501D01*
X153653527Y-52077994D01*
X153487105Y-52133141D01*
X153487100Y-52133143D01*
X153337879Y-52225184D01*
X153213909Y-52349154D01*
X153121868Y-52498375D01*
X153121866Y-52498380D01*
X153066719Y-52664802D01*
X153066718Y-52664809D01*
X153056225Y-52767513D01*
X153056225Y-53192500D01*
X153875895Y-53192500D01*
X153856150Y-53212245D01*
X153806781Y-53297755D01*
X153781225Y-53393130D01*
X153781225Y-53491870D01*
X153806781Y-53587245D01*
X153856150Y-53672755D01*
X153875895Y-53692500D01*
X153056226Y-53692500D01*
X153056226Y-54117486D01*
X153066719Y-54220197D01*
X153121866Y-54386619D01*
X153121868Y-54386624D01*
X153213909Y-54535845D01*
X153337879Y-54659815D01*
X153487100Y-54751856D01*
X153487105Y-54751858D01*
X153653527Y-54807005D01*
X153653534Y-54807006D01*
X153756244Y-54817499D01*
X153906224Y-54817499D01*
X153906225Y-54817498D01*
X153906225Y-53722830D01*
X153925970Y-53742575D01*
X154011480Y-53791944D01*
X154106855Y-53817500D01*
X154205595Y-53817500D01*
X154300970Y-53791944D01*
X154386480Y-53742575D01*
X154406225Y-53722830D01*
X154406225Y-54817499D01*
X154556197Y-54817499D01*
X154556211Y-54817498D01*
X154658922Y-54807005D01*
X154825344Y-54751858D01*
X154825355Y-54751853D01*
X154966628Y-54664715D01*
X155034020Y-54646274D01*
X155100684Y-54667196D01*
X155145454Y-54720838D01*
X155155725Y-54770253D01*
X155155725Y-59841621D01*
X155136040Y-59908660D01*
X155083236Y-59954415D01*
X155014078Y-59964359D01*
X154966628Y-59947160D01*
X154825349Y-59860018D01*
X154825344Y-59860016D01*
X154658922Y-59804869D01*
X154658915Y-59804868D01*
X154556211Y-59794375D01*
X154406225Y-59794375D01*
X154406225Y-60889045D01*
X154386480Y-60869300D01*
X154300970Y-60819931D01*
X154205595Y-60794375D01*
X154106855Y-60794375D01*
X154011480Y-60819931D01*
X153925970Y-60869300D01*
X153906225Y-60889045D01*
X153906225Y-59794375D01*
X153756252Y-59794375D01*
X153756237Y-59794376D01*
X153653527Y-59804869D01*
X153487105Y-59860016D01*
X153487100Y-59860018D01*
X153337879Y-59952059D01*
X153213909Y-60076029D01*
X153121868Y-60225250D01*
X153121866Y-60225255D01*
X153066719Y-60391677D01*
X153066718Y-60391684D01*
X153056225Y-60494388D01*
X153056225Y-60919375D01*
X153875895Y-60919375D01*
X153856150Y-60939120D01*
X153806781Y-61024630D01*
X153781225Y-61120005D01*
X153781225Y-61218745D01*
X153806781Y-61314120D01*
X153856150Y-61399630D01*
X153875895Y-61419375D01*
X153056226Y-61419375D01*
X153056226Y-61844361D01*
X153066719Y-61947072D01*
X153121866Y-62113494D01*
X153121868Y-62113499D01*
X153213909Y-62262720D01*
X153337879Y-62386690D01*
X153487100Y-62478731D01*
X153487105Y-62478733D01*
X153653527Y-62533880D01*
X153653534Y-62533881D01*
X153756244Y-62544374D01*
X153906224Y-62544374D01*
X153906225Y-62544373D01*
X153906225Y-61449705D01*
X153925970Y-61469450D01*
X154011480Y-61518819D01*
X154106855Y-61544375D01*
X154205595Y-61544375D01*
X154300970Y-61518819D01*
X154386480Y-61469450D01*
X154406225Y-61449705D01*
X154406225Y-62544374D01*
X154556197Y-62544374D01*
X154556211Y-62544373D01*
X154658922Y-62533880D01*
X154825344Y-62478733D01*
X154825355Y-62478728D01*
X154966628Y-62391590D01*
X155034020Y-62373149D01*
X155100684Y-62394071D01*
X155145454Y-62447713D01*
X155155725Y-62497128D01*
X155155725Y-67568496D01*
X155136040Y-67635535D01*
X155083236Y-67681290D01*
X155014078Y-67691234D01*
X154966628Y-67674035D01*
X154825349Y-67586893D01*
X154825344Y-67586891D01*
X154658922Y-67531744D01*
X154658915Y-67531743D01*
X154556211Y-67521250D01*
X154406225Y-67521250D01*
X154406225Y-68615920D01*
X154386480Y-68596175D01*
X154300970Y-68546806D01*
X154205595Y-68521250D01*
X154106855Y-68521250D01*
X154011480Y-68546806D01*
X153925970Y-68596175D01*
X153906225Y-68615920D01*
X153906225Y-67521250D01*
X153756252Y-67521250D01*
X153756237Y-67521251D01*
X153653527Y-67531744D01*
X153487105Y-67586891D01*
X153487100Y-67586893D01*
X153337879Y-67678934D01*
X153213909Y-67802904D01*
X153121868Y-67952125D01*
X153121866Y-67952130D01*
X153066719Y-68118552D01*
X153066718Y-68118559D01*
X153056225Y-68221263D01*
X153056225Y-68646250D01*
X153875895Y-68646250D01*
X153856150Y-68665995D01*
X153806781Y-68751505D01*
X153781225Y-68846880D01*
X153781225Y-68945620D01*
X153806781Y-69040995D01*
X153856150Y-69126505D01*
X153875895Y-69146250D01*
X153056226Y-69146250D01*
X153056226Y-69571236D01*
X153066719Y-69673947D01*
X153121866Y-69840369D01*
X153121868Y-69840374D01*
X153213909Y-69989595D01*
X153337879Y-70113565D01*
X153487100Y-70205606D01*
X153487105Y-70205608D01*
X153653527Y-70260755D01*
X153653534Y-70260756D01*
X153756244Y-70271249D01*
X153906224Y-70271249D01*
X153906225Y-70271248D01*
X153906225Y-69176580D01*
X153925970Y-69196325D01*
X154011480Y-69245694D01*
X154106855Y-69271250D01*
X154205595Y-69271250D01*
X154300970Y-69245694D01*
X154386480Y-69196325D01*
X154406225Y-69176580D01*
X154406225Y-70271249D01*
X154556197Y-70271249D01*
X154556211Y-70271248D01*
X154658922Y-70260755D01*
X154825344Y-70205608D01*
X154825355Y-70205603D01*
X154966628Y-70118465D01*
X155034020Y-70100024D01*
X155100684Y-70120946D01*
X155145454Y-70174588D01*
X155155725Y-70224003D01*
X155155725Y-75295371D01*
X155136040Y-75362410D01*
X155083236Y-75408165D01*
X155014078Y-75418109D01*
X154966628Y-75400910D01*
X154825349Y-75313768D01*
X154825344Y-75313766D01*
X154658922Y-75258619D01*
X154658915Y-75258618D01*
X154556211Y-75248125D01*
X154406225Y-75248125D01*
X154406225Y-76342795D01*
X154386480Y-76323050D01*
X154300970Y-76273681D01*
X154205595Y-76248125D01*
X154106855Y-76248125D01*
X154011480Y-76273681D01*
X153925970Y-76323050D01*
X153906225Y-76342795D01*
X153906225Y-75248125D01*
X153756252Y-75248125D01*
X153756237Y-75248126D01*
X153653527Y-75258619D01*
X153487105Y-75313766D01*
X153487100Y-75313768D01*
X153337879Y-75405809D01*
X153213909Y-75529779D01*
X153121868Y-75679000D01*
X153121866Y-75679005D01*
X153066719Y-75845427D01*
X153066718Y-75845434D01*
X153056225Y-75948138D01*
X153056225Y-76373125D01*
X153875895Y-76373125D01*
X153856150Y-76392870D01*
X153806781Y-76478380D01*
X153781225Y-76573755D01*
X153781225Y-76672495D01*
X153806781Y-76767870D01*
X153856150Y-76853380D01*
X153875895Y-76873125D01*
X153056226Y-76873125D01*
X153056226Y-77298111D01*
X153066719Y-77400822D01*
X153121866Y-77567244D01*
X153121868Y-77567249D01*
X153213909Y-77716470D01*
X153337879Y-77840440D01*
X153487100Y-77932481D01*
X153487105Y-77932483D01*
X153653527Y-77987630D01*
X153653534Y-77987631D01*
X153756244Y-77998124D01*
X153906224Y-77998124D01*
X153906225Y-77998123D01*
X153906225Y-76903455D01*
X153925970Y-76923200D01*
X154011480Y-76972569D01*
X154106855Y-76998125D01*
X154205595Y-76998125D01*
X154300970Y-76972569D01*
X154386480Y-76923200D01*
X154406225Y-76903455D01*
X154406225Y-77998124D01*
X154556197Y-77998124D01*
X154556211Y-77998123D01*
X154658922Y-77987630D01*
X154825344Y-77932483D01*
X154825355Y-77932478D01*
X154966628Y-77845340D01*
X155034020Y-77826899D01*
X155100684Y-77847821D01*
X155145454Y-77901463D01*
X155155725Y-77950878D01*
X155155725Y-83022246D01*
X155136040Y-83089285D01*
X155083236Y-83135040D01*
X155014078Y-83144984D01*
X154966628Y-83127785D01*
X154825349Y-83040643D01*
X154825344Y-83040641D01*
X154658922Y-82985494D01*
X154658915Y-82985493D01*
X154556211Y-82975000D01*
X154406225Y-82975000D01*
X154406225Y-84069670D01*
X154386480Y-84049925D01*
X154300970Y-84000556D01*
X154205595Y-83975000D01*
X154106855Y-83975000D01*
X154011480Y-84000556D01*
X153925970Y-84049925D01*
X153906225Y-84069670D01*
X153906225Y-82975000D01*
X153756252Y-82975000D01*
X153756237Y-82975001D01*
X153653527Y-82985494D01*
X153487105Y-83040641D01*
X153487100Y-83040643D01*
X153337879Y-83132684D01*
X153213909Y-83256654D01*
X153121868Y-83405875D01*
X153121866Y-83405880D01*
X153066719Y-83572302D01*
X153066718Y-83572309D01*
X153056225Y-83675013D01*
X153056225Y-84100000D01*
X153875895Y-84100000D01*
X153856150Y-84119745D01*
X153806781Y-84205255D01*
X153781225Y-84300630D01*
X153781225Y-84399370D01*
X153806781Y-84494745D01*
X153856150Y-84580255D01*
X153875895Y-84600000D01*
X153056226Y-84600000D01*
X153056226Y-85024986D01*
X153066719Y-85127697D01*
X153121866Y-85294119D01*
X153121868Y-85294124D01*
X153213909Y-85443345D01*
X153337879Y-85567315D01*
X153487100Y-85659356D01*
X153487105Y-85659358D01*
X153653527Y-85714505D01*
X153653534Y-85714506D01*
X153756244Y-85724999D01*
X153906224Y-85724999D01*
X153906225Y-85724998D01*
X153906225Y-84630330D01*
X153925970Y-84650075D01*
X154011480Y-84699444D01*
X154106855Y-84725000D01*
X154205595Y-84725000D01*
X154300970Y-84699444D01*
X154386480Y-84650075D01*
X154406225Y-84630330D01*
X154406225Y-85724999D01*
X154556197Y-85724999D01*
X154556211Y-85724998D01*
X154658922Y-85714505D01*
X154825344Y-85659358D01*
X154825355Y-85659353D01*
X154966628Y-85572215D01*
X155034020Y-85553774D01*
X155100684Y-85574696D01*
X155145454Y-85628338D01*
X155155725Y-85677753D01*
X155155725Y-90749121D01*
X155136040Y-90816160D01*
X155083236Y-90861915D01*
X155014078Y-90871859D01*
X154966628Y-90854660D01*
X154825349Y-90767518D01*
X154825344Y-90767516D01*
X154658922Y-90712369D01*
X154658915Y-90712368D01*
X154556211Y-90701875D01*
X154406225Y-90701875D01*
X154406225Y-91796545D01*
X154386480Y-91776800D01*
X154300970Y-91727431D01*
X154205595Y-91701875D01*
X154106855Y-91701875D01*
X154011480Y-91727431D01*
X153925970Y-91776800D01*
X153906225Y-91796545D01*
X153906225Y-90701875D01*
X153756252Y-90701875D01*
X153756237Y-90701876D01*
X153653527Y-90712369D01*
X153487105Y-90767516D01*
X153487100Y-90767518D01*
X153337879Y-90859559D01*
X153213909Y-90983529D01*
X153121868Y-91132750D01*
X153121866Y-91132755D01*
X153066719Y-91299177D01*
X153066718Y-91299184D01*
X153056225Y-91401888D01*
X153056225Y-91826875D01*
X153875895Y-91826875D01*
X153856150Y-91846620D01*
X153806781Y-91932130D01*
X153781225Y-92027505D01*
X153781225Y-92126245D01*
X153806781Y-92221620D01*
X153856150Y-92307130D01*
X153875895Y-92326875D01*
X153056226Y-92326875D01*
X153056226Y-92751861D01*
X153066719Y-92854572D01*
X153121866Y-93020994D01*
X153121868Y-93020999D01*
X153213909Y-93170220D01*
X153337879Y-93294190D01*
X153487100Y-93386231D01*
X153487105Y-93386233D01*
X153653527Y-93441380D01*
X153653534Y-93441381D01*
X153756244Y-93451874D01*
X153906224Y-93451874D01*
X153906225Y-93451873D01*
X153906225Y-92357205D01*
X153925970Y-92376950D01*
X154011480Y-92426319D01*
X154106855Y-92451875D01*
X154205595Y-92451875D01*
X154300970Y-92426319D01*
X154386480Y-92376950D01*
X154406225Y-92357205D01*
X154406225Y-93451874D01*
X154556197Y-93451874D01*
X154556211Y-93451873D01*
X154658922Y-93441380D01*
X154825344Y-93386233D01*
X154825355Y-93386228D01*
X154966628Y-93299090D01*
X155034020Y-93280649D01*
X155100684Y-93301571D01*
X155145454Y-93355213D01*
X155155725Y-93404628D01*
X155155725Y-98475996D01*
X155136040Y-98543035D01*
X155083236Y-98588790D01*
X155014078Y-98598734D01*
X154966628Y-98581535D01*
X154825349Y-98494393D01*
X154825344Y-98494391D01*
X154658922Y-98439244D01*
X154658915Y-98439243D01*
X154556211Y-98428750D01*
X154406225Y-98428750D01*
X154406225Y-99523420D01*
X154386480Y-99503675D01*
X154300970Y-99454306D01*
X154205595Y-99428750D01*
X154106855Y-99428750D01*
X154011480Y-99454306D01*
X153925970Y-99503675D01*
X153906225Y-99523420D01*
X153906225Y-98428750D01*
X153756252Y-98428750D01*
X153756237Y-98428751D01*
X153653527Y-98439244D01*
X153487105Y-98494391D01*
X153487100Y-98494393D01*
X153337879Y-98586434D01*
X153213909Y-98710404D01*
X153121868Y-98859625D01*
X153121866Y-98859630D01*
X153066719Y-99026052D01*
X153066718Y-99026059D01*
X153056225Y-99128763D01*
X153056225Y-99553750D01*
X153875895Y-99553750D01*
X153856150Y-99573495D01*
X153806781Y-99659005D01*
X153781225Y-99754380D01*
X153781225Y-99853120D01*
X153806781Y-99948495D01*
X153856150Y-100034005D01*
X153875895Y-100053750D01*
X153056226Y-100053750D01*
X153056226Y-100478736D01*
X153066719Y-100581447D01*
X153121866Y-100747869D01*
X153121868Y-100747874D01*
X153213909Y-100897095D01*
X153337879Y-101021065D01*
X153487100Y-101113106D01*
X153487105Y-101113108D01*
X153653527Y-101168255D01*
X153653534Y-101168256D01*
X153756244Y-101178749D01*
X153906224Y-101178749D01*
X153906225Y-101178748D01*
X153906225Y-100084080D01*
X153925970Y-100103825D01*
X154011480Y-100153194D01*
X154106855Y-100178750D01*
X154205595Y-100178750D01*
X154300970Y-100153194D01*
X154386480Y-100103825D01*
X154406225Y-100084080D01*
X154406225Y-101178749D01*
X154556197Y-101178749D01*
X154556211Y-101178748D01*
X154658922Y-101168255D01*
X154825344Y-101113108D01*
X154825355Y-101113103D01*
X154966628Y-101025965D01*
X155034020Y-101007524D01*
X155100684Y-101028446D01*
X155145454Y-101082088D01*
X155155725Y-101131503D01*
X155155725Y-106202871D01*
X155136040Y-106269910D01*
X155083236Y-106315665D01*
X155014078Y-106325609D01*
X154966628Y-106308410D01*
X154825349Y-106221268D01*
X154825344Y-106221266D01*
X154658922Y-106166119D01*
X154658915Y-106166118D01*
X154556211Y-106155625D01*
X154406225Y-106155625D01*
X154406225Y-107250295D01*
X154386480Y-107230550D01*
X154300970Y-107181181D01*
X154205595Y-107155625D01*
X154106855Y-107155625D01*
X154011480Y-107181181D01*
X153925970Y-107230550D01*
X153906225Y-107250295D01*
X153906225Y-106155625D01*
X153756252Y-106155625D01*
X153756237Y-106155626D01*
X153653527Y-106166119D01*
X153487105Y-106221266D01*
X153487100Y-106221268D01*
X153337879Y-106313309D01*
X153213909Y-106437279D01*
X153121868Y-106586500D01*
X153121866Y-106586505D01*
X153066719Y-106752927D01*
X153066718Y-106752934D01*
X153056225Y-106855638D01*
X153056225Y-107280625D01*
X153875895Y-107280625D01*
X153856150Y-107300370D01*
X153806781Y-107385880D01*
X153781225Y-107481255D01*
X153781225Y-107579995D01*
X153806781Y-107675370D01*
X153856150Y-107760880D01*
X153875895Y-107780625D01*
X153056226Y-107780625D01*
X153056226Y-108205611D01*
X153066719Y-108308322D01*
X153121866Y-108474744D01*
X153121868Y-108474749D01*
X153213909Y-108623970D01*
X153337879Y-108747940D01*
X153487100Y-108839981D01*
X153487105Y-108839983D01*
X153653527Y-108895130D01*
X153653534Y-108895131D01*
X153756244Y-108905624D01*
X153906224Y-108905624D01*
X153906225Y-108905623D01*
X153906225Y-107810955D01*
X153925970Y-107830700D01*
X154011480Y-107880069D01*
X154106855Y-107905625D01*
X154205595Y-107905625D01*
X154300970Y-107880069D01*
X154386480Y-107830700D01*
X154406225Y-107810955D01*
X154406225Y-108905624D01*
X154556197Y-108905624D01*
X154556211Y-108905623D01*
X154658922Y-108895130D01*
X154825344Y-108839983D01*
X154825355Y-108839978D01*
X154966628Y-108752840D01*
X155034020Y-108734399D01*
X155100684Y-108755321D01*
X155145454Y-108808963D01*
X155155725Y-108858378D01*
X155155725Y-113929746D01*
X155136040Y-113996785D01*
X155083236Y-114042540D01*
X155014078Y-114052484D01*
X154966628Y-114035285D01*
X154825349Y-113948143D01*
X154825344Y-113948141D01*
X154658922Y-113892994D01*
X154658915Y-113892993D01*
X154556211Y-113882500D01*
X154406225Y-113882500D01*
X154406225Y-114977170D01*
X154386480Y-114957425D01*
X154300970Y-114908056D01*
X154205595Y-114882500D01*
X154106855Y-114882500D01*
X154011480Y-114908056D01*
X153925970Y-114957425D01*
X153906225Y-114977170D01*
X153906225Y-113882500D01*
X153756252Y-113882500D01*
X153756237Y-113882501D01*
X153653527Y-113892994D01*
X153487105Y-113948141D01*
X153487100Y-113948143D01*
X153337879Y-114040184D01*
X153213909Y-114164154D01*
X153121868Y-114313375D01*
X153121866Y-114313380D01*
X153066719Y-114479802D01*
X153066718Y-114479809D01*
X153056225Y-114582513D01*
X153056225Y-115007500D01*
X153875895Y-115007500D01*
X153856150Y-115027245D01*
X153806781Y-115112755D01*
X153781225Y-115208130D01*
X153781225Y-115306870D01*
X153806781Y-115402245D01*
X153856150Y-115487755D01*
X153875895Y-115507500D01*
X153056226Y-115507500D01*
X153056226Y-115932486D01*
X153066719Y-116035197D01*
X153121866Y-116201619D01*
X153121868Y-116201624D01*
X153213909Y-116350845D01*
X153337879Y-116474815D01*
X153487100Y-116566856D01*
X153487105Y-116566858D01*
X153653527Y-116622005D01*
X153653534Y-116622006D01*
X153756244Y-116632499D01*
X153906224Y-116632499D01*
X153906225Y-116632498D01*
X153906225Y-115537830D01*
X153925970Y-115557575D01*
X154011480Y-115606944D01*
X154106855Y-115632500D01*
X154205595Y-115632500D01*
X154300970Y-115606944D01*
X154386480Y-115557575D01*
X154406225Y-115537830D01*
X154406225Y-116632499D01*
X154556197Y-116632499D01*
X154556211Y-116632498D01*
X154658922Y-116622005D01*
X154825344Y-116566858D01*
X154825355Y-116566853D01*
X154966628Y-116479715D01*
X155034020Y-116461274D01*
X155100684Y-116482196D01*
X155145454Y-116535838D01*
X155155725Y-116585253D01*
X155155725Y-121117992D01*
X155136040Y-121185031D01*
X155119406Y-121205673D01*
X151866897Y-124458181D01*
X151805574Y-124491666D01*
X151779216Y-124494500D01*
X151469999Y-124494500D01*
X151469980Y-124494501D01*
X151367203Y-124505000D01*
X151367200Y-124505001D01*
X151200668Y-124560185D01*
X151200663Y-124560187D01*
X151051342Y-124652289D01*
X150927289Y-124776342D01*
X150887420Y-124840981D01*
X150835472Y-124887705D01*
X150766509Y-124898928D01*
X150702427Y-124871084D01*
X150694200Y-124863565D01*
X150586602Y-124755967D01*
X150446524Y-124654195D01*
X150292257Y-124575591D01*
X150127589Y-124522087D01*
X150127581Y-124522085D01*
X150120000Y-124520884D01*
X150120000Y-125589670D01*
X150100255Y-125569925D01*
X150014745Y-125520556D01*
X149919370Y-125495000D01*
X149820630Y-125495000D01*
X149725255Y-125520556D01*
X149639745Y-125569925D01*
X149620000Y-125589670D01*
X149620000Y-124520884D01*
X149619999Y-124520884D01*
X149612418Y-124522085D01*
X149612410Y-124522087D01*
X149447742Y-124575591D01*
X149293475Y-124654195D01*
X149153397Y-124755967D01*
X149030967Y-124878397D01*
X148929195Y-125018475D01*
X148850591Y-125172742D01*
X148797085Y-125337415D01*
X148770000Y-125508428D01*
X148770000Y-125620000D01*
X149589670Y-125620000D01*
X149569925Y-125639745D01*
X149520556Y-125725255D01*
X149495000Y-125820630D01*
X149495000Y-125919370D01*
X149520556Y-126014745D01*
X149569925Y-126100255D01*
X149589670Y-126120000D01*
X148770000Y-126120000D01*
X148770000Y-126231571D01*
X148797085Y-126402584D01*
X148850591Y-126567257D01*
X148929195Y-126721524D01*
X149030967Y-126861602D01*
X149153397Y-126984032D01*
X149293475Y-127085804D01*
X149447744Y-127164408D01*
X149612415Y-127217914D01*
X149612414Y-127217914D01*
X149619999Y-127219115D01*
X149620000Y-127219114D01*
X149620000Y-126150330D01*
X149639745Y-126170075D01*
X149725255Y-126219444D01*
X149820630Y-126245000D01*
X149919370Y-126245000D01*
X150014745Y-126219444D01*
X150100255Y-126170075D01*
X150120000Y-126150330D01*
X150120000Y-127219115D01*
X150127584Y-127217914D01*
X150292255Y-127164408D01*
X150446524Y-127085804D01*
X150586598Y-126984035D01*
X150694199Y-126876434D01*
X150755522Y-126842949D01*
X150825214Y-126847933D01*
X150881148Y-126889804D01*
X150887420Y-126899019D01*
X150918329Y-126949132D01*
X150927288Y-126963656D01*
X151051344Y-127087712D01*
X151200666Y-127179814D01*
X151367203Y-127234999D01*
X151469991Y-127245500D01*
X152270008Y-127245499D01*
X152272364Y-127245258D01*
X152273025Y-127245191D01*
X152341719Y-127257957D01*
X152392605Y-127305835D01*
X152409529Y-127373624D01*
X152387117Y-127439801D01*
X152373314Y-127456229D01*
X151476363Y-128353181D01*
X151415040Y-128386666D01*
X151388682Y-128389500D01*
X136784500Y-128389500D01*
X136717461Y-128369815D01*
X136671706Y-128317011D01*
X136660500Y-128265500D01*
X136660500Y-125402204D01*
X136680185Y-125335165D01*
X136696819Y-125314523D01*
X136721464Y-125289878D01*
X136749414Y-125261928D01*
X136809682Y-125178975D01*
X136865012Y-125136311D01*
X136934626Y-125130332D01*
X136996421Y-125162938D01*
X137010315Y-125178973D01*
X137070586Y-125261928D01*
X137193072Y-125384414D01*
X137333212Y-125486232D01*
X137487555Y-125564873D01*
X137652299Y-125618402D01*
X137823389Y-125645500D01*
X137823390Y-125645500D01*
X137996610Y-125645500D01*
X137996611Y-125645500D01*
X138167701Y-125618402D01*
X138332445Y-125564873D01*
X138486788Y-125486232D01*
X138626928Y-125384414D01*
X138749414Y-125261928D01*
X138809682Y-125178975D01*
X138865012Y-125136311D01*
X138934626Y-125130332D01*
X138996421Y-125162938D01*
X139010315Y-125178973D01*
X139070586Y-125261928D01*
X139193072Y-125384414D01*
X139333212Y-125486232D01*
X139487555Y-125564873D01*
X139652299Y-125618402D01*
X139823389Y-125645500D01*
X139823390Y-125645500D01*
X139996610Y-125645500D01*
X139996611Y-125645500D01*
X140167701Y-125618402D01*
X140332445Y-125564873D01*
X140486788Y-125486232D01*
X140626928Y-125384414D01*
X140734836Y-125276505D01*
X140796155Y-125243023D01*
X140865847Y-125248007D01*
X140921781Y-125289878D01*
X140928053Y-125299093D01*
X140967682Y-125363343D01*
X141091654Y-125487315D01*
X141240875Y-125579356D01*
X141240880Y-125579358D01*
X141407302Y-125634505D01*
X141407309Y-125634506D01*
X141510019Y-125644999D01*
X141659999Y-125644999D01*
X141660000Y-125644998D01*
X141660000Y-124550330D01*
X141679745Y-124570075D01*
X141765255Y-124619444D01*
X141860630Y-124645000D01*
X141959370Y-124645000D01*
X142054745Y-124619444D01*
X142140255Y-124570075D01*
X142160000Y-124550330D01*
X142160000Y-125644999D01*
X142309972Y-125644999D01*
X142309986Y-125644998D01*
X142412697Y-125634505D01*
X142579119Y-125579358D01*
X142579124Y-125579356D01*
X142728345Y-125487315D01*
X142799786Y-125415875D01*
X142852315Y-125363345D01*
X142944356Y-125214124D01*
X142944358Y-125214119D01*
X142999505Y-125047697D01*
X142999506Y-125047690D01*
X143009999Y-124944986D01*
X143010000Y-124944973D01*
X143010000Y-124520000D01*
X142190330Y-124520000D01*
X142210075Y-124500255D01*
X142259444Y-124414745D01*
X142285000Y-124319370D01*
X142285000Y-124220630D01*
X142259444Y-124125255D01*
X142210075Y-124039745D01*
X142190330Y-124020000D01*
X143009999Y-124020000D01*
X143009999Y-123595028D01*
X143009998Y-123595013D01*
X142999505Y-123492302D01*
X142944358Y-123325880D01*
X142944356Y-123325875D01*
X142852315Y-123176654D01*
X142728345Y-123052684D01*
X142579124Y-122960643D01*
X142579119Y-122960641D01*
X142412697Y-122905494D01*
X142412690Y-122905493D01*
X142309986Y-122895000D01*
X142160000Y-122895000D01*
X142160000Y-123989670D01*
X142140255Y-123969925D01*
X142054745Y-123920556D01*
X141959370Y-123895000D01*
X141860630Y-123895000D01*
X141765255Y-123920556D01*
X141679745Y-123969925D01*
X141660000Y-123989670D01*
X141660000Y-122895000D01*
X141510027Y-122895000D01*
X141510012Y-122895001D01*
X141407302Y-122905494D01*
X141240880Y-122960641D01*
X141240875Y-122960643D01*
X141091654Y-123052684D01*
X140967684Y-123176654D01*
X140928053Y-123240907D01*
X140876105Y-123287631D01*
X140807142Y-123298853D01*
X140743060Y-123271010D01*
X140734833Y-123263491D01*
X140626930Y-123155588D01*
X140626928Y-123155586D01*
X140486788Y-123053768D01*
X140332445Y-122975127D01*
X140167701Y-122921598D01*
X140167699Y-122921597D01*
X140167698Y-122921597D01*
X140036271Y-122900781D01*
X139996611Y-122894500D01*
X139823389Y-122894500D01*
X139783728Y-122900781D01*
X139652302Y-122921597D01*
X139487552Y-122975128D01*
X139333211Y-123053768D01*
X139254567Y-123110907D01*
X139193072Y-123155586D01*
X139193070Y-123155588D01*
X139193069Y-123155588D01*
X139070588Y-123278069D01*
X139070581Y-123278078D01*
X139010317Y-123361023D01*
X138954987Y-123403689D01*
X138885374Y-123409667D01*
X138823579Y-123377061D01*
X138809683Y-123361023D01*
X138756779Y-123288209D01*
X138749414Y-123278072D01*
X138626928Y-123155586D01*
X138486788Y-123053768D01*
X138332445Y-122975127D01*
X138167701Y-122921598D01*
X138167699Y-122921597D01*
X138167698Y-122921597D01*
X138036271Y-122900781D01*
X137996611Y-122894500D01*
X137823389Y-122894500D01*
X137783728Y-122900781D01*
X137652302Y-122921597D01*
X137487552Y-122975128D01*
X137333211Y-123053768D01*
X137254567Y-123110907D01*
X137193072Y-123155586D01*
X137193070Y-123155588D01*
X137193069Y-123155588D01*
X137070588Y-123278069D01*
X137070581Y-123278078D01*
X137010317Y-123361023D01*
X136954987Y-123403689D01*
X136885374Y-123409667D01*
X136823579Y-123377061D01*
X136809683Y-123361023D01*
X136756779Y-123288209D01*
X136749414Y-123278072D01*
X136696819Y-123225477D01*
X136663334Y-123164154D01*
X136660500Y-123137796D01*
X136660500Y-114104604D01*
X136669939Y-114057151D01*
X136675991Y-114042540D01*
X136679737Y-114033497D01*
X136710500Y-113878842D01*
X136710500Y-113721158D01*
X136710500Y-113721155D01*
X136710499Y-113721153D01*
X136679738Y-113566510D01*
X136679737Y-113566503D01*
X136679735Y-113566498D01*
X136619397Y-113420827D01*
X136619390Y-113420814D01*
X136531789Y-113289711D01*
X136531786Y-113289707D01*
X136420292Y-113178213D01*
X136420288Y-113178210D01*
X136289185Y-113090609D01*
X136289172Y-113090602D01*
X136143501Y-113030264D01*
X136143489Y-113030261D01*
X135988845Y-112999500D01*
X135988842Y-112999500D01*
X135831158Y-112999500D01*
X135831155Y-112999500D01*
X135676510Y-113030261D01*
X135676498Y-113030264D01*
X135530827Y-113090602D01*
X135530814Y-113090609D01*
X135399711Y-113178210D01*
X135399707Y-113178213D01*
X135288213Y-113289707D01*
X135288210Y-113289711D01*
X135200609Y-113420814D01*
X135200602Y-113420827D01*
X135140264Y-113566498D01*
X135140261Y-113566510D01*
X135109500Y-113721153D01*
X135109500Y-113878846D01*
X135140261Y-114033489D01*
X135140263Y-114033497D01*
X135150061Y-114057151D01*
X135159500Y-114104604D01*
X135159500Y-123137796D01*
X135139815Y-123204835D01*
X135123181Y-123225477D01*
X135070588Y-123278069D01*
X135070588Y-123278070D01*
X135070586Y-123278072D01*
X135063221Y-123288209D01*
X134968768Y-123418211D01*
X134890128Y-123572552D01*
X134836597Y-123737302D01*
X134811621Y-123895000D01*
X134809500Y-123908389D01*
X134809500Y-124631611D01*
X134836598Y-124802701D01*
X134890127Y-124967445D01*
X134968768Y-125121788D01*
X135070586Y-125261928D01*
X135070588Y-125261930D01*
X135123181Y-125314523D01*
X135156666Y-125375846D01*
X135159500Y-125402204D01*
X135159500Y-128265500D01*
X135139815Y-128332539D01*
X135087011Y-128378294D01*
X135035500Y-128389500D01*
X125004500Y-128389500D01*
X124937461Y-128369815D01*
X124891706Y-128317011D01*
X124880500Y-128265500D01*
X124880500Y-125402204D01*
X124900185Y-125335165D01*
X124916819Y-125314523D01*
X124941464Y-125289878D01*
X124969414Y-125261928D01*
X125029682Y-125178975D01*
X125085012Y-125136311D01*
X125154626Y-125130332D01*
X125216421Y-125162938D01*
X125230315Y-125178973D01*
X125290586Y-125261928D01*
X125413072Y-125384414D01*
X125553212Y-125486232D01*
X125707555Y-125564873D01*
X125872299Y-125618402D01*
X126043389Y-125645500D01*
X126043390Y-125645500D01*
X126216610Y-125645500D01*
X126216611Y-125645500D01*
X126387701Y-125618402D01*
X126552445Y-125564873D01*
X126706788Y-125486232D01*
X126846928Y-125384414D01*
X126969414Y-125261928D01*
X127029682Y-125178975D01*
X127085012Y-125136311D01*
X127154626Y-125130332D01*
X127216421Y-125162938D01*
X127230315Y-125178973D01*
X127290586Y-125261928D01*
X127413072Y-125384414D01*
X127553212Y-125486232D01*
X127707555Y-125564873D01*
X127872299Y-125618402D01*
X128043389Y-125645500D01*
X128043390Y-125645500D01*
X128216610Y-125645500D01*
X128216611Y-125645500D01*
X128387701Y-125618402D01*
X128552445Y-125564873D01*
X128706788Y-125486232D01*
X128846928Y-125384414D01*
X128954836Y-125276505D01*
X129016155Y-125243023D01*
X129085847Y-125248007D01*
X129141781Y-125289878D01*
X129148053Y-125299093D01*
X129187682Y-125363343D01*
X129311654Y-125487315D01*
X129460875Y-125579356D01*
X129460880Y-125579358D01*
X129627302Y-125634505D01*
X129627309Y-125634506D01*
X129730019Y-125644999D01*
X129879999Y-125644999D01*
X129880000Y-125644998D01*
X129880000Y-124550330D01*
X129899745Y-124570075D01*
X129985255Y-124619444D01*
X130080630Y-124645000D01*
X130179370Y-124645000D01*
X130274745Y-124619444D01*
X130360255Y-124570075D01*
X130380000Y-124550330D01*
X130380000Y-125644999D01*
X130529972Y-125644999D01*
X130529986Y-125644998D01*
X130632697Y-125634505D01*
X130799119Y-125579358D01*
X130799124Y-125579356D01*
X130948345Y-125487315D01*
X131072315Y-125363345D01*
X131164356Y-125214124D01*
X131164358Y-125214119D01*
X131219505Y-125047697D01*
X131219506Y-125047690D01*
X131229999Y-124944986D01*
X131230000Y-124944973D01*
X131230000Y-124520000D01*
X130410330Y-124520000D01*
X130430075Y-124500255D01*
X130479444Y-124414745D01*
X130505000Y-124319370D01*
X130505000Y-124220630D01*
X130479444Y-124125255D01*
X130430075Y-124039745D01*
X130410330Y-124020000D01*
X131229999Y-124020000D01*
X131229999Y-123595028D01*
X131229998Y-123595013D01*
X131219505Y-123492302D01*
X131164358Y-123325880D01*
X131164356Y-123325875D01*
X131072315Y-123176654D01*
X130948345Y-123052684D01*
X130799124Y-122960643D01*
X130799119Y-122960641D01*
X130632697Y-122905494D01*
X130632690Y-122905493D01*
X130529986Y-122895000D01*
X130380000Y-122895000D01*
X130380000Y-123989670D01*
X130360255Y-123969925D01*
X130274745Y-123920556D01*
X130179370Y-123895000D01*
X130080630Y-123895000D01*
X129985255Y-123920556D01*
X129899745Y-123969925D01*
X129880000Y-123989670D01*
X129880000Y-122895000D01*
X129730027Y-122895000D01*
X129730012Y-122895001D01*
X129627302Y-122905494D01*
X129460880Y-122960641D01*
X129460875Y-122960643D01*
X129311654Y-123052684D01*
X129187684Y-123176654D01*
X129148053Y-123240907D01*
X129096105Y-123287631D01*
X129027142Y-123298853D01*
X128963060Y-123271010D01*
X128954833Y-123263491D01*
X128846930Y-123155588D01*
X128846928Y-123155586D01*
X128706788Y-123053768D01*
X128552445Y-122975127D01*
X128387701Y-122921598D01*
X128387699Y-122921597D01*
X128387698Y-122921597D01*
X128256271Y-122900781D01*
X128216611Y-122894500D01*
X128043389Y-122894500D01*
X128003728Y-122900781D01*
X127872302Y-122921597D01*
X127707552Y-122975128D01*
X127553211Y-123053768D01*
X127474567Y-123110907D01*
X127413072Y-123155586D01*
X127413070Y-123155588D01*
X127413069Y-123155588D01*
X127290588Y-123278069D01*
X127290581Y-123278078D01*
X127230317Y-123361023D01*
X127174987Y-123403689D01*
X127105374Y-123409667D01*
X127043579Y-123377061D01*
X127029683Y-123361023D01*
X126976779Y-123288209D01*
X126969414Y-123278072D01*
X126846928Y-123155586D01*
X126706788Y-123053768D01*
X126552445Y-122975127D01*
X126387701Y-122921598D01*
X126387699Y-122921597D01*
X126387698Y-122921597D01*
X126256271Y-122900781D01*
X126216611Y-122894500D01*
X126043389Y-122894500D01*
X126003728Y-122900781D01*
X125872302Y-122921597D01*
X125707552Y-122975128D01*
X125553211Y-123053768D01*
X125474567Y-123110907D01*
X125413072Y-123155586D01*
X125413070Y-123155588D01*
X125413069Y-123155588D01*
X125290588Y-123278069D01*
X125290581Y-123278078D01*
X125230317Y-123361023D01*
X125174987Y-123403689D01*
X125105374Y-123409667D01*
X125043579Y-123377061D01*
X125029683Y-123361023D01*
X124976779Y-123288209D01*
X124969414Y-123278072D01*
X124846928Y-123155586D01*
X124706788Y-123053768D01*
X124552445Y-122975127D01*
X124387701Y-122921598D01*
X124387699Y-122921597D01*
X124387698Y-122921597D01*
X124256271Y-122900781D01*
X124216611Y-122894500D01*
X124043389Y-122894500D01*
X124003728Y-122900781D01*
X123872302Y-122921597D01*
X123707552Y-122975128D01*
X123553211Y-123053768D01*
X123474567Y-123110907D01*
X123413072Y-123155586D01*
X123413070Y-123155588D01*
X123413069Y-123155588D01*
X123290588Y-123278069D01*
X123290588Y-123278070D01*
X123290586Y-123278072D01*
X123283221Y-123288209D01*
X123188768Y-123418211D01*
X123110128Y-123572552D01*
X123056597Y-123737302D01*
X123031621Y-123895000D01*
X123029500Y-123908389D01*
X123029500Y-124631611D01*
X123056598Y-124802701D01*
X123110127Y-124967445D01*
X123188768Y-125121788D01*
X123290586Y-125261928D01*
X123290588Y-125261930D01*
X123343181Y-125314523D01*
X123376666Y-125375846D01*
X123379500Y-125402204D01*
X123379500Y-128265500D01*
X123359815Y-128332539D01*
X123307011Y-128378294D01*
X123255500Y-128389500D01*
X113014500Y-128389500D01*
X112947461Y-128369815D01*
X112901706Y-128317011D01*
X112890500Y-128265500D01*
X112890500Y-125402204D01*
X112910185Y-125335165D01*
X112926819Y-125314523D01*
X112951464Y-125289878D01*
X112979414Y-125261928D01*
X113039682Y-125178975D01*
X113095012Y-125136311D01*
X113164626Y-125130332D01*
X113226421Y-125162938D01*
X113240315Y-125178973D01*
X113300586Y-125261928D01*
X113423072Y-125384414D01*
X113563212Y-125486232D01*
X113717555Y-125564873D01*
X113882299Y-125618402D01*
X114053389Y-125645500D01*
X114053390Y-125645500D01*
X114226610Y-125645500D01*
X114226611Y-125645500D01*
X114397701Y-125618402D01*
X114562445Y-125564873D01*
X114716788Y-125486232D01*
X114856928Y-125384414D01*
X114979414Y-125261928D01*
X115039682Y-125178975D01*
X115095012Y-125136311D01*
X115164626Y-125130332D01*
X115226421Y-125162938D01*
X115240315Y-125178973D01*
X115300586Y-125261928D01*
X115423072Y-125384414D01*
X115563212Y-125486232D01*
X115717555Y-125564873D01*
X115882299Y-125618402D01*
X116053389Y-125645500D01*
X116053390Y-125645500D01*
X116226610Y-125645500D01*
X116226611Y-125645500D01*
X116397701Y-125618402D01*
X116562445Y-125564873D01*
X116716788Y-125486232D01*
X116856928Y-125384414D01*
X116964836Y-125276505D01*
X117026155Y-125243023D01*
X117095847Y-125248007D01*
X117151781Y-125289878D01*
X117158053Y-125299093D01*
X117197682Y-125363343D01*
X117321654Y-125487315D01*
X117470875Y-125579356D01*
X117470880Y-125579358D01*
X117637302Y-125634505D01*
X117637309Y-125634506D01*
X117740019Y-125644999D01*
X117889999Y-125644999D01*
X117890000Y-125644998D01*
X117890000Y-124550330D01*
X117909745Y-124570075D01*
X117995255Y-124619444D01*
X118090630Y-124645000D01*
X118189370Y-124645000D01*
X118284745Y-124619444D01*
X118370255Y-124570075D01*
X118390000Y-124550330D01*
X118390000Y-125644999D01*
X118539972Y-125644999D01*
X118539986Y-125644998D01*
X118642697Y-125634505D01*
X118809119Y-125579358D01*
X118809124Y-125579356D01*
X118958345Y-125487315D01*
X119082315Y-125363345D01*
X119174356Y-125214124D01*
X119174358Y-125214119D01*
X119229505Y-125047697D01*
X119229506Y-125047690D01*
X119239999Y-124944986D01*
X119240000Y-124944973D01*
X119240000Y-124520000D01*
X118420330Y-124520000D01*
X118440075Y-124500255D01*
X118489444Y-124414745D01*
X118515000Y-124319370D01*
X118515000Y-124220630D01*
X118489444Y-124125255D01*
X118440075Y-124039745D01*
X118420330Y-124020000D01*
X119239999Y-124020000D01*
X119239999Y-123595028D01*
X119239998Y-123595013D01*
X119229505Y-123492302D01*
X119174358Y-123325880D01*
X119174356Y-123325875D01*
X119082315Y-123176654D01*
X118958345Y-123052684D01*
X118809124Y-122960643D01*
X118809119Y-122960641D01*
X118642697Y-122905494D01*
X118642690Y-122905493D01*
X118539986Y-122895000D01*
X118390000Y-122895000D01*
X118390000Y-123989670D01*
X118370255Y-123969925D01*
X118284745Y-123920556D01*
X118189370Y-123895000D01*
X118090630Y-123895000D01*
X117995255Y-123920556D01*
X117909745Y-123969925D01*
X117890000Y-123989670D01*
X117890000Y-122895000D01*
X117740027Y-122895000D01*
X117740012Y-122895001D01*
X117637302Y-122905494D01*
X117470880Y-122960641D01*
X117470875Y-122960643D01*
X117321654Y-123052684D01*
X117197684Y-123176654D01*
X117158053Y-123240907D01*
X117106105Y-123287631D01*
X117037142Y-123298853D01*
X116973060Y-123271010D01*
X116964833Y-123263491D01*
X116856930Y-123155588D01*
X116856928Y-123155586D01*
X116716788Y-123053768D01*
X116562445Y-122975127D01*
X116397701Y-122921598D01*
X116397699Y-122921597D01*
X116397698Y-122921597D01*
X116266271Y-122900781D01*
X116226611Y-122894500D01*
X116053389Y-122894500D01*
X116013728Y-122900781D01*
X115882302Y-122921597D01*
X115717552Y-122975128D01*
X115563211Y-123053768D01*
X115484567Y-123110907D01*
X115423072Y-123155586D01*
X115423070Y-123155588D01*
X115423069Y-123155588D01*
X115300588Y-123278069D01*
X115300581Y-123278078D01*
X115240317Y-123361023D01*
X115184987Y-123403689D01*
X115115374Y-123409667D01*
X115053579Y-123377061D01*
X115039683Y-123361023D01*
X114986779Y-123288209D01*
X114979414Y-123278072D01*
X114856928Y-123155586D01*
X114716788Y-123053768D01*
X114562445Y-122975127D01*
X114397701Y-122921598D01*
X114397699Y-122921597D01*
X114397698Y-122921597D01*
X114266271Y-122900781D01*
X114226611Y-122894500D01*
X114053389Y-122894500D01*
X114013728Y-122900781D01*
X113882302Y-122921597D01*
X113717552Y-122975128D01*
X113563211Y-123053768D01*
X113484567Y-123110907D01*
X113423072Y-123155586D01*
X113423070Y-123155588D01*
X113423069Y-123155588D01*
X113300588Y-123278069D01*
X113300581Y-123278078D01*
X113240317Y-123361023D01*
X113184987Y-123403689D01*
X113115374Y-123409667D01*
X113053579Y-123377061D01*
X113039683Y-123361023D01*
X112986779Y-123288209D01*
X112979414Y-123278072D01*
X112856928Y-123155586D01*
X112716788Y-123053768D01*
X112562445Y-122975127D01*
X112397701Y-122921598D01*
X112397699Y-122921597D01*
X112397698Y-122921597D01*
X112266271Y-122900781D01*
X112226611Y-122894500D01*
X112053389Y-122894500D01*
X112013728Y-122900781D01*
X111882302Y-122921597D01*
X111717552Y-122975128D01*
X111563211Y-123053768D01*
X111484567Y-123110907D01*
X111423072Y-123155586D01*
X111423070Y-123155588D01*
X111423069Y-123155588D01*
X111300588Y-123278069D01*
X111300588Y-123278070D01*
X111300586Y-123278072D01*
X111293221Y-123288209D01*
X111198768Y-123418211D01*
X111120128Y-123572552D01*
X111066597Y-123737302D01*
X111041621Y-123895000D01*
X111039500Y-123908389D01*
X111039500Y-124631611D01*
X111066598Y-124802701D01*
X111120127Y-124967445D01*
X111198768Y-125121788D01*
X111300586Y-125261928D01*
X111300588Y-125261930D01*
X111353181Y-125314523D01*
X111386666Y-125375846D01*
X111389500Y-125402204D01*
X111389500Y-128265500D01*
X111369815Y-128332539D01*
X111317011Y-128378294D01*
X111265500Y-128389500D01*
X101174500Y-128389500D01*
X101107461Y-128369815D01*
X101061706Y-128317011D01*
X101050500Y-128265500D01*
X101050500Y-125402204D01*
X101070185Y-125335165D01*
X101086819Y-125314523D01*
X101111464Y-125289878D01*
X101139414Y-125261928D01*
X101199682Y-125178975D01*
X101255012Y-125136311D01*
X101324626Y-125130332D01*
X101386421Y-125162938D01*
X101400315Y-125178973D01*
X101460586Y-125261928D01*
X101583072Y-125384414D01*
X101723212Y-125486232D01*
X101877555Y-125564873D01*
X102042299Y-125618402D01*
X102213389Y-125645500D01*
X102213390Y-125645500D01*
X102386610Y-125645500D01*
X102386611Y-125645500D01*
X102557701Y-125618402D01*
X102722445Y-125564873D01*
X102876788Y-125486232D01*
X103016928Y-125384414D01*
X103139414Y-125261928D01*
X103199682Y-125178975D01*
X103255012Y-125136311D01*
X103324626Y-125130332D01*
X103386421Y-125162938D01*
X103400315Y-125178973D01*
X103460586Y-125261928D01*
X103583072Y-125384414D01*
X103723212Y-125486232D01*
X103877555Y-125564873D01*
X104042299Y-125618402D01*
X104213389Y-125645500D01*
X104213390Y-125645500D01*
X104386610Y-125645500D01*
X104386611Y-125645500D01*
X104557701Y-125618402D01*
X104722445Y-125564873D01*
X104876788Y-125486232D01*
X105016928Y-125384414D01*
X105124836Y-125276505D01*
X105186155Y-125243023D01*
X105255847Y-125248007D01*
X105311781Y-125289878D01*
X105318053Y-125299093D01*
X105357682Y-125363343D01*
X105481654Y-125487315D01*
X105630875Y-125579356D01*
X105630880Y-125579358D01*
X105797302Y-125634505D01*
X105797309Y-125634506D01*
X105900019Y-125644999D01*
X106049999Y-125644999D01*
X106050000Y-125644998D01*
X106050000Y-124550330D01*
X106069745Y-124570075D01*
X106155255Y-124619444D01*
X106250630Y-124645000D01*
X106349370Y-124645000D01*
X106444745Y-124619444D01*
X106530255Y-124570075D01*
X106550000Y-124550330D01*
X106550000Y-125644999D01*
X106699972Y-125644999D01*
X106699986Y-125644998D01*
X106802697Y-125634505D01*
X106969119Y-125579358D01*
X106969124Y-125579356D01*
X107118345Y-125487315D01*
X107242315Y-125363345D01*
X107334356Y-125214124D01*
X107334358Y-125214119D01*
X107389505Y-125047697D01*
X107389506Y-125047690D01*
X107399999Y-124944986D01*
X107400000Y-124944973D01*
X107400000Y-124520000D01*
X106580330Y-124520000D01*
X106600075Y-124500255D01*
X106649444Y-124414745D01*
X106675000Y-124319370D01*
X106675000Y-124220630D01*
X106649444Y-124125255D01*
X106600075Y-124039745D01*
X106580330Y-124020000D01*
X107399999Y-124020000D01*
X107399999Y-123595028D01*
X107399998Y-123595013D01*
X107389505Y-123492302D01*
X107334358Y-123325880D01*
X107334356Y-123325875D01*
X107242315Y-123176654D01*
X107118345Y-123052684D01*
X106969124Y-122960643D01*
X106969119Y-122960641D01*
X106802697Y-122905494D01*
X106802690Y-122905493D01*
X106699986Y-122895000D01*
X106550000Y-122895000D01*
X106550000Y-123989670D01*
X106530255Y-123969925D01*
X106444745Y-123920556D01*
X106349370Y-123895000D01*
X106250630Y-123895000D01*
X106155255Y-123920556D01*
X106069745Y-123969925D01*
X106050000Y-123989670D01*
X106050000Y-122895000D01*
X105900027Y-122895000D01*
X105900012Y-122895001D01*
X105797302Y-122905494D01*
X105630880Y-122960641D01*
X105630875Y-122960643D01*
X105481654Y-123052684D01*
X105357684Y-123176654D01*
X105318053Y-123240907D01*
X105266105Y-123287631D01*
X105197142Y-123298853D01*
X105133060Y-123271010D01*
X105124833Y-123263491D01*
X105016930Y-123155588D01*
X105016928Y-123155586D01*
X104876788Y-123053768D01*
X104722445Y-122975127D01*
X104557701Y-122921598D01*
X104557699Y-122921597D01*
X104557698Y-122921597D01*
X104426271Y-122900781D01*
X104386611Y-122894500D01*
X104213389Y-122894500D01*
X104173728Y-122900781D01*
X104042302Y-122921597D01*
X103877552Y-122975128D01*
X103723211Y-123053768D01*
X103644567Y-123110907D01*
X103583072Y-123155586D01*
X103583070Y-123155588D01*
X103583069Y-123155588D01*
X103460588Y-123278069D01*
X103460581Y-123278078D01*
X103400317Y-123361023D01*
X103344987Y-123403689D01*
X103275374Y-123409667D01*
X103213579Y-123377061D01*
X103199683Y-123361023D01*
X103146779Y-123288209D01*
X103139414Y-123278072D01*
X103016928Y-123155586D01*
X102876788Y-123053768D01*
X102722445Y-122975127D01*
X102557701Y-122921598D01*
X102557699Y-122921597D01*
X102557698Y-122921597D01*
X102426271Y-122900781D01*
X102386611Y-122894500D01*
X102213389Y-122894500D01*
X102173728Y-122900781D01*
X102042302Y-122921597D01*
X101877552Y-122975128D01*
X101723211Y-123053768D01*
X101644567Y-123110907D01*
X101583072Y-123155586D01*
X101583070Y-123155588D01*
X101583069Y-123155588D01*
X101460588Y-123278069D01*
X101460581Y-123278078D01*
X101400317Y-123361023D01*
X101344987Y-123403689D01*
X101275374Y-123409667D01*
X101213579Y-123377061D01*
X101199683Y-123361023D01*
X101146779Y-123288209D01*
X101139414Y-123278072D01*
X101016928Y-123155586D01*
X100876788Y-123053768D01*
X100722445Y-122975127D01*
X100557701Y-122921598D01*
X100557699Y-122921597D01*
X100557698Y-122921597D01*
X100426271Y-122900781D01*
X100386611Y-122894500D01*
X100213389Y-122894500D01*
X100173728Y-122900781D01*
X100042302Y-122921597D01*
X99877552Y-122975128D01*
X99723211Y-123053768D01*
X99644567Y-123110907D01*
X99583072Y-123155586D01*
X99583070Y-123155588D01*
X99583069Y-123155588D01*
X99460588Y-123278069D01*
X99460588Y-123278070D01*
X99460586Y-123278072D01*
X99453221Y-123288209D01*
X99358768Y-123418211D01*
X99280128Y-123572552D01*
X99226597Y-123737302D01*
X99201621Y-123895000D01*
X99199500Y-123908389D01*
X99199500Y-124631611D01*
X99226598Y-124802701D01*
X99280127Y-124967445D01*
X99358768Y-125121788D01*
X99460586Y-125261928D01*
X99460588Y-125261930D01*
X99513181Y-125314523D01*
X99546666Y-125375846D01*
X99549500Y-125402204D01*
X99549500Y-128265500D01*
X99529815Y-128332539D01*
X99477011Y-128378294D01*
X99425500Y-128389500D01*
X85950929Y-128389500D01*
X85883890Y-128369815D01*
X85838135Y-128317011D01*
X85826929Y-128265500D01*
X85826929Y-125272204D01*
X85846614Y-125205165D01*
X85863248Y-125184523D01*
X85887893Y-125159878D01*
X85915843Y-125131928D01*
X85976111Y-125048975D01*
X86031441Y-125006311D01*
X86101055Y-125000332D01*
X86162850Y-125032938D01*
X86176744Y-125048973D01*
X86237015Y-125131928D01*
X86359501Y-125254414D01*
X86499641Y-125356232D01*
X86653984Y-125434873D01*
X86818728Y-125488402D01*
X86989818Y-125515500D01*
X86989819Y-125515500D01*
X87163039Y-125515500D01*
X87163040Y-125515500D01*
X87334130Y-125488402D01*
X87498874Y-125434873D01*
X87653217Y-125356232D01*
X87793357Y-125254414D01*
X87915843Y-125131928D01*
X87976111Y-125048975D01*
X88031441Y-125006311D01*
X88101055Y-125000332D01*
X88162850Y-125032938D01*
X88176744Y-125048973D01*
X88237015Y-125131928D01*
X88359501Y-125254414D01*
X88499641Y-125356232D01*
X88653984Y-125434873D01*
X88818728Y-125488402D01*
X88989818Y-125515500D01*
X88989819Y-125515500D01*
X89163039Y-125515500D01*
X89163040Y-125515500D01*
X89334130Y-125488402D01*
X89498874Y-125434873D01*
X89653217Y-125356232D01*
X89793357Y-125254414D01*
X89901265Y-125146505D01*
X89962584Y-125113023D01*
X90032276Y-125118007D01*
X90088210Y-125159878D01*
X90094482Y-125169093D01*
X90134111Y-125233343D01*
X90258083Y-125357315D01*
X90407304Y-125449356D01*
X90407309Y-125449358D01*
X90573731Y-125504505D01*
X90573738Y-125504506D01*
X90676448Y-125514999D01*
X90826428Y-125514999D01*
X90826429Y-125514998D01*
X90826429Y-124420330D01*
X90846174Y-124440075D01*
X90931684Y-124489444D01*
X91027059Y-124515000D01*
X91125799Y-124515000D01*
X91221174Y-124489444D01*
X91306684Y-124440075D01*
X91326429Y-124420330D01*
X91326429Y-125514999D01*
X91476401Y-125514999D01*
X91476415Y-125514998D01*
X91579126Y-125504505D01*
X91745548Y-125449358D01*
X91745553Y-125449356D01*
X91894774Y-125357315D01*
X92018744Y-125233345D01*
X92110785Y-125084124D01*
X92110787Y-125084119D01*
X92165934Y-124917697D01*
X92165935Y-124917690D01*
X92176428Y-124814986D01*
X92176429Y-124814973D01*
X92176429Y-124390000D01*
X91356759Y-124390000D01*
X91376504Y-124370255D01*
X91425873Y-124284745D01*
X91451429Y-124189370D01*
X91451429Y-124090630D01*
X91425873Y-123995255D01*
X91376504Y-123909745D01*
X91356759Y-123890000D01*
X92176428Y-123890000D01*
X92176428Y-123465028D01*
X92176427Y-123465013D01*
X92165934Y-123362302D01*
X92110787Y-123195880D01*
X92110785Y-123195875D01*
X92018744Y-123046654D01*
X91894774Y-122922684D01*
X91745553Y-122830643D01*
X91745548Y-122830641D01*
X91579126Y-122775494D01*
X91579119Y-122775493D01*
X91476415Y-122765000D01*
X91326429Y-122765000D01*
X91326429Y-123859670D01*
X91306684Y-123839925D01*
X91221174Y-123790556D01*
X91125799Y-123765000D01*
X91027059Y-123765000D01*
X90931684Y-123790556D01*
X90846174Y-123839925D01*
X90826429Y-123859670D01*
X90826429Y-122765000D01*
X90676456Y-122765000D01*
X90676441Y-122765001D01*
X90573731Y-122775494D01*
X90407309Y-122830641D01*
X90407304Y-122830643D01*
X90258083Y-122922684D01*
X90134113Y-123046654D01*
X90094482Y-123110907D01*
X90042534Y-123157631D01*
X89973571Y-123168853D01*
X89909489Y-123141010D01*
X89901262Y-123133491D01*
X89793359Y-123025588D01*
X89793357Y-123025586D01*
X89653217Y-122923768D01*
X89498874Y-122845127D01*
X89334130Y-122791598D01*
X89334128Y-122791597D01*
X89334127Y-122791597D01*
X89202700Y-122770781D01*
X89163040Y-122764500D01*
X88989818Y-122764500D01*
X88950157Y-122770781D01*
X88818731Y-122791597D01*
X88653981Y-122845128D01*
X88499640Y-122923768D01*
X88448887Y-122960643D01*
X88359501Y-123025586D01*
X88359499Y-123025588D01*
X88359498Y-123025588D01*
X88237017Y-123148069D01*
X88237010Y-123148078D01*
X88176746Y-123231023D01*
X88121416Y-123273689D01*
X88051803Y-123279667D01*
X87990008Y-123247061D01*
X87976112Y-123231023D01*
X87915847Y-123148078D01*
X87915843Y-123148072D01*
X87793357Y-123025586D01*
X87653217Y-122923768D01*
X87498874Y-122845127D01*
X87334130Y-122791598D01*
X87334128Y-122791597D01*
X87334127Y-122791597D01*
X87202700Y-122770781D01*
X87163040Y-122764500D01*
X86989818Y-122764500D01*
X86950157Y-122770781D01*
X86818731Y-122791597D01*
X86653981Y-122845128D01*
X86499640Y-122923768D01*
X86448887Y-122960643D01*
X86359501Y-123025586D01*
X86359499Y-123025588D01*
X86359498Y-123025588D01*
X86237017Y-123148069D01*
X86237010Y-123148078D01*
X86176746Y-123231023D01*
X86121416Y-123273689D01*
X86051803Y-123279667D01*
X85990008Y-123247061D01*
X85976112Y-123231023D01*
X85915847Y-123148078D01*
X85915843Y-123148072D01*
X85863248Y-123095477D01*
X85829763Y-123034154D01*
X85826929Y-123007796D01*
X85826929Y-122365801D01*
X85846614Y-122298762D01*
X85863248Y-122278120D01*
X87332764Y-120808604D01*
X88928952Y-119212416D01*
X88978186Y-119138729D01*
X89011084Y-119089495D01*
X89067658Y-118952913D01*
X89096500Y-118807918D01*
X89096500Y-116798420D01*
X89116185Y-116731381D01*
X89147614Y-116698102D01*
X89225792Y-116641304D01*
X89376104Y-116490992D01*
X89376106Y-116490988D01*
X89376109Y-116490986D01*
X89499902Y-116320597D01*
X89501051Y-116319016D01*
X89505514Y-116310254D01*
X89553488Y-116259459D01*
X89621308Y-116242663D01*
X89687444Y-116265199D01*
X89726486Y-116310256D01*
X89730951Y-116319020D01*
X89855890Y-116490986D01*
X90006213Y-116641309D01*
X90130189Y-116731381D01*
X90178184Y-116766251D01*
X90193881Y-116774249D01*
X90244677Y-116822224D01*
X90257569Y-116861978D01*
X90259311Y-116861632D01*
X90284535Y-116988444D01*
X90284540Y-116988461D01*
X90331685Y-117102280D01*
X90331687Y-117102283D01*
X90331688Y-117102286D01*
X90341192Y-117116510D01*
X90365914Y-117153507D01*
X90365915Y-117153509D01*
X90400141Y-117204733D01*
X90491586Y-117296178D01*
X90491608Y-117296198D01*
X90941016Y-117745606D01*
X90941045Y-117745637D01*
X91031263Y-117835855D01*
X91031267Y-117835858D01*
X91133707Y-117904307D01*
X91133713Y-117904310D01*
X91133714Y-117904311D01*
X91247548Y-117951463D01*
X91307971Y-117963481D01*
X91368393Y-117975500D01*
X91368394Y-117975500D01*
X109367650Y-117975500D01*
X109434689Y-117995185D01*
X109436541Y-117996398D01*
X109530821Y-118059394D01*
X109530823Y-118059395D01*
X109530827Y-118059397D01*
X109676498Y-118119735D01*
X109676503Y-118119737D01*
X109831153Y-118150499D01*
X109831156Y-118150500D01*
X109831158Y-118150500D01*
X109988844Y-118150500D01*
X109988845Y-118150499D01*
X110143497Y-118119737D01*
X110289179Y-118059394D01*
X110420289Y-117971789D01*
X110531789Y-117860289D01*
X110619394Y-117729179D01*
X110679737Y-117583497D01*
X110710500Y-117428842D01*
X110710500Y-117271158D01*
X110710500Y-117271155D01*
X110710499Y-117271153D01*
X110687098Y-117153509D01*
X110679737Y-117116503D01*
X110679735Y-117116498D01*
X110619397Y-116970827D01*
X110619390Y-116970814D01*
X110531789Y-116839711D01*
X110531786Y-116839707D01*
X110420292Y-116728213D01*
X110420288Y-116728210D01*
X110289185Y-116640609D01*
X110289172Y-116640602D01*
X110143501Y-116580264D01*
X110143489Y-116580261D01*
X109988845Y-116549500D01*
X109988842Y-116549500D01*
X109831158Y-116549500D01*
X109831155Y-116549500D01*
X109676510Y-116580261D01*
X109676498Y-116580264D01*
X109530827Y-116640602D01*
X109530815Y-116640609D01*
X109436541Y-116703602D01*
X109369864Y-116724480D01*
X109367650Y-116724500D01*
X94521958Y-116724500D01*
X94454919Y-116704815D01*
X94409164Y-116652011D01*
X94399220Y-116582853D01*
X94428245Y-116519297D01*
X94434277Y-116512819D01*
X94440866Y-116506230D01*
X94456104Y-116490992D01*
X94456106Y-116490988D01*
X94456109Y-116490986D01*
X94581049Y-116319019D01*
X94588497Y-116304403D01*
X94636473Y-116253608D01*
X94698981Y-116236700D01*
X110458850Y-116236700D01*
X110525889Y-116256385D01*
X110527741Y-116257598D01*
X110597789Y-116304403D01*
X110622021Y-116320594D01*
X110622023Y-116320595D01*
X110622027Y-116320597D01*
X110725234Y-116363346D01*
X110767703Y-116380937D01*
X110922353Y-116411699D01*
X110922356Y-116411700D01*
X110922358Y-116411700D01*
X111080044Y-116411700D01*
X111080045Y-116411699D01*
X111234697Y-116380937D01*
X111375379Y-116322665D01*
X111380372Y-116320597D01*
X111380372Y-116320596D01*
X111380379Y-116320594D01*
X111511489Y-116232989D01*
X111622989Y-116121489D01*
X111710594Y-115990379D01*
X111770937Y-115844697D01*
X111801700Y-115690042D01*
X111801700Y-115532358D01*
X111801700Y-115532355D01*
X111801699Y-115532353D01*
X111781503Y-115430821D01*
X111770937Y-115377703D01*
X111743294Y-115310966D01*
X111710597Y-115232027D01*
X111710590Y-115232014D01*
X111622989Y-115100911D01*
X111622986Y-115100907D01*
X111511492Y-114989413D01*
X111511488Y-114989410D01*
X111380385Y-114901809D01*
X111380372Y-114901802D01*
X111234701Y-114841464D01*
X111234689Y-114841461D01*
X111080045Y-114810700D01*
X111080042Y-114810700D01*
X110922358Y-114810700D01*
X110922355Y-114810700D01*
X110767710Y-114841461D01*
X110767698Y-114841464D01*
X110622027Y-114901802D01*
X110622015Y-114901809D01*
X110527741Y-114964802D01*
X110461064Y-114985680D01*
X110458850Y-114985700D01*
X94698981Y-114985700D01*
X94631942Y-114966015D01*
X94588497Y-114917997D01*
X94581049Y-114903380D01*
X94456109Y-114731413D01*
X94305786Y-114581090D01*
X94133820Y-114456151D01*
X93944414Y-114359644D01*
X93944413Y-114359643D01*
X93944412Y-114359643D01*
X93742243Y-114293954D01*
X93742241Y-114293953D01*
X93742240Y-114293953D01*
X93580957Y-114268408D01*
X93532287Y-114260700D01*
X93319713Y-114260700D01*
X93271042Y-114268408D01*
X93109760Y-114293953D01*
X92907585Y-114359644D01*
X92718179Y-114456151D01*
X92546213Y-114581090D01*
X92395890Y-114731413D01*
X92270949Y-114903382D01*
X92266484Y-114912146D01*
X92218509Y-114962942D01*
X92150688Y-114979736D01*
X92084553Y-114957198D01*
X92045516Y-114912146D01*
X92041050Y-114903382D01*
X91916109Y-114731413D01*
X91765786Y-114581090D01*
X91593820Y-114456151D01*
X91404414Y-114359644D01*
X91404413Y-114359643D01*
X91404412Y-114359643D01*
X91202243Y-114293954D01*
X91202241Y-114293953D01*
X91202240Y-114293953D01*
X91040957Y-114268408D01*
X90992287Y-114260700D01*
X90779713Y-114260700D01*
X90731042Y-114268408D01*
X90569760Y-114293953D01*
X90367585Y-114359644D01*
X90178179Y-114456151D01*
X90006213Y-114581090D01*
X89855890Y-114731413D01*
X89730949Y-114903382D01*
X89726484Y-114912146D01*
X89678509Y-114962942D01*
X89610688Y-114979736D01*
X89544553Y-114957198D01*
X89505516Y-114912146D01*
X89501050Y-114903382D01*
X89376109Y-114731413D01*
X89225786Y-114581090D01*
X89053820Y-114456151D01*
X88864414Y-114359644D01*
X88864413Y-114359643D01*
X88864412Y-114359643D01*
X88662243Y-114293954D01*
X88662241Y-114293953D01*
X88662240Y-114293953D01*
X88500957Y-114268408D01*
X88452287Y-114260700D01*
X88239713Y-114260700D01*
X88191042Y-114268408D01*
X88029760Y-114293953D01*
X87827585Y-114359644D01*
X87638179Y-114456151D01*
X87466215Y-114581089D01*
X87352285Y-114695019D01*
X87290962Y-114728503D01*
X87221270Y-114723519D01*
X87165337Y-114681647D01*
X87148422Y-114650670D01*
X87099354Y-114519113D01*
X87099350Y-114519106D01*
X87013190Y-114404012D01*
X87013187Y-114404009D01*
X86898093Y-114317849D01*
X86898086Y-114317845D01*
X86763379Y-114267603D01*
X86763372Y-114267601D01*
X86703844Y-114261200D01*
X86056000Y-114261200D01*
X86056000Y-115178188D01*
X85998993Y-115145275D01*
X85871826Y-115111200D01*
X85740174Y-115111200D01*
X85613007Y-115145275D01*
X85556000Y-115178188D01*
X85556000Y-114261200D01*
X84908155Y-114261200D01*
X84848627Y-114267601D01*
X84848620Y-114267603D01*
X84713913Y-114317845D01*
X84713906Y-114317849D01*
X84598812Y-114404009D01*
X84598809Y-114404012D01*
X84512649Y-114519106D01*
X84512645Y-114519113D01*
X84462403Y-114653820D01*
X84462401Y-114653827D01*
X84456000Y-114713355D01*
X84456000Y-115361200D01*
X85372988Y-115361200D01*
X85340075Y-115418207D01*
X85306000Y-115545374D01*
X85306000Y-115677026D01*
X85340075Y-115804193D01*
X85372988Y-115861200D01*
X84456000Y-115861200D01*
X84456000Y-116509044D01*
X84462401Y-116568572D01*
X84462403Y-116568579D01*
X84512645Y-116703286D01*
X84512649Y-116703293D01*
X84598809Y-116818387D01*
X84598812Y-116818390D01*
X84713906Y-116904550D01*
X84713913Y-116904554D01*
X84848620Y-116954796D01*
X84848627Y-116954798D01*
X84908155Y-116961199D01*
X84908172Y-116961200D01*
X85556000Y-116961200D01*
X85556000Y-116044212D01*
X85613007Y-116077125D01*
X85740174Y-116111200D01*
X85871826Y-116111200D01*
X85998993Y-116077125D01*
X86056000Y-116044212D01*
X86056000Y-116961200D01*
X86703828Y-116961200D01*
X86703844Y-116961199D01*
X86763372Y-116954798D01*
X86763379Y-116954796D01*
X86898086Y-116904554D01*
X86898093Y-116904550D01*
X87013187Y-116818390D01*
X87013190Y-116818387D01*
X87099350Y-116703293D01*
X87099354Y-116703286D01*
X87148422Y-116571729D01*
X87190293Y-116515795D01*
X87255757Y-116491378D01*
X87324030Y-116506230D01*
X87352285Y-116527381D01*
X87466208Y-116641304D01*
X87544384Y-116698102D01*
X87587051Y-116753431D01*
X87595500Y-116798420D01*
X87595500Y-118371770D01*
X87575815Y-118438809D01*
X87559181Y-118459451D01*
X86201584Y-119817048D01*
X84493479Y-121525151D01*
X84493473Y-121525159D01*
X84444241Y-121598839D01*
X84444242Y-121598840D01*
X84411350Y-121648067D01*
X84411343Y-121648079D01*
X84354771Y-121784657D01*
X84354769Y-121784663D01*
X84325929Y-121929650D01*
X84325929Y-123007796D01*
X84306244Y-123074835D01*
X84289610Y-123095477D01*
X84237017Y-123148069D01*
X84237017Y-123148070D01*
X84237015Y-123148072D01*
X84230070Y-123157631D01*
X84135197Y-123288211D01*
X84056557Y-123442552D01*
X84003026Y-123607302D01*
X83975929Y-123778389D01*
X83975929Y-124501610D01*
X83998639Y-124645000D01*
X84003027Y-124672701D01*
X84056556Y-124837445D01*
X84135197Y-124991788D01*
X84237015Y-125131928D01*
X84237017Y-125131930D01*
X84289610Y-125184523D01*
X84323095Y-125245846D01*
X84325929Y-125272204D01*
X84325929Y-128265500D01*
X84306244Y-128332539D01*
X84253440Y-128378294D01*
X84201929Y-128389500D01*
X74668658Y-128389500D01*
X74601619Y-128369815D01*
X74580977Y-128353181D01*
X73213248Y-126985451D01*
X73179763Y-126924128D01*
X73176929Y-126897770D01*
X73176929Y-125272204D01*
X73196614Y-125205165D01*
X73213248Y-125184523D01*
X73237893Y-125159878D01*
X73265843Y-125131928D01*
X73326111Y-125048975D01*
X73381441Y-125006311D01*
X73451055Y-125000332D01*
X73512850Y-125032938D01*
X73526744Y-125048973D01*
X73587015Y-125131928D01*
X73709501Y-125254414D01*
X73849641Y-125356232D01*
X74003984Y-125434873D01*
X74168728Y-125488402D01*
X74339818Y-125515500D01*
X74339819Y-125515500D01*
X74513039Y-125515500D01*
X74513040Y-125515500D01*
X74684130Y-125488402D01*
X74848874Y-125434873D01*
X75003217Y-125356232D01*
X75143357Y-125254414D01*
X75265843Y-125131928D01*
X75326111Y-125048975D01*
X75381441Y-125006311D01*
X75451055Y-125000332D01*
X75512850Y-125032938D01*
X75526744Y-125048973D01*
X75587015Y-125131928D01*
X75709501Y-125254414D01*
X75849641Y-125356232D01*
X76003984Y-125434873D01*
X76168728Y-125488402D01*
X76339818Y-125515500D01*
X76339819Y-125515500D01*
X76513039Y-125515500D01*
X76513040Y-125515500D01*
X76684130Y-125488402D01*
X76848874Y-125434873D01*
X77003217Y-125356232D01*
X77143357Y-125254414D01*
X77251265Y-125146505D01*
X77312584Y-125113023D01*
X77382276Y-125118007D01*
X77438210Y-125159878D01*
X77444482Y-125169093D01*
X77484111Y-125233343D01*
X77608083Y-125357315D01*
X77757304Y-125449356D01*
X77757309Y-125449358D01*
X77923731Y-125504505D01*
X77923738Y-125504506D01*
X78026448Y-125514999D01*
X78176428Y-125514999D01*
X78176429Y-125514998D01*
X78176429Y-124420330D01*
X78196174Y-124440075D01*
X78281684Y-124489444D01*
X78377059Y-124515000D01*
X78475799Y-124515000D01*
X78571174Y-124489444D01*
X78656684Y-124440075D01*
X78676429Y-124420330D01*
X78676429Y-125514999D01*
X78826401Y-125514999D01*
X78826415Y-125514998D01*
X78929126Y-125504505D01*
X79095548Y-125449358D01*
X79095553Y-125449356D01*
X79244774Y-125357315D01*
X79368744Y-125233345D01*
X79460785Y-125084124D01*
X79460787Y-125084119D01*
X79515934Y-124917697D01*
X79515935Y-124917690D01*
X79526428Y-124814986D01*
X79526429Y-124814973D01*
X79526429Y-124390000D01*
X78706759Y-124390000D01*
X78726504Y-124370255D01*
X78775873Y-124284745D01*
X78801429Y-124189370D01*
X78801429Y-124090630D01*
X78775873Y-123995255D01*
X78726504Y-123909745D01*
X78706759Y-123890000D01*
X79526428Y-123890000D01*
X79526428Y-123465028D01*
X79526427Y-123465013D01*
X79515934Y-123362302D01*
X79460787Y-123195880D01*
X79460785Y-123195875D01*
X79368744Y-123046654D01*
X79244774Y-122922684D01*
X79095553Y-122830643D01*
X79095548Y-122830641D01*
X78929126Y-122775494D01*
X78929119Y-122775493D01*
X78826415Y-122765000D01*
X78676429Y-122765000D01*
X78676429Y-123859670D01*
X78656684Y-123839925D01*
X78571174Y-123790556D01*
X78475799Y-123765000D01*
X78377059Y-123765000D01*
X78281684Y-123790556D01*
X78196174Y-123839925D01*
X78176429Y-123859670D01*
X78176429Y-122765000D01*
X78026456Y-122765000D01*
X78026441Y-122765001D01*
X77923731Y-122775494D01*
X77757309Y-122830641D01*
X77757304Y-122830643D01*
X77608083Y-122922684D01*
X77484113Y-123046654D01*
X77444482Y-123110907D01*
X77392534Y-123157631D01*
X77323571Y-123168853D01*
X77259489Y-123141010D01*
X77251262Y-123133491D01*
X77143359Y-123025588D01*
X77143357Y-123025586D01*
X77003217Y-122923768D01*
X76848874Y-122845127D01*
X76684130Y-122791598D01*
X76684128Y-122791597D01*
X76684127Y-122791597D01*
X76552700Y-122770781D01*
X76513040Y-122764500D01*
X76339818Y-122764500D01*
X76300157Y-122770781D01*
X76168731Y-122791597D01*
X76003981Y-122845128D01*
X75849640Y-122923768D01*
X75798887Y-122960643D01*
X75709501Y-123025586D01*
X75709499Y-123025588D01*
X75709498Y-123025588D01*
X75587017Y-123148069D01*
X75587010Y-123148078D01*
X75526746Y-123231023D01*
X75471416Y-123273689D01*
X75401803Y-123279667D01*
X75340008Y-123247061D01*
X75326112Y-123231023D01*
X75265847Y-123148078D01*
X75265843Y-123148072D01*
X75143357Y-123025586D01*
X75003217Y-122923768D01*
X74848874Y-122845127D01*
X74684130Y-122791598D01*
X74684128Y-122791597D01*
X74684127Y-122791597D01*
X74552700Y-122770781D01*
X74513040Y-122764500D01*
X74339818Y-122764500D01*
X74300157Y-122770781D01*
X74168731Y-122791597D01*
X74003981Y-122845128D01*
X73849640Y-122923768D01*
X73798887Y-122960643D01*
X73709501Y-123025586D01*
X73709499Y-123025588D01*
X73709498Y-123025588D01*
X73587017Y-123148069D01*
X73587010Y-123148078D01*
X73526746Y-123231023D01*
X73471416Y-123273689D01*
X73401803Y-123279667D01*
X73340008Y-123247061D01*
X73326112Y-123231023D01*
X73265847Y-123148078D01*
X73265843Y-123148072D01*
X73143357Y-123025586D01*
X73003217Y-122923768D01*
X72848874Y-122845127D01*
X72684130Y-122791598D01*
X72684128Y-122791597D01*
X72684127Y-122791597D01*
X72552700Y-122770781D01*
X72513040Y-122764500D01*
X72339818Y-122764500D01*
X72300157Y-122770781D01*
X72168731Y-122791597D01*
X72003981Y-122845128D01*
X71849640Y-122923768D01*
X71798887Y-122960643D01*
X71709501Y-123025586D01*
X71709499Y-123025588D01*
X71709498Y-123025588D01*
X71587017Y-123148069D01*
X71587017Y-123148070D01*
X71587015Y-123148072D01*
X71580070Y-123157631D01*
X71485199Y-123288207D01*
X71485198Y-123288209D01*
X71479775Y-123298853D01*
X71468085Y-123321795D01*
X71420114Y-123372590D01*
X71357602Y-123389500D01*
X68054500Y-123389500D01*
X67987461Y-123369815D01*
X67941706Y-123317011D01*
X67930500Y-123265500D01*
X67930500Y-115124604D01*
X67939939Y-115077151D01*
X67949737Y-115053497D01*
X67980500Y-114898842D01*
X67980500Y-114741158D01*
X67980500Y-114741155D01*
X67980499Y-114741153D01*
X67979576Y-114736510D01*
X67979572Y-114736495D01*
X67949737Y-114586503D01*
X67936145Y-114553689D01*
X67933857Y-114544056D01*
X67934345Y-114534731D01*
X67930500Y-114515396D01*
X67930500Y-105377031D01*
X67939939Y-105329578D01*
X67979737Y-105233497D01*
X68010500Y-105078842D01*
X68010500Y-104921158D01*
X68010500Y-104921155D01*
X68010499Y-104921153D01*
X67979739Y-104766511D01*
X67979736Y-104766501D01*
X67939939Y-104670421D01*
X67930500Y-104622969D01*
X67930500Y-96080690D01*
X67950185Y-96013651D01*
X68002989Y-95967896D01*
X68054500Y-95956690D01*
X69441586Y-95956690D01*
X69489034Y-95966127D01*
X69512693Y-95975927D01*
X69512698Y-95975928D01*
X69512701Y-95975929D01*
X69667343Y-96006689D01*
X69667346Y-96006690D01*
X69667348Y-96006690D01*
X69825034Y-96006690D01*
X69825035Y-96006689D01*
X69979687Y-95975927D01*
X70125369Y-95915584D01*
X70256479Y-95827979D01*
X70367979Y-95716479D01*
X70455584Y-95585369D01*
X70515927Y-95439687D01*
X70546690Y-95285032D01*
X70546690Y-95127348D01*
X70546690Y-95127345D01*
X70546689Y-95127343D01*
X70515928Y-94972700D01*
X70515927Y-94972693D01*
X70513361Y-94966498D01*
X70455587Y-94827017D01*
X70455580Y-94827004D01*
X70367979Y-94695901D01*
X70367976Y-94695897D01*
X70256482Y-94584403D01*
X70256478Y-94584400D01*
X70125375Y-94496799D01*
X70125362Y-94496792D01*
X69979691Y-94436454D01*
X69979679Y-94436451D01*
X69825035Y-94405690D01*
X69825032Y-94405690D01*
X69667348Y-94405690D01*
X69667345Y-94405690D01*
X69512701Y-94436450D01*
X69512696Y-94436452D01*
X69512694Y-94436452D01*
X69512693Y-94436453D01*
X69489034Y-94446252D01*
X69441586Y-94455690D01*
X67499548Y-94455690D01*
X67452096Y-94446251D01*
X67413498Y-94430263D01*
X67413488Y-94430260D01*
X67258845Y-94399500D01*
X67258842Y-94399500D01*
X67101158Y-94399500D01*
X67101155Y-94399500D01*
X66946510Y-94430261D01*
X66946498Y-94430264D01*
X66800827Y-94490602D01*
X66800814Y-94490609D01*
X66669711Y-94578210D01*
X66669707Y-94578213D01*
X66558213Y-94689707D01*
X66558210Y-94689711D01*
X66470609Y-94820814D01*
X66470602Y-94820827D01*
X66410264Y-94966498D01*
X66410261Y-94966510D01*
X66379500Y-95121153D01*
X63791690Y-95121153D01*
X63791690Y-90759949D01*
X113653180Y-90759949D01*
X113653180Y-90933171D01*
X113655160Y-90945671D01*
X113679846Y-91101537D01*
X113680278Y-91104261D01*
X113733807Y-91269005D01*
X113812448Y-91423348D01*
X113914266Y-91563488D01*
X114036752Y-91685974D01*
X114176892Y-91787792D01*
X114331235Y-91866433D01*
X114495979Y-91919962D01*
X114667069Y-91947060D01*
X114667070Y-91947060D01*
X115640290Y-91947060D01*
X115640291Y-91947060D01*
X115811381Y-91919962D01*
X115976125Y-91866433D01*
X116130468Y-91787792D01*
X116270608Y-91685974D01*
X116393094Y-91563488D01*
X116494912Y-91423348D01*
X116573553Y-91269005D01*
X116627082Y-91104261D01*
X116654180Y-90933171D01*
X116654180Y-90759949D01*
X116653749Y-90757229D01*
X139049500Y-90757229D01*
X139049500Y-90930450D01*
X139073970Y-91084953D01*
X139076598Y-91101541D01*
X139130127Y-91266285D01*
X139208768Y-91420628D01*
X139310586Y-91560768D01*
X139433072Y-91683254D01*
X139573212Y-91785072D01*
X139727555Y-91863713D01*
X139892299Y-91917242D01*
X140063389Y-91944340D01*
X140063390Y-91944340D01*
X141036610Y-91944340D01*
X141036611Y-91944340D01*
X141207701Y-91917242D01*
X141372445Y-91863713D01*
X141526788Y-91785072D01*
X141666928Y-91683254D01*
X141789414Y-91560768D01*
X141891232Y-91420628D01*
X141969873Y-91266285D01*
X142023402Y-91101541D01*
X142050500Y-90930451D01*
X142050500Y-90757229D01*
X142023402Y-90586139D01*
X141969873Y-90421395D01*
X141891232Y-90267052D01*
X141789414Y-90126912D01*
X141666928Y-90004426D01*
X141526788Y-89902608D01*
X141372445Y-89823967D01*
X141207701Y-89770438D01*
X141207699Y-89770437D01*
X141207698Y-89770437D01*
X141053784Y-89746060D01*
X141036611Y-89743340D01*
X140063389Y-89743340D01*
X140046216Y-89746060D01*
X139892302Y-89770437D01*
X139727552Y-89823968D01*
X139573211Y-89902608D01*
X139493256Y-89960699D01*
X139433072Y-90004426D01*
X139433070Y-90004428D01*
X139433069Y-90004428D01*
X139310588Y-90126909D01*
X139310588Y-90126910D01*
X139310586Y-90126912D01*
X139308610Y-90129632D01*
X139208768Y-90267051D01*
X139130128Y-90421392D01*
X139076597Y-90586142D01*
X139049500Y-90757229D01*
X116653749Y-90757229D01*
X116627082Y-90588859D01*
X116573553Y-90424115D01*
X116494912Y-90269772D01*
X116393094Y-90129632D01*
X116270608Y-90007146D01*
X116130468Y-89905328D01*
X115976125Y-89826687D01*
X115811381Y-89773158D01*
X115811379Y-89773157D01*
X115811378Y-89773157D01*
X115679951Y-89752341D01*
X115640291Y-89746060D01*
X114667069Y-89746060D01*
X114627408Y-89752341D01*
X114495982Y-89773157D01*
X114331232Y-89826688D01*
X114176891Y-89905328D01*
X114096936Y-89963419D01*
X114036752Y-90007146D01*
X114036750Y-90007148D01*
X114036749Y-90007148D01*
X113914268Y-90129629D01*
X113914268Y-90129630D01*
X113914266Y-90129632D01*
X113870539Y-90189816D01*
X113812448Y-90269771D01*
X113733808Y-90424112D01*
X113680277Y-90588862D01*
X113662457Y-90701375D01*
X113653180Y-90759949D01*
X63791690Y-90759949D01*
X63791690Y-89612350D01*
X63811375Y-89545311D01*
X63812588Y-89543459D01*
X63812999Y-89542843D01*
X63875584Y-89449179D01*
X63935927Y-89303497D01*
X63966690Y-89148842D01*
X63966690Y-88991158D01*
X63966690Y-88991155D01*
X63966689Y-88991153D01*
X63935928Y-88836510D01*
X63935927Y-88836503D01*
X63891401Y-88729007D01*
X63875587Y-88690827D01*
X63875580Y-88690814D01*
X63787979Y-88559711D01*
X63787976Y-88559707D01*
X63676482Y-88448213D01*
X63676478Y-88448210D01*
X63545375Y-88360609D01*
X63545362Y-88360602D01*
X63470606Y-88329638D01*
X63399691Y-88300264D01*
X63399679Y-88300261D01*
X63245035Y-88269500D01*
X63245032Y-88269500D01*
X63087348Y-88269500D01*
X63087345Y-88269500D01*
X62932700Y-88300261D01*
X62932688Y-88300264D01*
X62787017Y-88360602D01*
X62787004Y-88360609D01*
X62655901Y-88448210D01*
X62655897Y-88448213D01*
X62544403Y-88559707D01*
X62544400Y-88559711D01*
X62456799Y-88690814D01*
X62456792Y-88690827D01*
X62396454Y-88836498D01*
X62396451Y-88836510D01*
X62365690Y-88991153D01*
X54340500Y-88991153D01*
X54340500Y-88219949D01*
X113653180Y-88219949D01*
X113653180Y-88393170D01*
X113679846Y-88561537D01*
X113680278Y-88564261D01*
X113733807Y-88729005D01*
X113812448Y-88883348D01*
X113914266Y-89023488D01*
X114036752Y-89145974D01*
X114176892Y-89247792D01*
X114331235Y-89326433D01*
X114495979Y-89379962D01*
X114667069Y-89407060D01*
X114667070Y-89407060D01*
X115640290Y-89407060D01*
X115640291Y-89407060D01*
X115811381Y-89379962D01*
X115976125Y-89326433D01*
X116130468Y-89247792D01*
X116270608Y-89145974D01*
X116393094Y-89023488D01*
X116494912Y-88883348D01*
X116573553Y-88729005D01*
X116627082Y-88564261D01*
X116654180Y-88393171D01*
X116654180Y-88219949D01*
X116653749Y-88217229D01*
X139049500Y-88217229D01*
X139049500Y-88390450D01*
X139076307Y-88559707D01*
X139076598Y-88561541D01*
X139130127Y-88726285D01*
X139208768Y-88880628D01*
X139310586Y-89020768D01*
X139433072Y-89143254D01*
X139573212Y-89245072D01*
X139727555Y-89323713D01*
X139892299Y-89377242D01*
X140063389Y-89404340D01*
X140063390Y-89404340D01*
X141036610Y-89404340D01*
X141036611Y-89404340D01*
X141207701Y-89377242D01*
X141372445Y-89323713D01*
X141526788Y-89245072D01*
X141666928Y-89143254D01*
X141789414Y-89020768D01*
X141891232Y-88880628D01*
X141969873Y-88726285D01*
X142023402Y-88561541D01*
X142050500Y-88390451D01*
X142050500Y-88217229D01*
X142023402Y-88046139D01*
X141969873Y-87881395D01*
X141891232Y-87727052D01*
X141789414Y-87586912D01*
X141666928Y-87464426D01*
X141526788Y-87362608D01*
X141372445Y-87283967D01*
X141207701Y-87230438D01*
X141207699Y-87230437D01*
X141207698Y-87230437D01*
X141053784Y-87206060D01*
X141036611Y-87203340D01*
X140063389Y-87203340D01*
X140046216Y-87206060D01*
X139892302Y-87230437D01*
X139727552Y-87283968D01*
X139573211Y-87362608D01*
X139493256Y-87420699D01*
X139433072Y-87464426D01*
X139433070Y-87464428D01*
X139433069Y-87464428D01*
X139310588Y-87586909D01*
X139310588Y-87586910D01*
X139310586Y-87586912D01*
X139308610Y-87589632D01*
X139208768Y-87727051D01*
X139130128Y-87881392D01*
X139076597Y-88046142D01*
X139049500Y-88217229D01*
X116653749Y-88217229D01*
X116627082Y-88048859D01*
X116573553Y-87884115D01*
X116494912Y-87729772D01*
X116393094Y-87589632D01*
X116270608Y-87467146D01*
X116130468Y-87365328D01*
X115976125Y-87286687D01*
X115811381Y-87233158D01*
X115811379Y-87233157D01*
X115811378Y-87233157D01*
X115679951Y-87212341D01*
X115640291Y-87206060D01*
X114667069Y-87206060D01*
X114627408Y-87212341D01*
X114495982Y-87233157D01*
X114331232Y-87286688D01*
X114176891Y-87365328D01*
X114096936Y-87423419D01*
X114036752Y-87467146D01*
X114036750Y-87467148D01*
X114036749Y-87467148D01*
X113914268Y-87589629D01*
X113914268Y-87589630D01*
X113914266Y-87589632D01*
X113870539Y-87649816D01*
X113812448Y-87729771D01*
X113733808Y-87884112D01*
X113680277Y-88048862D01*
X113653180Y-88219949D01*
X54340500Y-88219949D01*
X54340500Y-85679949D01*
X113653180Y-85679949D01*
X113653180Y-85853171D01*
X113680278Y-86024261D01*
X113733807Y-86189005D01*
X113812448Y-86343348D01*
X113914266Y-86483488D01*
X114036752Y-86605974D01*
X114176892Y-86707792D01*
X114331235Y-86786433D01*
X114495979Y-86839962D01*
X114667069Y-86867060D01*
X114667070Y-86867060D01*
X115640290Y-86867060D01*
X115640291Y-86867060D01*
X115811381Y-86839962D01*
X115976125Y-86786433D01*
X116130468Y-86707792D01*
X116270608Y-86605974D01*
X116393094Y-86483488D01*
X116494912Y-86343348D01*
X116573553Y-86189005D01*
X116627082Y-86024261D01*
X116654180Y-85853171D01*
X116654180Y-85679949D01*
X139053180Y-85679949D01*
X139053180Y-85853171D01*
X139080278Y-86024261D01*
X139133807Y-86189005D01*
X139212448Y-86343348D01*
X139314266Y-86483488D01*
X139436752Y-86605974D01*
X139576892Y-86707792D01*
X139731235Y-86786433D01*
X139895979Y-86839962D01*
X140067069Y-86867060D01*
X140067070Y-86867060D01*
X141040290Y-86867060D01*
X141040291Y-86867060D01*
X141211381Y-86839962D01*
X141376125Y-86786433D01*
X141530468Y-86707792D01*
X141670608Y-86605974D01*
X141793094Y-86483488D01*
X141894912Y-86343348D01*
X141973553Y-86189005D01*
X142027082Y-86024261D01*
X142054180Y-85853171D01*
X142054180Y-85679949D01*
X142027082Y-85508859D01*
X141973553Y-85344115D01*
X141894912Y-85189772D01*
X141793094Y-85049632D01*
X141670608Y-84927146D01*
X141530468Y-84825328D01*
X141376125Y-84746687D01*
X141211381Y-84693158D01*
X141211379Y-84693157D01*
X141211378Y-84693157D01*
X141097918Y-84675187D01*
X141040291Y-84666060D01*
X140067069Y-84666060D01*
X140035178Y-84671111D01*
X139895982Y-84693157D01*
X139731232Y-84746688D01*
X139576891Y-84825328D01*
X139497931Y-84882697D01*
X139436752Y-84927146D01*
X139436750Y-84927148D01*
X139436749Y-84927148D01*
X139314268Y-85049629D01*
X139314268Y-85049630D01*
X139314266Y-85049632D01*
X139288231Y-85085466D01*
X139212448Y-85189771D01*
X139133808Y-85344112D01*
X139080277Y-85508862D01*
X139073164Y-85553774D01*
X139053180Y-85679949D01*
X116654180Y-85679949D01*
X116627082Y-85508859D01*
X116573553Y-85344115D01*
X116494912Y-85189772D01*
X116393094Y-85049632D01*
X116270608Y-84927146D01*
X116130468Y-84825328D01*
X115976125Y-84746687D01*
X115811381Y-84693158D01*
X115811379Y-84693157D01*
X115811378Y-84693157D01*
X115672182Y-84671111D01*
X115640291Y-84666060D01*
X114667069Y-84666060D01*
X114635178Y-84671111D01*
X114495982Y-84693157D01*
X114331232Y-84746688D01*
X114176891Y-84825328D01*
X114097931Y-84882697D01*
X114036752Y-84927146D01*
X114036750Y-84927148D01*
X114036749Y-84927148D01*
X113914268Y-85049629D01*
X113914268Y-85049630D01*
X113914266Y-85049632D01*
X113888231Y-85085466D01*
X113812448Y-85189771D01*
X113733808Y-85344112D01*
X113680277Y-85508862D01*
X113673164Y-85553774D01*
X113653180Y-85679949D01*
X54340500Y-85679949D01*
X54340500Y-83139949D01*
X113653180Y-83139949D01*
X113653180Y-83313170D01*
X113680277Y-83484257D01*
X113680277Y-83484259D01*
X113680278Y-83484261D01*
X113733807Y-83649005D01*
X113812448Y-83803348D01*
X113914266Y-83943488D01*
X114036752Y-84065974D01*
X114176892Y-84167792D01*
X114331235Y-84246433D01*
X114495979Y-84299962D01*
X114667069Y-84327060D01*
X114667070Y-84327060D01*
X115640290Y-84327060D01*
X115640291Y-84327060D01*
X115811381Y-84299962D01*
X115976125Y-84246433D01*
X116130468Y-84167792D01*
X116270608Y-84065974D01*
X116393094Y-83943488D01*
X116494912Y-83803348D01*
X116573553Y-83649005D01*
X116627082Y-83484261D01*
X116654180Y-83313171D01*
X116654180Y-83139949D01*
X139053180Y-83139949D01*
X139053180Y-83313170D01*
X139080277Y-83484257D01*
X139080277Y-83484259D01*
X139080278Y-83484261D01*
X139133807Y-83649005D01*
X139212448Y-83803348D01*
X139314266Y-83943488D01*
X139436752Y-84065974D01*
X139576892Y-84167792D01*
X139731235Y-84246433D01*
X139895979Y-84299962D01*
X140067069Y-84327060D01*
X140067070Y-84327060D01*
X141040290Y-84327060D01*
X141040291Y-84327060D01*
X141211381Y-84299962D01*
X141376125Y-84246433D01*
X141530468Y-84167792D01*
X141670608Y-84065974D01*
X141793094Y-83943488D01*
X141894912Y-83803348D01*
X141973553Y-83649005D01*
X142027082Y-83484261D01*
X142054180Y-83313171D01*
X142054180Y-83139949D01*
X142027082Y-82968859D01*
X141973553Y-82804115D01*
X141894912Y-82649772D01*
X141793094Y-82509632D01*
X141670608Y-82387146D01*
X141530468Y-82285328D01*
X141376125Y-82206687D01*
X141211381Y-82153158D01*
X141211379Y-82153157D01*
X141211378Y-82153157D01*
X141079951Y-82132341D01*
X141040291Y-82126060D01*
X140067069Y-82126060D01*
X140027408Y-82132341D01*
X139895982Y-82153157D01*
X139731232Y-82206688D01*
X139576891Y-82285328D01*
X139496936Y-82343419D01*
X139436752Y-82387146D01*
X139436750Y-82387148D01*
X139436749Y-82387148D01*
X139314268Y-82509629D01*
X139314268Y-82509630D01*
X139314266Y-82509632D01*
X139270539Y-82569816D01*
X139212448Y-82649771D01*
X139133808Y-82804112D01*
X139080277Y-82968862D01*
X139053180Y-83139949D01*
X116654180Y-83139949D01*
X116627082Y-82968859D01*
X116573553Y-82804115D01*
X116494912Y-82649772D01*
X116393094Y-82509632D01*
X116270608Y-82387146D01*
X116130468Y-82285328D01*
X115976125Y-82206687D01*
X115811381Y-82153158D01*
X115811379Y-82153157D01*
X115811378Y-82153157D01*
X115679951Y-82132341D01*
X115640291Y-82126060D01*
X114667069Y-82126060D01*
X114627408Y-82132341D01*
X114495982Y-82153157D01*
X114331232Y-82206688D01*
X114176891Y-82285328D01*
X114096936Y-82343419D01*
X114036752Y-82387146D01*
X114036750Y-82387148D01*
X114036749Y-82387148D01*
X113914268Y-82509629D01*
X113914268Y-82509630D01*
X113914266Y-82509632D01*
X113870539Y-82569816D01*
X113812448Y-82649771D01*
X113733808Y-82804112D01*
X113680277Y-82968862D01*
X113653180Y-83139949D01*
X54340500Y-83139949D01*
X54340500Y-80599949D01*
X113653180Y-80599949D01*
X113653180Y-80773171D01*
X113680278Y-80944261D01*
X113733807Y-81109005D01*
X113812448Y-81263348D01*
X113914266Y-81403488D01*
X114036752Y-81525974D01*
X114176892Y-81627792D01*
X114331235Y-81706433D01*
X114495979Y-81759962D01*
X114667069Y-81787060D01*
X114667070Y-81787060D01*
X115640290Y-81787060D01*
X115640291Y-81787060D01*
X115811381Y-81759962D01*
X115976125Y-81706433D01*
X116130468Y-81627792D01*
X116270608Y-81525974D01*
X116393094Y-81403488D01*
X116494912Y-81263348D01*
X116573553Y-81109005D01*
X116627082Y-80944261D01*
X116654180Y-80773171D01*
X116654180Y-80599949D01*
X139053180Y-80599949D01*
X139053180Y-80773171D01*
X139080278Y-80944261D01*
X139133807Y-81109005D01*
X139212448Y-81263348D01*
X139314266Y-81403488D01*
X139436752Y-81525974D01*
X139576892Y-81627792D01*
X139731235Y-81706433D01*
X139895979Y-81759962D01*
X140067069Y-81787060D01*
X140067070Y-81787060D01*
X141040290Y-81787060D01*
X141040291Y-81787060D01*
X141211381Y-81759962D01*
X141376125Y-81706433D01*
X141530468Y-81627792D01*
X141670608Y-81525974D01*
X141793094Y-81403488D01*
X141894912Y-81263348D01*
X141973553Y-81109005D01*
X142027082Y-80944261D01*
X142054180Y-80773171D01*
X142054180Y-80599949D01*
X142027082Y-80428859D01*
X141973553Y-80264115D01*
X141894912Y-80109772D01*
X141793094Y-79969632D01*
X141670608Y-79847146D01*
X141530468Y-79745328D01*
X141376125Y-79666687D01*
X141211381Y-79613158D01*
X141211379Y-79613157D01*
X141211378Y-79613157D01*
X141079951Y-79592341D01*
X141040291Y-79586060D01*
X140067069Y-79586060D01*
X140027408Y-79592341D01*
X139895982Y-79613157D01*
X139731232Y-79666688D01*
X139576891Y-79745328D01*
X139530300Y-79779179D01*
X139436752Y-79847146D01*
X139436750Y-79847148D01*
X139436749Y-79847148D01*
X139314268Y-79969629D01*
X139314268Y-79969630D01*
X139314266Y-79969632D01*
X139276374Y-80021786D01*
X139212448Y-80109771D01*
X139133808Y-80264112D01*
X139080277Y-80428862D01*
X139053180Y-80599949D01*
X116654180Y-80599949D01*
X116627082Y-80428859D01*
X116573553Y-80264115D01*
X116573549Y-80264108D01*
X116572211Y-80260876D01*
X116572067Y-80259545D01*
X116572047Y-80259481D01*
X116572060Y-80259476D01*
X116564741Y-80191407D01*
X116596015Y-80128927D01*
X116599053Y-80125777D01*
X116663014Y-80061817D01*
X116724338Y-80028333D01*
X116750694Y-80025500D01*
X137307650Y-80025500D01*
X137374689Y-80045185D01*
X137376541Y-80046398D01*
X137470821Y-80109394D01*
X137470823Y-80109395D01*
X137470827Y-80109397D01*
X137616498Y-80169735D01*
X137616503Y-80169737D01*
X137725445Y-80191407D01*
X137771153Y-80200499D01*
X137771156Y-80200500D01*
X137771158Y-80200500D01*
X137928844Y-80200500D01*
X137928845Y-80200499D01*
X138083497Y-80169737D01*
X138196166Y-80123067D01*
X138229172Y-80109397D01*
X138229172Y-80109396D01*
X138229179Y-80109394D01*
X138360289Y-80021789D01*
X138471789Y-79910289D01*
X138559394Y-79779179D01*
X138619737Y-79633497D01*
X138650500Y-79478842D01*
X138650500Y-79321158D01*
X138650500Y-79321155D01*
X138650499Y-79321153D01*
X138635661Y-79246560D01*
X138619737Y-79166503D01*
X138586957Y-79087364D01*
X138559397Y-79020827D01*
X138559390Y-79020814D01*
X138471789Y-78889711D01*
X138471786Y-78889707D01*
X138360292Y-78778213D01*
X138360288Y-78778210D01*
X138229185Y-78690609D01*
X138229172Y-78690602D01*
X138083501Y-78630264D01*
X138083489Y-78630261D01*
X137928845Y-78599500D01*
X137928842Y-78599500D01*
X137771158Y-78599500D01*
X137771155Y-78599500D01*
X137616510Y-78630261D01*
X137616498Y-78630264D01*
X137470827Y-78690602D01*
X137470815Y-78690609D01*
X137376541Y-78753602D01*
X137309864Y-78774480D01*
X137307650Y-78774500D01*
X116670637Y-78774500D01*
X116603598Y-78754815D01*
X116557843Y-78702011D01*
X116547899Y-78632853D01*
X116560153Y-78594204D01*
X116573088Y-78568817D01*
X116626594Y-78404144D01*
X116627795Y-78396560D01*
X115469366Y-78396560D01*
X115473760Y-78392166D01*
X115526421Y-78300954D01*
X115553680Y-78199221D01*
X115553680Y-78093899D01*
X115544583Y-78059949D01*
X139053180Y-78059949D01*
X139053180Y-78233171D01*
X139080278Y-78404261D01*
X139133807Y-78569005D01*
X139212448Y-78723348D01*
X139314266Y-78863488D01*
X139436752Y-78985974D01*
X139576892Y-79087792D01*
X139731235Y-79166433D01*
X139895979Y-79219962D01*
X140067069Y-79247060D01*
X140067070Y-79247060D01*
X141040290Y-79247060D01*
X141040291Y-79247060D01*
X141211381Y-79219962D01*
X141376125Y-79166433D01*
X141530468Y-79087792D01*
X141670608Y-78985974D01*
X141793094Y-78863488D01*
X141894912Y-78723348D01*
X141973553Y-78569005D01*
X142027082Y-78404261D01*
X142054180Y-78233171D01*
X142054180Y-78059949D01*
X142027082Y-77888859D01*
X141973553Y-77724115D01*
X141894912Y-77569772D01*
X141793094Y-77429632D01*
X141670608Y-77307146D01*
X141530468Y-77205328D01*
X141376125Y-77126687D01*
X141211381Y-77073158D01*
X141211379Y-77073157D01*
X141211378Y-77073157D01*
X141079951Y-77052341D01*
X141040291Y-77046060D01*
X140067069Y-77046060D01*
X140027408Y-77052341D01*
X139895982Y-77073157D01*
X139731232Y-77126688D01*
X139576891Y-77205328D01*
X139496936Y-77263419D01*
X139436752Y-77307146D01*
X139436750Y-77307148D01*
X139436749Y-77307148D01*
X139314268Y-77429629D01*
X139314268Y-77429630D01*
X139314266Y-77429632D01*
X139314030Y-77429957D01*
X139212448Y-77569771D01*
X139133808Y-77724112D01*
X139080277Y-77888862D01*
X139064634Y-77987630D01*
X139053180Y-78059949D01*
X115544583Y-78059949D01*
X115526421Y-77992166D01*
X115473760Y-77900954D01*
X115469366Y-77896560D01*
X116627795Y-77896560D01*
X116627795Y-77896559D01*
X116626594Y-77888975D01*
X116573088Y-77724304D01*
X116494484Y-77570035D01*
X116392712Y-77429957D01*
X116270282Y-77307527D01*
X116130204Y-77205755D01*
X115975937Y-77127151D01*
X115811264Y-77073645D01*
X115640251Y-77046560D01*
X115403680Y-77046560D01*
X115403680Y-77830874D01*
X115399286Y-77826480D01*
X115308074Y-77773819D01*
X115206341Y-77746560D01*
X115101019Y-77746560D01*
X114999286Y-77773819D01*
X114908074Y-77826480D01*
X114903680Y-77830874D01*
X114903680Y-77046560D01*
X114667109Y-77046560D01*
X114496095Y-77073645D01*
X114331422Y-77127151D01*
X114177155Y-77205755D01*
X114037077Y-77307527D01*
X113914647Y-77429957D01*
X113812875Y-77570035D01*
X113734271Y-77724304D01*
X113680765Y-77888975D01*
X113679564Y-77896559D01*
X113679565Y-77896560D01*
X114837994Y-77896560D01*
X114833600Y-77900954D01*
X114780939Y-77992166D01*
X114753680Y-78093899D01*
X114753680Y-78199221D01*
X114780939Y-78300954D01*
X114833600Y-78392166D01*
X114837994Y-78396560D01*
X113679565Y-78396560D01*
X113680765Y-78404144D01*
X113734271Y-78568815D01*
X113812875Y-78723084D01*
X113914647Y-78863162D01*
X114037077Y-78985592D01*
X114177155Y-79087364D01*
X114331422Y-79165968D01*
X114496095Y-79219474D01*
X114667109Y-79246560D01*
X114903680Y-79246560D01*
X114903680Y-78462246D01*
X114908074Y-78466640D01*
X114999286Y-78519301D01*
X115101019Y-78546560D01*
X115206341Y-78546560D01*
X115308074Y-78519301D01*
X115399286Y-78466640D01*
X115403680Y-78462246D01*
X115403680Y-79246560D01*
X115409727Y-79246560D01*
X115476766Y-79266245D01*
X115522521Y-79319049D01*
X115532465Y-79388207D01*
X115503440Y-79451763D01*
X115497408Y-79458241D01*
X115405908Y-79549741D01*
X115344585Y-79583226D01*
X115318227Y-79586060D01*
X114667069Y-79586060D01*
X114627408Y-79592341D01*
X114495982Y-79613157D01*
X114331232Y-79666688D01*
X114176891Y-79745328D01*
X114130300Y-79779179D01*
X114036752Y-79847146D01*
X114036750Y-79847148D01*
X114036749Y-79847148D01*
X113914268Y-79969629D01*
X113914268Y-79969630D01*
X113914266Y-79969632D01*
X113876374Y-80021786D01*
X113812448Y-80109771D01*
X113733808Y-80264112D01*
X113680277Y-80428862D01*
X113653180Y-80599949D01*
X54340500Y-80599949D01*
X54340500Y-75519949D01*
X113653180Y-75519949D01*
X113653180Y-75693171D01*
X113659043Y-75730186D01*
X113680277Y-75864257D01*
X113680277Y-75864259D01*
X113680278Y-75864261D01*
X113733807Y-76029005D01*
X113812448Y-76183348D01*
X113914266Y-76323488D01*
X114036752Y-76445974D01*
X114176892Y-76547792D01*
X114331235Y-76626433D01*
X114495979Y-76679962D01*
X114667069Y-76707060D01*
X114667070Y-76707060D01*
X115640290Y-76707060D01*
X115640291Y-76707060D01*
X115811381Y-76679962D01*
X115976125Y-76626433D01*
X116130468Y-76547792D01*
X116270608Y-76445974D01*
X116393094Y-76323488D01*
X116494912Y-76183348D01*
X116573553Y-76029005D01*
X116627082Y-75864261D01*
X116654180Y-75693171D01*
X116654180Y-75519949D01*
X139053180Y-75519949D01*
X139053180Y-75693171D01*
X139059043Y-75730186D01*
X139080277Y-75864257D01*
X139080277Y-75864259D01*
X139080278Y-75864261D01*
X139133807Y-76029005D01*
X139212448Y-76183348D01*
X139314266Y-76323488D01*
X139436752Y-76445974D01*
X139576892Y-76547792D01*
X139731235Y-76626433D01*
X139895979Y-76679962D01*
X140067069Y-76707060D01*
X140067070Y-76707060D01*
X141040290Y-76707060D01*
X141040291Y-76707060D01*
X141211381Y-76679962D01*
X141376125Y-76626433D01*
X141530468Y-76547792D01*
X141670608Y-76445974D01*
X141793094Y-76323488D01*
X141894912Y-76183348D01*
X141973553Y-76029005D01*
X142027082Y-75864261D01*
X142054180Y-75693171D01*
X142054180Y-75519949D01*
X142027082Y-75348859D01*
X141973553Y-75184115D01*
X141894912Y-75029772D01*
X141793094Y-74889632D01*
X141670608Y-74767146D01*
X141530468Y-74665328D01*
X141376125Y-74586687D01*
X141211381Y-74533158D01*
X141211379Y-74533157D01*
X141211378Y-74533157D01*
X141079951Y-74512341D01*
X141040291Y-74506060D01*
X140067069Y-74506060D01*
X140027408Y-74512341D01*
X139895982Y-74533157D01*
X139731232Y-74586688D01*
X139576891Y-74665328D01*
X139496936Y-74723419D01*
X139436752Y-74767146D01*
X139436750Y-74767148D01*
X139436749Y-74767148D01*
X139314268Y-74889629D01*
X139314268Y-74889630D01*
X139314266Y-74889632D01*
X139270539Y-74949816D01*
X139212448Y-75029771D01*
X139133808Y-75184112D01*
X139080277Y-75348862D01*
X139057619Y-75491921D01*
X139053180Y-75519949D01*
X116654180Y-75519949D01*
X116627082Y-75348859D01*
X116573553Y-75184115D01*
X116494912Y-75029772D01*
X116393094Y-74889632D01*
X116270608Y-74767146D01*
X116130468Y-74665328D01*
X115976125Y-74586687D01*
X115811381Y-74533158D01*
X115811379Y-74533157D01*
X115811378Y-74533157D01*
X115679951Y-74512341D01*
X115640291Y-74506060D01*
X114667069Y-74506060D01*
X114627408Y-74512341D01*
X114495982Y-74533157D01*
X114331232Y-74586688D01*
X114176891Y-74665328D01*
X114096936Y-74723419D01*
X114036752Y-74767146D01*
X114036750Y-74767148D01*
X114036749Y-74767148D01*
X113914268Y-74889629D01*
X113914268Y-74889630D01*
X113914266Y-74889632D01*
X113870539Y-74949816D01*
X113812448Y-75029771D01*
X113733808Y-75184112D01*
X113680277Y-75348862D01*
X113657619Y-75491921D01*
X113653180Y-75519949D01*
X54340500Y-75519949D01*
X54340500Y-48821153D01*
X62365690Y-48821153D01*
X62365690Y-48978846D01*
X62396451Y-49133489D01*
X62396454Y-49133501D01*
X62456792Y-49279172D01*
X62456799Y-49279184D01*
X62519792Y-49373459D01*
X62540670Y-49440136D01*
X62540690Y-49442350D01*
X62540690Y-52298317D01*
X62521005Y-52365356D01*
X62519792Y-52367208D01*
X62470609Y-52440814D01*
X62470602Y-52440827D01*
X62410264Y-52586498D01*
X62410261Y-52586510D01*
X62379500Y-52741153D01*
X62379500Y-52898846D01*
X62410261Y-53053489D01*
X62410264Y-53053501D01*
X62470602Y-53199172D01*
X62470609Y-53199184D01*
X62519792Y-53272791D01*
X62540670Y-53339468D01*
X62540690Y-53341682D01*
X62540690Y-62077650D01*
X62521005Y-62144689D01*
X62519816Y-62146503D01*
X62509927Y-62161305D01*
X62456799Y-62240815D01*
X62456792Y-62240828D01*
X62396454Y-62386498D01*
X62396451Y-62386510D01*
X62365690Y-62541153D01*
X62365690Y-62698846D01*
X62396451Y-62853489D01*
X62396454Y-62853501D01*
X62456792Y-62999172D01*
X62456799Y-62999184D01*
X62519792Y-63093459D01*
X62540670Y-63160136D01*
X62540690Y-63162350D01*
X62540690Y-71887650D01*
X62521005Y-71954689D01*
X62519792Y-71956541D01*
X62456799Y-72050815D01*
X62456792Y-72050828D01*
X62396454Y-72196498D01*
X62396451Y-72196510D01*
X62365690Y-72351153D01*
X62365690Y-72508846D01*
X62396451Y-72663489D01*
X62396454Y-72663501D01*
X62456792Y-72809172D01*
X62456799Y-72809185D01*
X62544400Y-72940288D01*
X62544403Y-72940292D01*
X62655897Y-73051786D01*
X62655901Y-73051789D01*
X62787004Y-73139390D01*
X62787017Y-73139397D01*
X62932688Y-73199735D01*
X62932693Y-73199737D01*
X63087343Y-73230499D01*
X63087346Y-73230500D01*
X63087348Y-73230500D01*
X63245034Y-73230500D01*
X63245035Y-73230499D01*
X63399687Y-73199737D01*
X63545369Y-73139394D01*
X63676479Y-73051789D01*
X63748319Y-72979949D01*
X113653180Y-72979949D01*
X113653180Y-73153171D01*
X113661357Y-73204799D01*
X113665427Y-73230499D01*
X113680278Y-73324261D01*
X113733807Y-73489005D01*
X113812448Y-73643348D01*
X113914266Y-73783488D01*
X114036752Y-73905974D01*
X114176892Y-74007792D01*
X114331235Y-74086433D01*
X114495979Y-74139962D01*
X114667069Y-74167060D01*
X114667070Y-74167060D01*
X115640290Y-74167060D01*
X115640291Y-74167060D01*
X115811381Y-74139962D01*
X115976125Y-74086433D01*
X116130468Y-74007792D01*
X116270608Y-73905974D01*
X116393094Y-73783488D01*
X116422385Y-73743173D01*
X116477715Y-73700508D01*
X116522702Y-73692060D01*
X130155047Y-73692060D01*
X130215469Y-73680041D01*
X130275892Y-73668023D01*
X130275895Y-73668021D01*
X130275898Y-73668021D01*
X130309227Y-73654214D01*
X130309226Y-73654214D01*
X130309232Y-73654212D01*
X130389726Y-73620872D01*
X130440949Y-73586644D01*
X130492173Y-73552418D01*
X130579298Y-73465293D01*
X130579299Y-73465291D01*
X130586365Y-73458225D01*
X130586367Y-73458221D01*
X131572771Y-72471819D01*
X131634094Y-72438334D01*
X131660452Y-72435500D01*
X139037752Y-72435500D01*
X139104791Y-72455185D01*
X139150546Y-72507989D01*
X139160490Y-72577147D01*
X139148236Y-72615796D01*
X139133808Y-72644110D01*
X139080277Y-72808862D01*
X139059461Y-72940291D01*
X139053180Y-72979949D01*
X139053180Y-73153171D01*
X139061357Y-73204799D01*
X139065427Y-73230499D01*
X139080278Y-73324261D01*
X139133807Y-73489005D01*
X139212448Y-73643348D01*
X139314266Y-73783488D01*
X139436752Y-73905974D01*
X139576892Y-74007792D01*
X139731235Y-74086433D01*
X139895979Y-74139962D01*
X140067069Y-74167060D01*
X140067070Y-74167060D01*
X141040290Y-74167060D01*
X141040291Y-74167060D01*
X141211381Y-74139962D01*
X141376125Y-74086433D01*
X141530468Y-74007792D01*
X141670608Y-73905974D01*
X141793094Y-73783488D01*
X141894912Y-73643348D01*
X141973553Y-73489005D01*
X142027082Y-73324261D01*
X142054180Y-73153171D01*
X142054180Y-72979949D01*
X142027082Y-72808859D01*
X141973553Y-72644115D01*
X141973551Y-72644112D01*
X141973551Y-72644110D01*
X141959124Y-72615796D01*
X141946227Y-72547127D01*
X141972503Y-72482386D01*
X142029609Y-72442129D01*
X142069608Y-72435500D01*
X147947650Y-72435500D01*
X148014689Y-72455185D01*
X148016541Y-72456398D01*
X148110821Y-72519394D01*
X148110823Y-72519395D01*
X148110827Y-72519397D01*
X148250250Y-72577147D01*
X148256503Y-72579737D01*
X148411153Y-72610499D01*
X148411156Y-72610500D01*
X148411158Y-72610500D01*
X148568844Y-72610500D01*
X148568845Y-72610499D01*
X148723497Y-72579737D01*
X148869179Y-72519394D01*
X149000289Y-72431789D01*
X149111789Y-72320289D01*
X149199394Y-72189179D01*
X149259737Y-72043497D01*
X149290500Y-71888842D01*
X149290500Y-71731158D01*
X149290500Y-71731155D01*
X149290499Y-71731153D01*
X149259738Y-71576510D01*
X149259737Y-71576503D01*
X149214708Y-71467792D01*
X149199397Y-71430827D01*
X149199390Y-71430814D01*
X149111789Y-71299711D01*
X149111786Y-71299707D01*
X149000292Y-71188213D01*
X149000288Y-71188210D01*
X148869185Y-71100609D01*
X148869172Y-71100602D01*
X148723501Y-71040264D01*
X148723489Y-71040261D01*
X148568845Y-71009500D01*
X148568842Y-71009500D01*
X148411158Y-71009500D01*
X148411155Y-71009500D01*
X148256510Y-71040261D01*
X148256498Y-71040264D01*
X148110827Y-71100602D01*
X148110815Y-71100609D01*
X148016541Y-71163602D01*
X147949864Y-71184480D01*
X147947650Y-71184500D01*
X142055912Y-71184500D01*
X141988873Y-71164815D01*
X141943118Y-71112011D01*
X141933174Y-71042853D01*
X141945427Y-71004205D01*
X141973553Y-70949005D01*
X142027082Y-70784261D01*
X142054180Y-70613171D01*
X142054180Y-70439949D01*
X142027082Y-70268859D01*
X141973553Y-70104115D01*
X141894912Y-69949772D01*
X141793094Y-69809632D01*
X141670608Y-69687146D01*
X141530468Y-69585328D01*
X141376125Y-69506687D01*
X141211381Y-69453158D01*
X141211379Y-69453157D01*
X141211378Y-69453157D01*
X141058544Y-69428951D01*
X141040291Y-69426060D01*
X140067069Y-69426060D01*
X140048816Y-69428951D01*
X139895982Y-69453157D01*
X139731232Y-69506688D01*
X139576891Y-69585328D01*
X139512341Y-69632227D01*
X139436752Y-69687146D01*
X139436750Y-69687148D01*
X139436749Y-69687148D01*
X139314268Y-69809629D01*
X139314268Y-69809630D01*
X139314266Y-69809632D01*
X139313316Y-69810940D01*
X139212448Y-69949771D01*
X139133808Y-70104112D01*
X139133807Y-70104114D01*
X139133807Y-70104115D01*
X139129144Y-70118465D01*
X139080277Y-70268862D01*
X139066811Y-70353885D01*
X139053180Y-70439949D01*
X139053180Y-70613171D01*
X139061357Y-70664799D01*
X139079302Y-70778102D01*
X139080278Y-70784261D01*
X139120876Y-70909209D01*
X139133808Y-70949007D01*
X139161933Y-71004205D01*
X139174829Y-71072874D01*
X139148553Y-71137614D01*
X139091447Y-71177872D01*
X139051448Y-71184500D01*
X131288389Y-71184500D01*
X131227971Y-71196518D01*
X131184743Y-71205116D01*
X131167546Y-71208537D01*
X131053716Y-71255687D01*
X131053707Y-71255692D01*
X130951268Y-71324140D01*
X130909438Y-71365971D01*
X130864142Y-71411267D01*
X130864139Y-71411270D01*
X130350146Y-71925264D01*
X129870669Y-72404741D01*
X129809346Y-72438226D01*
X129782988Y-72441060D01*
X116522702Y-72441060D01*
X116455663Y-72421375D01*
X116422385Y-72389947D01*
X116393094Y-72349632D01*
X116270610Y-72227148D01*
X116270608Y-72227146D01*
X116130468Y-72125328D01*
X115976125Y-72046687D01*
X115811381Y-71993158D01*
X115811379Y-71993157D01*
X115811378Y-71993157D01*
X115679951Y-71972341D01*
X115640291Y-71966060D01*
X114667069Y-71966060D01*
X114627408Y-71972341D01*
X114495982Y-71993157D01*
X114331232Y-72046688D01*
X114176891Y-72125328D01*
X114096936Y-72183419D01*
X114036752Y-72227146D01*
X114036750Y-72227148D01*
X114036749Y-72227148D01*
X113914268Y-72349629D01*
X113914268Y-72349630D01*
X113914266Y-72349632D01*
X113874227Y-72404741D01*
X113812448Y-72489771D01*
X113733808Y-72644112D01*
X113680277Y-72808862D01*
X113659461Y-72940291D01*
X113653180Y-72979949D01*
X63748319Y-72979949D01*
X63787979Y-72940289D01*
X63875584Y-72809179D01*
X63935927Y-72663497D01*
X63966690Y-72508842D01*
X63966690Y-72351158D01*
X63966690Y-72351155D01*
X63966689Y-72351153D01*
X63960550Y-72320289D01*
X63935927Y-72196503D01*
X63875584Y-72050821D01*
X63812587Y-71956539D01*
X63791710Y-71889863D01*
X63791690Y-71887650D01*
X63791690Y-63162350D01*
X63811375Y-63095311D01*
X63812588Y-63093459D01*
X63812999Y-63092843D01*
X63875584Y-62999179D01*
X63935927Y-62853497D01*
X63966690Y-62698842D01*
X63966690Y-62541158D01*
X63966690Y-62541155D01*
X63966689Y-62541153D01*
X63935927Y-62386503D01*
X63935556Y-62385607D01*
X63875587Y-62240828D01*
X63875586Y-62240827D01*
X63875584Y-62240821D01*
X63812587Y-62146539D01*
X63791710Y-62079863D01*
X63791690Y-62077650D01*
X63791690Y-53383018D01*
X63811375Y-53315979D01*
X63812588Y-53314127D01*
X63819310Y-53304067D01*
X63889394Y-53199179D01*
X63949737Y-53053497D01*
X63980500Y-52898842D01*
X63980500Y-52741158D01*
X63980500Y-52741155D01*
X63980499Y-52741153D01*
X63949738Y-52586510D01*
X63949737Y-52586503D01*
X63913236Y-52498380D01*
X63889397Y-52440827D01*
X63889390Y-52440814D01*
X63812588Y-52325872D01*
X63791710Y-52259194D01*
X63791690Y-52256981D01*
X63791690Y-50741153D01*
X66379500Y-50741153D01*
X66379500Y-50898846D01*
X66410261Y-51053489D01*
X66410263Y-51053497D01*
X66420061Y-51077151D01*
X66429500Y-51124604D01*
X66429500Y-60455406D01*
X66427117Y-60479598D01*
X66418958Y-60520613D01*
X66418958Y-60678301D01*
X66427117Y-60719316D01*
X66429500Y-60743509D01*
X66429500Y-70094313D01*
X66420062Y-70141761D01*
X66410263Y-70165420D01*
X66410262Y-70165423D01*
X66410260Y-70165428D01*
X66379500Y-70320070D01*
X66379500Y-70477763D01*
X66410261Y-70632406D01*
X66410264Y-70632418D01*
X66470602Y-70778089D01*
X66470609Y-70778102D01*
X66558210Y-70909205D01*
X66558213Y-70909209D01*
X66669707Y-71020703D01*
X66669711Y-71020706D01*
X66800814Y-71108307D01*
X66800827Y-71108314D01*
X66882446Y-71142121D01*
X66946503Y-71168654D01*
X67067214Y-71192665D01*
X67101153Y-71199416D01*
X67101156Y-71199417D01*
X67101158Y-71199417D01*
X67258843Y-71199417D01*
X67294581Y-71192308D01*
X67328254Y-71185609D01*
X67352445Y-71183227D01*
X69451586Y-71183227D01*
X69499034Y-71192664D01*
X69522693Y-71202464D01*
X69522698Y-71202465D01*
X69522701Y-71202466D01*
X69677343Y-71233226D01*
X69677346Y-71233227D01*
X69677348Y-71233227D01*
X69835034Y-71233227D01*
X69835035Y-71233226D01*
X69989687Y-71202464D01*
X70135369Y-71142121D01*
X70266479Y-71054516D01*
X70377979Y-70943016D01*
X70465584Y-70811906D01*
X70525927Y-70666224D01*
X70556690Y-70511569D01*
X70556690Y-70439949D01*
X113653180Y-70439949D01*
X113653180Y-70613171D01*
X113661357Y-70664799D01*
X113679302Y-70778102D01*
X113680278Y-70784261D01*
X113733807Y-70949005D01*
X113812448Y-71103348D01*
X113914266Y-71243488D01*
X114036752Y-71365974D01*
X114176892Y-71467792D01*
X114331235Y-71546433D01*
X114495979Y-71599962D01*
X114667069Y-71627060D01*
X114667070Y-71627060D01*
X115640290Y-71627060D01*
X115640291Y-71627060D01*
X115811381Y-71599962D01*
X115976125Y-71546433D01*
X116130468Y-71467792D01*
X116270608Y-71365974D01*
X116393094Y-71243488D01*
X116494912Y-71103348D01*
X116573553Y-70949005D01*
X116627082Y-70784261D01*
X116654180Y-70613171D01*
X116654180Y-70439949D01*
X116627082Y-70268859D01*
X116573553Y-70104115D01*
X116494912Y-69949772D01*
X116393094Y-69809632D01*
X116270608Y-69687146D01*
X116130468Y-69585328D01*
X115976125Y-69506687D01*
X115811381Y-69453158D01*
X115811379Y-69453157D01*
X115811378Y-69453157D01*
X115658544Y-69428951D01*
X115640291Y-69426060D01*
X114667069Y-69426060D01*
X114648816Y-69428951D01*
X114495982Y-69453157D01*
X114331232Y-69506688D01*
X114176891Y-69585328D01*
X114112341Y-69632227D01*
X114036752Y-69687146D01*
X114036750Y-69687148D01*
X114036749Y-69687148D01*
X113914268Y-69809629D01*
X113914268Y-69809630D01*
X113914266Y-69809632D01*
X113913316Y-69810940D01*
X113812448Y-69949771D01*
X113733808Y-70104112D01*
X113733807Y-70104114D01*
X113733807Y-70104115D01*
X113729144Y-70118465D01*
X113680277Y-70268862D01*
X113666811Y-70353885D01*
X113653180Y-70439949D01*
X70556690Y-70439949D01*
X70556690Y-70353885D01*
X70556690Y-70353882D01*
X70556689Y-70353880D01*
X70540352Y-70271750D01*
X70525927Y-70199230D01*
X70493501Y-70120946D01*
X70465587Y-70053554D01*
X70465580Y-70053541D01*
X70377979Y-69922438D01*
X70377976Y-69922434D01*
X70266482Y-69810940D01*
X70266478Y-69810937D01*
X70135375Y-69723336D01*
X70135362Y-69723329D01*
X69989691Y-69662991D01*
X69989679Y-69662988D01*
X69835035Y-69632227D01*
X69835032Y-69632227D01*
X69677348Y-69632227D01*
X69677345Y-69632227D01*
X69522701Y-69662987D01*
X69522696Y-69662989D01*
X69522694Y-69662989D01*
X69522693Y-69662990D01*
X69499034Y-69672789D01*
X69451586Y-69682227D01*
X68054500Y-69682227D01*
X67987461Y-69662542D01*
X67941706Y-69609738D01*
X67930500Y-69558227D01*
X67930500Y-67899949D01*
X113653180Y-67899949D01*
X113653180Y-68073171D01*
X113680278Y-68244261D01*
X113733807Y-68409005D01*
X113812448Y-68563348D01*
X113914266Y-68703488D01*
X114036752Y-68825974D01*
X114176892Y-68927792D01*
X114331235Y-69006433D01*
X114495979Y-69059962D01*
X114667069Y-69087060D01*
X114667070Y-69087060D01*
X115640290Y-69087060D01*
X115640291Y-69087060D01*
X115811381Y-69059962D01*
X115976125Y-69006433D01*
X116130468Y-68927792D01*
X116270608Y-68825974D01*
X116393094Y-68703488D01*
X116494912Y-68563348D01*
X116573553Y-68409005D01*
X116627082Y-68244261D01*
X116654180Y-68073171D01*
X116654180Y-67899949D01*
X139053180Y-67899949D01*
X139053180Y-68073171D01*
X139080278Y-68244261D01*
X139133807Y-68409005D01*
X139212448Y-68563348D01*
X139314266Y-68703488D01*
X139436752Y-68825974D01*
X139576892Y-68927792D01*
X139731235Y-69006433D01*
X139895979Y-69059962D01*
X140067069Y-69087060D01*
X140067070Y-69087060D01*
X141040290Y-69087060D01*
X141040291Y-69087060D01*
X141211381Y-69059962D01*
X141376125Y-69006433D01*
X141530468Y-68927792D01*
X141670608Y-68825974D01*
X141793094Y-68703488D01*
X141894912Y-68563348D01*
X141973553Y-68409005D01*
X142027082Y-68244261D01*
X142054180Y-68073171D01*
X142054180Y-67899949D01*
X142027082Y-67728859D01*
X141973553Y-67564115D01*
X141894912Y-67409772D01*
X141793094Y-67269632D01*
X141670608Y-67147146D01*
X141530468Y-67045328D01*
X141376125Y-66966687D01*
X141211381Y-66913158D01*
X141211379Y-66913157D01*
X141211378Y-66913157D01*
X141079951Y-66892341D01*
X141040291Y-66886060D01*
X140067069Y-66886060D01*
X140027408Y-66892341D01*
X139895982Y-66913157D01*
X139731232Y-66966688D01*
X139576891Y-67045328D01*
X139496936Y-67103419D01*
X139436752Y-67147146D01*
X139436750Y-67147148D01*
X139436749Y-67147148D01*
X139314268Y-67269629D01*
X139314268Y-67269630D01*
X139314266Y-67269632D01*
X139270539Y-67329816D01*
X139212448Y-67409771D01*
X139133808Y-67564112D01*
X139080277Y-67728862D01*
X139060659Y-67852727D01*
X139053180Y-67899949D01*
X116654180Y-67899949D01*
X116627082Y-67728859D01*
X116573553Y-67564115D01*
X116494912Y-67409772D01*
X116393094Y-67269632D01*
X116270608Y-67147146D01*
X116130468Y-67045328D01*
X115976125Y-66966687D01*
X115811381Y-66913158D01*
X115811379Y-66913157D01*
X115811378Y-66913157D01*
X115679951Y-66892341D01*
X115640291Y-66886060D01*
X114667069Y-66886060D01*
X114627408Y-66892341D01*
X114495982Y-66913157D01*
X114331232Y-66966688D01*
X114176891Y-67045328D01*
X114096936Y-67103419D01*
X114036752Y-67147146D01*
X114036750Y-67147148D01*
X114036749Y-67147148D01*
X113914268Y-67269629D01*
X113914268Y-67269630D01*
X113914266Y-67269632D01*
X113870539Y-67329816D01*
X113812448Y-67409771D01*
X113733808Y-67564112D01*
X113680277Y-67728862D01*
X113660659Y-67852727D01*
X113653180Y-67899949D01*
X67930500Y-67899949D01*
X67930500Y-65359949D01*
X113653180Y-65359949D01*
X113653180Y-65533171D01*
X113680278Y-65704261D01*
X113733807Y-65869005D01*
X113812448Y-66023348D01*
X113914266Y-66163488D01*
X113914268Y-66163490D01*
X114035005Y-66284227D01*
X114050424Y-66303015D01*
X114114383Y-66398733D01*
X114201507Y-66485857D01*
X114252547Y-66519962D01*
X114303949Y-66554309D01*
X114303958Y-66554314D01*
X114417778Y-66601459D01*
X114417782Y-66601460D01*
X114417789Y-66601463D01*
X114538628Y-66625499D01*
X114538632Y-66625500D01*
X114538633Y-66625500D01*
X114661848Y-66625500D01*
X114661849Y-66625499D01*
X114782691Y-66601463D01*
X114782701Y-66601459D01*
X114891247Y-66556499D01*
X114938699Y-66547060D01*
X115640290Y-66547060D01*
X115640291Y-66547060D01*
X115811381Y-66519962D01*
X115976125Y-66466433D01*
X116130468Y-66387792D01*
X116270608Y-66285974D01*
X116393094Y-66163488D01*
X116494912Y-66023348D01*
X116573553Y-65869005D01*
X116627082Y-65704261D01*
X116654180Y-65533171D01*
X116654180Y-65359949D01*
X139053180Y-65359949D01*
X139053180Y-65533171D01*
X139080278Y-65704261D01*
X139133807Y-65869005D01*
X139212448Y-66023348D01*
X139314266Y-66163488D01*
X139436752Y-66285974D01*
X139576892Y-66387792D01*
X139731235Y-66466433D01*
X139895979Y-66519962D01*
X140067069Y-66547060D01*
X140067070Y-66547060D01*
X141040290Y-66547060D01*
X141040291Y-66547060D01*
X141211381Y-66519962D01*
X141376125Y-66466433D01*
X141530468Y-66387792D01*
X141670608Y-66285974D01*
X141793094Y-66163488D01*
X141894912Y-66023348D01*
X141973553Y-65869005D01*
X142027082Y-65704261D01*
X142054180Y-65533171D01*
X142054180Y-65359949D01*
X142027082Y-65188859D01*
X141973553Y-65024115D01*
X141894912Y-64869772D01*
X141793094Y-64729632D01*
X141670608Y-64607146D01*
X141530468Y-64505328D01*
X141376125Y-64426687D01*
X141211381Y-64373158D01*
X141211379Y-64373157D01*
X141211378Y-64373157D01*
X141079951Y-64352341D01*
X141040291Y-64346060D01*
X140067069Y-64346060D01*
X140027408Y-64352341D01*
X139895982Y-64373157D01*
X139731232Y-64426688D01*
X139576891Y-64505328D01*
X139542536Y-64530289D01*
X139436752Y-64607146D01*
X139436750Y-64607148D01*
X139436749Y-64607148D01*
X139314268Y-64729629D01*
X139314268Y-64729630D01*
X139314266Y-64729632D01*
X139270849Y-64789390D01*
X139212448Y-64869771D01*
X139133808Y-65024112D01*
X139080277Y-65188862D01*
X139053180Y-65359949D01*
X116654180Y-65359949D01*
X116627082Y-65188859D01*
X116573553Y-65024115D01*
X116494912Y-64869772D01*
X116393094Y-64729632D01*
X116270608Y-64607146D01*
X116130468Y-64505328D01*
X115976125Y-64426687D01*
X115811381Y-64373158D01*
X115811379Y-64373157D01*
X115811378Y-64373157D01*
X115679951Y-64352341D01*
X115640291Y-64346060D01*
X114667069Y-64346060D01*
X114627408Y-64352341D01*
X114495982Y-64373157D01*
X114331232Y-64426688D01*
X114176891Y-64505328D01*
X114142536Y-64530289D01*
X114036752Y-64607146D01*
X114036750Y-64607148D01*
X114036749Y-64607148D01*
X113914268Y-64729629D01*
X113914268Y-64729630D01*
X113914266Y-64729632D01*
X113870849Y-64789390D01*
X113812448Y-64869771D01*
X113733808Y-65024112D01*
X113680277Y-65188862D01*
X113653180Y-65359949D01*
X67930500Y-65359949D01*
X67930500Y-60999323D01*
X67939939Y-60951871D01*
X67989193Y-60832959D01*
X67989195Y-60832955D01*
X68019958Y-60678300D01*
X68019958Y-60520616D01*
X68019958Y-60520613D01*
X68019957Y-60520611D01*
X67989197Y-60365969D01*
X67989194Y-60365959D01*
X67963142Y-60303064D01*
X67939939Y-60247045D01*
X67930500Y-60199593D01*
X67930500Y-58757350D01*
X67950185Y-58690311D01*
X68002989Y-58644556D01*
X68072147Y-58634612D01*
X68123391Y-58654248D01*
X68250814Y-58739390D01*
X68250827Y-58739397D01*
X68319380Y-58767792D01*
X68396503Y-58799737D01*
X68551153Y-58830499D01*
X68551156Y-58830500D01*
X68551158Y-58830500D01*
X68708844Y-58830500D01*
X68708845Y-58830499D01*
X68755831Y-58821153D01*
X104729500Y-58821153D01*
X104729500Y-58978846D01*
X104760261Y-59133489D01*
X104760264Y-59133501D01*
X104820602Y-59279172D01*
X104820609Y-59279184D01*
X104883602Y-59373459D01*
X104904480Y-59440136D01*
X104904500Y-59442350D01*
X104904500Y-63477650D01*
X104884815Y-63544689D01*
X104883602Y-63546541D01*
X104820609Y-63640815D01*
X104820602Y-63640828D01*
X104760264Y-63786498D01*
X104760261Y-63786510D01*
X104729500Y-63941153D01*
X104729500Y-64098846D01*
X104760261Y-64253489D01*
X104760264Y-64253501D01*
X104820602Y-64399172D01*
X104820609Y-64399185D01*
X104908210Y-64530288D01*
X104908213Y-64530292D01*
X105019707Y-64641786D01*
X105019711Y-64641789D01*
X105150814Y-64729390D01*
X105150827Y-64729397D01*
X105295665Y-64789390D01*
X105296503Y-64789737D01*
X105447312Y-64819735D01*
X105451153Y-64820499D01*
X105451156Y-64820500D01*
X105451158Y-64820500D01*
X105608844Y-64820500D01*
X105608845Y-64820499D01*
X105763497Y-64789737D01*
X105909179Y-64729394D01*
X105918658Y-64723059D01*
X105985335Y-64702181D01*
X106052715Y-64720665D01*
X106056441Y-64723059D01*
X106110814Y-64759390D01*
X106110827Y-64759397D01*
X106184078Y-64789738D01*
X106256503Y-64819737D01*
X106407312Y-64849735D01*
X106411153Y-64850499D01*
X106411156Y-64850500D01*
X106411158Y-64850500D01*
X106568844Y-64850500D01*
X106568845Y-64850499D01*
X106723497Y-64819737D01*
X106869179Y-64759394D01*
X106983560Y-64682966D01*
X107050233Y-64662090D01*
X107117614Y-64680574D01*
X107121339Y-64682968D01*
X107190814Y-64729390D01*
X107190827Y-64729397D01*
X107335665Y-64789390D01*
X107336503Y-64789737D01*
X107487312Y-64819735D01*
X107491153Y-64820499D01*
X107491156Y-64820500D01*
X107491158Y-64820500D01*
X107648844Y-64820500D01*
X107648845Y-64820499D01*
X107803497Y-64789737D01*
X107916166Y-64743067D01*
X107949172Y-64729397D01*
X107949172Y-64729396D01*
X107949179Y-64729394D01*
X107949184Y-64729390D01*
X107949187Y-64729389D01*
X108019305Y-64682537D01*
X108085982Y-64661658D01*
X108153363Y-64680142D01*
X108175878Y-64697957D01*
X108179707Y-64701786D01*
X108179711Y-64701789D01*
X108310814Y-64789390D01*
X108310827Y-64789397D01*
X108456498Y-64849735D01*
X108456503Y-64849737D01*
X108611153Y-64880499D01*
X108611156Y-64880500D01*
X108611158Y-64880500D01*
X108768844Y-64880500D01*
X108768845Y-64880499D01*
X108923497Y-64849737D01*
X109069179Y-64789394D01*
X109200289Y-64701789D01*
X109311789Y-64590289D01*
X109399394Y-64459179D01*
X109459737Y-64313497D01*
X109490500Y-64158842D01*
X109490500Y-64001158D01*
X109490500Y-64001155D01*
X109490499Y-64001153D01*
X109459738Y-63846510D01*
X109459737Y-63846503D01*
X109399394Y-63700821D01*
X109336397Y-63606539D01*
X109315520Y-63539863D01*
X109315500Y-63537650D01*
X109315500Y-62819949D01*
X113653180Y-62819949D01*
X113653180Y-62993171D01*
X113661357Y-63044799D01*
X113679624Y-63160136D01*
X113680278Y-63164261D01*
X113733807Y-63329005D01*
X113812448Y-63483348D01*
X113914266Y-63623488D01*
X114036752Y-63745974D01*
X114176892Y-63847792D01*
X114331235Y-63926433D01*
X114495979Y-63979962D01*
X114667069Y-64007060D01*
X114667070Y-64007060D01*
X115640290Y-64007060D01*
X115640291Y-64007060D01*
X115811381Y-63979962D01*
X115976125Y-63926433D01*
X116130468Y-63847792D01*
X116270608Y-63745974D01*
X116393094Y-63623488D01*
X116494912Y-63483348D01*
X116573553Y-63329005D01*
X116627082Y-63164261D01*
X116654180Y-62993171D01*
X116654180Y-62819949D01*
X139053180Y-62819949D01*
X139053180Y-62993171D01*
X139061357Y-63044799D01*
X139079624Y-63160136D01*
X139080278Y-63164261D01*
X139133807Y-63329005D01*
X139212448Y-63483348D01*
X139314266Y-63623488D01*
X139436752Y-63745974D01*
X139576892Y-63847792D01*
X139731235Y-63926433D01*
X139895979Y-63979962D01*
X140067069Y-64007060D01*
X140067070Y-64007060D01*
X141040290Y-64007060D01*
X141040291Y-64007060D01*
X141211381Y-63979962D01*
X141376125Y-63926433D01*
X141530468Y-63847792D01*
X141670608Y-63745974D01*
X141793094Y-63623488D01*
X141894912Y-63483348D01*
X141973553Y-63329005D01*
X142027082Y-63164261D01*
X142054180Y-62993171D01*
X142054180Y-62819949D01*
X142027082Y-62648859D01*
X141973553Y-62484115D01*
X141894912Y-62329772D01*
X141793094Y-62189632D01*
X141670608Y-62067146D01*
X141530468Y-61965328D01*
X141376125Y-61886687D01*
X141211381Y-61833158D01*
X141211379Y-61833157D01*
X141211378Y-61833157D01*
X141079951Y-61812341D01*
X141040291Y-61806060D01*
X140067069Y-61806060D01*
X140027408Y-61812341D01*
X139895982Y-61833157D01*
X139731232Y-61886688D01*
X139576891Y-61965328D01*
X139500042Y-62021163D01*
X139436752Y-62067146D01*
X139436750Y-62067148D01*
X139436749Y-62067148D01*
X139314268Y-62189629D01*
X139314268Y-62189630D01*
X139314266Y-62189632D01*
X139296636Y-62213898D01*
X139212448Y-62329771D01*
X139133808Y-62484112D01*
X139080277Y-62648862D01*
X139053180Y-62819949D01*
X116654180Y-62819949D01*
X116627082Y-62648859D01*
X116573553Y-62484115D01*
X116494912Y-62329772D01*
X116393094Y-62189632D01*
X116270608Y-62067146D01*
X116130468Y-61965328D01*
X115976125Y-61886687D01*
X115811381Y-61833158D01*
X115811379Y-61833157D01*
X115811378Y-61833157D01*
X115679951Y-61812341D01*
X115640291Y-61806060D01*
X114667069Y-61806060D01*
X114627408Y-61812341D01*
X114495982Y-61833157D01*
X114331232Y-61886688D01*
X114176891Y-61965328D01*
X114100042Y-62021163D01*
X114036752Y-62067146D01*
X114036750Y-62067148D01*
X114036749Y-62067148D01*
X113914268Y-62189629D01*
X113914268Y-62189630D01*
X113914266Y-62189632D01*
X113896636Y-62213898D01*
X113812448Y-62329771D01*
X113733808Y-62484112D01*
X113680277Y-62648862D01*
X113653180Y-62819949D01*
X109315500Y-62819949D01*
X109315500Y-60279949D01*
X113653180Y-60279949D01*
X113653180Y-60453171D01*
X113680278Y-60624261D01*
X113733807Y-60789005D01*
X113812448Y-60943348D01*
X113914266Y-61083488D01*
X114036752Y-61205974D01*
X114176892Y-61307792D01*
X114331235Y-61386433D01*
X114495979Y-61439962D01*
X114667069Y-61467060D01*
X114667070Y-61467060D01*
X115640290Y-61467060D01*
X115640291Y-61467060D01*
X115811381Y-61439962D01*
X115976125Y-61386433D01*
X116130468Y-61307792D01*
X116270608Y-61205974D01*
X116393094Y-61083488D01*
X116494912Y-60943348D01*
X116573553Y-60789005D01*
X116627082Y-60624261D01*
X116654180Y-60453171D01*
X116654180Y-60279949D01*
X116627082Y-60108859D01*
X116573553Y-59944115D01*
X116494912Y-59789772D01*
X116393094Y-59649632D01*
X116270608Y-59527146D01*
X116130468Y-59425328D01*
X115976125Y-59346687D01*
X115811381Y-59293158D01*
X115811379Y-59293157D01*
X115811378Y-59293157D01*
X115679951Y-59272341D01*
X115640291Y-59266060D01*
X114667069Y-59266060D01*
X114627408Y-59272341D01*
X114495982Y-59293157D01*
X114331232Y-59346688D01*
X114176891Y-59425328D01*
X114153463Y-59442350D01*
X114036752Y-59527146D01*
X114036750Y-59527148D01*
X114036749Y-59527148D01*
X113914268Y-59649629D01*
X113914268Y-59649630D01*
X113914266Y-59649632D01*
X113914030Y-59649957D01*
X113812448Y-59789771D01*
X113733808Y-59944112D01*
X113680277Y-60108862D01*
X113669356Y-60177815D01*
X113653180Y-60279949D01*
X109315500Y-60279949D01*
X109315500Y-57739949D01*
X113653180Y-57739949D01*
X113653180Y-57913171D01*
X113680278Y-58084261D01*
X113733807Y-58249005D01*
X113812448Y-58403348D01*
X113914266Y-58543488D01*
X114036752Y-58665974D01*
X114176892Y-58767792D01*
X114331235Y-58846433D01*
X114495979Y-58899962D01*
X114667069Y-58927060D01*
X114667070Y-58927060D01*
X115640290Y-58927060D01*
X115640291Y-58927060D01*
X115811381Y-58899962D01*
X115976125Y-58846433D01*
X116130468Y-58767792D01*
X116270608Y-58665974D01*
X116393094Y-58543488D01*
X116494912Y-58403348D01*
X116573553Y-58249005D01*
X116627082Y-58084261D01*
X116654180Y-57913171D01*
X116654180Y-57739949D01*
X116627082Y-57568859D01*
X116573553Y-57404115D01*
X116494912Y-57249772D01*
X116393094Y-57109632D01*
X116270608Y-56987146D01*
X116130468Y-56885328D01*
X115976125Y-56806687D01*
X115811381Y-56753158D01*
X115811379Y-56753157D01*
X115811378Y-56753157D01*
X115679951Y-56732341D01*
X115640291Y-56726060D01*
X114667069Y-56726060D01*
X114627408Y-56732341D01*
X114495982Y-56753157D01*
X114331232Y-56806688D01*
X114176891Y-56885328D01*
X114096936Y-56943419D01*
X114036752Y-56987146D01*
X114036750Y-56987148D01*
X114036749Y-56987148D01*
X113914268Y-57109629D01*
X113914268Y-57109630D01*
X113914266Y-57109632D01*
X113870539Y-57169816D01*
X113812448Y-57249771D01*
X113733808Y-57404112D01*
X113680277Y-57568862D01*
X113669642Y-57636013D01*
X113653180Y-57739949D01*
X109315500Y-57739949D01*
X109315500Y-55199949D01*
X113653180Y-55199949D01*
X113653180Y-55373171D01*
X113680278Y-55544261D01*
X113733807Y-55709005D01*
X113812448Y-55863348D01*
X113914266Y-56003488D01*
X114036752Y-56125974D01*
X114176892Y-56227792D01*
X114331235Y-56306433D01*
X114495979Y-56359962D01*
X114667069Y-56387060D01*
X114667070Y-56387060D01*
X115640290Y-56387060D01*
X115640291Y-56387060D01*
X115811381Y-56359962D01*
X115976125Y-56306433D01*
X116130468Y-56227792D01*
X116270608Y-56125974D01*
X116393094Y-56003488D01*
X116494912Y-55863348D01*
X116573553Y-55709005D01*
X116627082Y-55544261D01*
X116654180Y-55373171D01*
X116654180Y-55199949D01*
X116627082Y-55028859D01*
X116573553Y-54864115D01*
X116494912Y-54709772D01*
X116393094Y-54569632D01*
X116270608Y-54447146D01*
X116130468Y-54345328D01*
X116047064Y-54302832D01*
X115976127Y-54266688D01*
X115976126Y-54266687D01*
X115976125Y-54266687D01*
X115811381Y-54213158D01*
X115811379Y-54213157D01*
X115811378Y-54213157D01*
X115679951Y-54192341D01*
X115640291Y-54186060D01*
X114667069Y-54186060D01*
X114627408Y-54192341D01*
X114495982Y-54213157D01*
X114331232Y-54266688D01*
X114176891Y-54345328D01*
X114130300Y-54379179D01*
X114036752Y-54447146D01*
X114036750Y-54447148D01*
X114036749Y-54447148D01*
X113914268Y-54569629D01*
X113914268Y-54569630D01*
X113914266Y-54569632D01*
X113911308Y-54573704D01*
X113812448Y-54709771D01*
X113733808Y-54864112D01*
X113680277Y-55028862D01*
X113672309Y-55079172D01*
X113653180Y-55199949D01*
X109315500Y-55199949D01*
X109315500Y-54542350D01*
X109335185Y-54475311D01*
X109336398Y-54473459D01*
X109362477Y-54434429D01*
X109399394Y-54379179D01*
X109459737Y-54233497D01*
X109490500Y-54078842D01*
X109490500Y-53921158D01*
X109490500Y-53921155D01*
X109490499Y-53921153D01*
X109475761Y-53847060D01*
X109459737Y-53766503D01*
X109420906Y-53672755D01*
X109399397Y-53620827D01*
X109399390Y-53620814D01*
X109311789Y-53489711D01*
X109311786Y-53489707D01*
X109200292Y-53378213D01*
X109200288Y-53378210D01*
X109069185Y-53290609D01*
X109069172Y-53290602D01*
X108923501Y-53230264D01*
X108923489Y-53230261D01*
X108768845Y-53199500D01*
X108768842Y-53199500D01*
X108611158Y-53199500D01*
X108611155Y-53199500D01*
X108456510Y-53230261D01*
X108456498Y-53230264D01*
X108310827Y-53290602D01*
X108310809Y-53290612D01*
X108198890Y-53365394D01*
X108132213Y-53386272D01*
X108064833Y-53367787D01*
X108061110Y-53365394D01*
X107949190Y-53290612D01*
X107949172Y-53290602D01*
X107803501Y-53230264D01*
X107803489Y-53230261D01*
X107648845Y-53199500D01*
X107648842Y-53199500D01*
X107491158Y-53199500D01*
X107491155Y-53199500D01*
X107336510Y-53230261D01*
X107336498Y-53230264D01*
X107190827Y-53290602D01*
X107190814Y-53290609D01*
X107059711Y-53378210D01*
X107059707Y-53378213D01*
X106948213Y-53489707D01*
X106948210Y-53489711D01*
X106860609Y-53620814D01*
X106860602Y-53620827D01*
X106800264Y-53766498D01*
X106800261Y-53766510D01*
X106769500Y-53921153D01*
X106769500Y-54078846D01*
X106800261Y-54233489D01*
X106800264Y-54233501D01*
X106860602Y-54379172D01*
X106860609Y-54379184D01*
X106923602Y-54473459D01*
X106944480Y-54540136D01*
X106944500Y-54542350D01*
X106944500Y-58016226D01*
X106924815Y-58083265D01*
X106872011Y-58129020D01*
X106802853Y-58138964D01*
X106773048Y-58130787D01*
X106723501Y-58110264D01*
X106723489Y-58110261D01*
X106568845Y-58079500D01*
X106568842Y-58079500D01*
X106411158Y-58079500D01*
X106411155Y-58079500D01*
X106256510Y-58110261D01*
X106256498Y-58110264D01*
X106110828Y-58170602D01*
X106110819Y-58170607D01*
X106063922Y-58201942D01*
X105997244Y-58222818D01*
X105929864Y-58204332D01*
X105926141Y-58201939D01*
X105909187Y-58190610D01*
X105909172Y-58190602D01*
X105763501Y-58130264D01*
X105763489Y-58130261D01*
X105608845Y-58099500D01*
X105608842Y-58099500D01*
X105451158Y-58099500D01*
X105451155Y-58099500D01*
X105296510Y-58130261D01*
X105296498Y-58130264D01*
X105150827Y-58190602D01*
X105150814Y-58190609D01*
X105019711Y-58278210D01*
X105019707Y-58278213D01*
X104908213Y-58389707D01*
X104908210Y-58389711D01*
X104820609Y-58520814D01*
X104820602Y-58520827D01*
X104760264Y-58666498D01*
X104760261Y-58666510D01*
X104729500Y-58821153D01*
X68755831Y-58821153D01*
X68863497Y-58799737D01*
X69009179Y-58739394D01*
X69009185Y-58739390D01*
X69050232Y-58711964D01*
X69118257Y-58666510D01*
X69140289Y-58651789D01*
X69251789Y-58540289D01*
X69339394Y-58409179D01*
X69399737Y-58263497D01*
X69430500Y-58108842D01*
X69430500Y-57951158D01*
X69430500Y-57951155D01*
X69430499Y-57951153D01*
X69399738Y-57796510D01*
X69399737Y-57796503D01*
X69339394Y-57650821D01*
X69276397Y-57556539D01*
X69255520Y-57489863D01*
X69255500Y-57487650D01*
X69255500Y-55242350D01*
X69275185Y-55175311D01*
X69276398Y-55173459D01*
X69329500Y-55093986D01*
X69339394Y-55079179D01*
X69399737Y-54933497D01*
X69430500Y-54778842D01*
X69430500Y-54621158D01*
X69430500Y-54621155D01*
X69430499Y-54621153D01*
X69414824Y-54542350D01*
X69399737Y-54466503D01*
X69397420Y-54460910D01*
X69339397Y-54320827D01*
X69339390Y-54320814D01*
X69251789Y-54189711D01*
X69251786Y-54189707D01*
X69140292Y-54078213D01*
X69140288Y-54078210D01*
X69009185Y-53990609D01*
X69009172Y-53990602D01*
X68863501Y-53930264D01*
X68863489Y-53930261D01*
X68708845Y-53899500D01*
X68708842Y-53899500D01*
X68551158Y-53899500D01*
X68551155Y-53899500D01*
X68396510Y-53930261D01*
X68396498Y-53930264D01*
X68250827Y-53990602D01*
X68250814Y-53990609D01*
X68123391Y-54075751D01*
X68056713Y-54096629D01*
X67989333Y-54078144D01*
X67942643Y-54026165D01*
X67930500Y-53972649D01*
X67930500Y-53244500D01*
X67950185Y-53177461D01*
X68002989Y-53131706D01*
X68054500Y-53120500D01*
X91013920Y-53120500D01*
X91111462Y-53101096D01*
X91158913Y-53091658D01*
X91295495Y-53035084D01*
X91365002Y-52988641D01*
X91418416Y-52952952D01*
X91706566Y-52664802D01*
X91711419Y-52659949D01*
X113653180Y-52659949D01*
X113653180Y-52833171D01*
X113680278Y-53004261D01*
X113709129Y-53093056D01*
X113733808Y-53169007D01*
X113745778Y-53192500D01*
X113812448Y-53323348D01*
X113914266Y-53463488D01*
X114036752Y-53585974D01*
X114176892Y-53687792D01*
X114331235Y-53766433D01*
X114495979Y-53819962D01*
X114667069Y-53847060D01*
X114667070Y-53847060D01*
X115640290Y-53847060D01*
X115640291Y-53847060D01*
X115811381Y-53819962D01*
X115976125Y-53766433D01*
X116130468Y-53687792D01*
X116270608Y-53585974D01*
X116393094Y-53463488D01*
X116494912Y-53323348D01*
X116573553Y-53169005D01*
X116627082Y-53004261D01*
X116654180Y-52833171D01*
X116654180Y-52659949D01*
X116627082Y-52488859D01*
X116573553Y-52324115D01*
X116494912Y-52169772D01*
X116393094Y-52029632D01*
X116270608Y-51907146D01*
X116130468Y-51805328D01*
X115976125Y-51726687D01*
X115811381Y-51673158D01*
X115811379Y-51673157D01*
X115811378Y-51673157D01*
X115679951Y-51652341D01*
X115640291Y-51646060D01*
X114667069Y-51646060D01*
X114627408Y-51652341D01*
X114495982Y-51673157D01*
X114331232Y-51726688D01*
X114176891Y-51805328D01*
X114096936Y-51863419D01*
X114036752Y-51907146D01*
X114036750Y-51907148D01*
X114036749Y-51907148D01*
X113914268Y-52029629D01*
X113914268Y-52029630D01*
X113914266Y-52029632D01*
X113879130Y-52077993D01*
X113812448Y-52169771D01*
X113733808Y-52324112D01*
X113680277Y-52488862D01*
X113664146Y-52590711D01*
X113653180Y-52659949D01*
X91711419Y-52659949D01*
X91803973Y-52567396D01*
X91976947Y-52394421D01*
X91976952Y-52394416D01*
X92042655Y-52296083D01*
X92059084Y-52271495D01*
X92115658Y-52134913D01*
X92144500Y-51989918D01*
X92144500Y-50976020D01*
X92164185Y-50908981D01*
X92195614Y-50875702D01*
X92273792Y-50818904D01*
X92387717Y-50704978D01*
X92449036Y-50671496D01*
X92518728Y-50676480D01*
X92574662Y-50718351D01*
X92591577Y-50749328D01*
X92640646Y-50880888D01*
X92640649Y-50880893D01*
X92726809Y-50995987D01*
X92726812Y-50995990D01*
X92841906Y-51082150D01*
X92841913Y-51082154D01*
X92976620Y-51132396D01*
X92976627Y-51132398D01*
X93036155Y-51138799D01*
X93036172Y-51138800D01*
X93684000Y-51138800D01*
X93684000Y-50221812D01*
X93741007Y-50254725D01*
X93868174Y-50288800D01*
X93999826Y-50288800D01*
X94126993Y-50254725D01*
X94184000Y-50221812D01*
X94184000Y-51138800D01*
X94831828Y-51138800D01*
X94831844Y-51138799D01*
X94891372Y-51132398D01*
X94891379Y-51132396D01*
X95026086Y-51082154D01*
X95026093Y-51082150D01*
X95141187Y-50995990D01*
X95141190Y-50995987D01*
X95227350Y-50880893D01*
X95227354Y-50880886D01*
X95277596Y-50746179D01*
X95277598Y-50746172D01*
X95283999Y-50686644D01*
X95284000Y-50686627D01*
X95284000Y-50119949D01*
X113653180Y-50119949D01*
X113653180Y-50293170D01*
X113676878Y-50442799D01*
X113680278Y-50464261D01*
X113719999Y-50586510D01*
X113733808Y-50629007D01*
X113763167Y-50686627D01*
X113812448Y-50783348D01*
X113914266Y-50923488D01*
X114036752Y-51045974D01*
X114176892Y-51147792D01*
X114331235Y-51226433D01*
X114495979Y-51279962D01*
X114667069Y-51307060D01*
X114667070Y-51307060D01*
X115640290Y-51307060D01*
X115640291Y-51307060D01*
X115811381Y-51279962D01*
X115976125Y-51226433D01*
X116130468Y-51147792D01*
X116270608Y-51045974D01*
X116393094Y-50923488D01*
X116494912Y-50783348D01*
X116573553Y-50629005D01*
X116627082Y-50464261D01*
X116654180Y-50293171D01*
X116654180Y-50119949D01*
X116627082Y-49948859D01*
X116573553Y-49784115D01*
X116494912Y-49629772D01*
X116393094Y-49489632D01*
X116270608Y-49367146D01*
X116130468Y-49265328D01*
X115976125Y-49186687D01*
X115811381Y-49133158D01*
X115811379Y-49133157D01*
X115811378Y-49133157D01*
X115679951Y-49112341D01*
X115640291Y-49106060D01*
X114667069Y-49106060D01*
X114627408Y-49112341D01*
X114495982Y-49133157D01*
X114331232Y-49186688D01*
X114176891Y-49265328D01*
X114097686Y-49322875D01*
X114036752Y-49367146D01*
X114036750Y-49367148D01*
X114036749Y-49367148D01*
X113914268Y-49489629D01*
X113914268Y-49489630D01*
X113914266Y-49489632D01*
X113878543Y-49538800D01*
X113812448Y-49629771D01*
X113733808Y-49784112D01*
X113680277Y-49948862D01*
X113653180Y-50119949D01*
X95284000Y-50119949D01*
X95284000Y-50038800D01*
X94367012Y-50038800D01*
X94399925Y-49981793D01*
X94434000Y-49854626D01*
X94434000Y-49722974D01*
X94399925Y-49595807D01*
X94367012Y-49538800D01*
X95284000Y-49538800D01*
X95284000Y-48890972D01*
X95283999Y-48890955D01*
X95277598Y-48831427D01*
X95277596Y-48831420D01*
X95227354Y-48696713D01*
X95227350Y-48696706D01*
X95141190Y-48581612D01*
X95141187Y-48581609D01*
X95026093Y-48495449D01*
X95026086Y-48495445D01*
X94891379Y-48445203D01*
X94891372Y-48445201D01*
X94831844Y-48438800D01*
X94184000Y-48438800D01*
X94184000Y-49355788D01*
X94126993Y-49322875D01*
X93999826Y-49288800D01*
X93868174Y-49288800D01*
X93741007Y-49322875D01*
X93684000Y-49355788D01*
X93684000Y-48438800D01*
X93036155Y-48438800D01*
X92976627Y-48445201D01*
X92976620Y-48445203D01*
X92841913Y-48495445D01*
X92841906Y-48495449D01*
X92726812Y-48581609D01*
X92726809Y-48581612D01*
X92640649Y-48696706D01*
X92640646Y-48696712D01*
X92591577Y-48828271D01*
X92549705Y-48884204D01*
X92484241Y-48908621D01*
X92415968Y-48893769D01*
X92387714Y-48872618D01*
X92273786Y-48758690D01*
X92101820Y-48633751D01*
X91912414Y-48537244D01*
X91912413Y-48537243D01*
X91912412Y-48537243D01*
X91710243Y-48471554D01*
X91710241Y-48471553D01*
X91710240Y-48471553D01*
X91548957Y-48446008D01*
X91500287Y-48438300D01*
X91287713Y-48438300D01*
X91239042Y-48446008D01*
X91077760Y-48471553D01*
X91077757Y-48471554D01*
X90926130Y-48520821D01*
X90875585Y-48537244D01*
X90686179Y-48633751D01*
X90514213Y-48758690D01*
X90363890Y-48909013D01*
X90238949Y-49080982D01*
X90234484Y-49089746D01*
X90186509Y-49140542D01*
X90118688Y-49157336D01*
X90052553Y-49134798D01*
X90013516Y-49089746D01*
X90009050Y-49080982D01*
X89884109Y-48909013D01*
X89733786Y-48758690D01*
X89561820Y-48633751D01*
X89372414Y-48537244D01*
X89372413Y-48537243D01*
X89372412Y-48537243D01*
X89170243Y-48471554D01*
X89170241Y-48471553D01*
X89170240Y-48471553D01*
X89008957Y-48446008D01*
X88960287Y-48438300D01*
X88747713Y-48438300D01*
X88699042Y-48446008D01*
X88537760Y-48471553D01*
X88537757Y-48471554D01*
X88386130Y-48520821D01*
X88335585Y-48537244D01*
X88146179Y-48633751D01*
X87974213Y-48758690D01*
X87823890Y-48909013D01*
X87698949Y-49080982D01*
X87694484Y-49089746D01*
X87646509Y-49140542D01*
X87578688Y-49157336D01*
X87512553Y-49134798D01*
X87473516Y-49089746D01*
X87469050Y-49080982D01*
X87344109Y-48909013D01*
X87193786Y-48758690D01*
X87021820Y-48633751D01*
X86832414Y-48537244D01*
X86832413Y-48537243D01*
X86832412Y-48537243D01*
X86630243Y-48471554D01*
X86630241Y-48471553D01*
X86630240Y-48471553D01*
X86468957Y-48446008D01*
X86420287Y-48438300D01*
X86207713Y-48438300D01*
X86159042Y-48446008D01*
X85997760Y-48471553D01*
X85997757Y-48471554D01*
X85846130Y-48520821D01*
X85795585Y-48537244D01*
X85606179Y-48633751D01*
X85434213Y-48758690D01*
X85283890Y-48909013D01*
X85158951Y-49080979D01*
X85062444Y-49270385D01*
X84996753Y-49472560D01*
X84963500Y-49682513D01*
X84963500Y-49895086D01*
X84988077Y-50050263D01*
X84996754Y-50105043D01*
X85057880Y-50293170D01*
X85062444Y-50307214D01*
X85158951Y-50496620D01*
X85283890Y-50668586D01*
X85434213Y-50818909D01*
X85606179Y-50943848D01*
X85606181Y-50943849D01*
X85606184Y-50943851D01*
X85795588Y-51040357D01*
X85997757Y-51106046D01*
X86207713Y-51139300D01*
X86207714Y-51139300D01*
X86420286Y-51139300D01*
X86420287Y-51139300D01*
X86630243Y-51106046D01*
X86832412Y-51040357D01*
X87021816Y-50943851D01*
X87108478Y-50880888D01*
X87193786Y-50818909D01*
X87193788Y-50818906D01*
X87193792Y-50818904D01*
X87344104Y-50668592D01*
X87344106Y-50668588D01*
X87344109Y-50668586D01*
X87469048Y-50496620D01*
X87469047Y-50496620D01*
X87469051Y-50496616D01*
X87473514Y-50487854D01*
X87521488Y-50437059D01*
X87589308Y-50420263D01*
X87655444Y-50442799D01*
X87694486Y-50487856D01*
X87698951Y-50496620D01*
X87823890Y-50668586D01*
X87974213Y-50818909D01*
X88146179Y-50943848D01*
X88146181Y-50943849D01*
X88146184Y-50943851D01*
X88335588Y-51040357D01*
X88537757Y-51106046D01*
X88747713Y-51139300D01*
X88747714Y-51139300D01*
X88960286Y-51139300D01*
X88960287Y-51139300D01*
X89170243Y-51106046D01*
X89372412Y-51040357D01*
X89561816Y-50943851D01*
X89648478Y-50880888D01*
X89733786Y-50818909D01*
X89733788Y-50818906D01*
X89733792Y-50818904D01*
X89884104Y-50668592D01*
X89884106Y-50668588D01*
X89884109Y-50668586D01*
X90009048Y-50496620D01*
X90009047Y-50496620D01*
X90009051Y-50496616D01*
X90013514Y-50487854D01*
X90061488Y-50437059D01*
X90129308Y-50420263D01*
X90195444Y-50442799D01*
X90234486Y-50487856D01*
X90238951Y-50496620D01*
X90363890Y-50668586D01*
X90363896Y-50668592D01*
X90514208Y-50818904D01*
X90592384Y-50875702D01*
X90635051Y-50931031D01*
X90643500Y-50976020D01*
X90643500Y-51495500D01*
X90623815Y-51562539D01*
X90571011Y-51608294D01*
X90519500Y-51619500D01*
X68054500Y-51619500D01*
X67987461Y-51599815D01*
X67941706Y-51547011D01*
X67930500Y-51495500D01*
X67930500Y-51124604D01*
X67939939Y-51077151D01*
X67949737Y-51053497D01*
X67980500Y-50898842D01*
X67980500Y-50741158D01*
X67980500Y-50741155D01*
X67980499Y-50741153D01*
X67969653Y-50686627D01*
X67949737Y-50586503D01*
X67912505Y-50496616D01*
X67889397Y-50440827D01*
X67889390Y-50440814D01*
X67801789Y-50309711D01*
X67801786Y-50309707D01*
X67690292Y-50198213D01*
X67690288Y-50198210D01*
X67559185Y-50110609D01*
X67559172Y-50110602D01*
X67413501Y-50050264D01*
X67413489Y-50050261D01*
X67258845Y-50019500D01*
X67258842Y-50019500D01*
X67101158Y-50019500D01*
X67101155Y-50019500D01*
X66946510Y-50050261D01*
X66946498Y-50050264D01*
X66800827Y-50110602D01*
X66800814Y-50110609D01*
X66669711Y-50198210D01*
X66669707Y-50198213D01*
X66558213Y-50309707D01*
X66558210Y-50309711D01*
X66470609Y-50440814D01*
X66470602Y-50440827D01*
X66410264Y-50586498D01*
X66410261Y-50586510D01*
X66379500Y-50741153D01*
X63791690Y-50741153D01*
X63791690Y-49442350D01*
X63811375Y-49375311D01*
X63812588Y-49373459D01*
X63869155Y-49288800D01*
X63875584Y-49279179D01*
X63935927Y-49133497D01*
X63966690Y-48978842D01*
X63966690Y-48821158D01*
X63966690Y-48821155D01*
X63966689Y-48821153D01*
X63941936Y-48696712D01*
X63935927Y-48666503D01*
X63912180Y-48609172D01*
X63875587Y-48520827D01*
X63875580Y-48520814D01*
X63787979Y-48389711D01*
X63787976Y-48389707D01*
X63676482Y-48278213D01*
X63676478Y-48278210D01*
X63545375Y-48190609D01*
X63545362Y-48190602D01*
X63399691Y-48130264D01*
X63399679Y-48130261D01*
X63245035Y-48099500D01*
X63245032Y-48099500D01*
X63087348Y-48099500D01*
X63087345Y-48099500D01*
X62932700Y-48130261D01*
X62932688Y-48130264D01*
X62787017Y-48190602D01*
X62787004Y-48190609D01*
X62655901Y-48278210D01*
X62655897Y-48278213D01*
X62544403Y-48389707D01*
X62544400Y-48389711D01*
X62456799Y-48520814D01*
X62456792Y-48520827D01*
X62396454Y-48666498D01*
X62396451Y-48666510D01*
X62365690Y-48821153D01*
X54340500Y-48821153D01*
X54340500Y-47579949D01*
X113653180Y-47579949D01*
X113653180Y-47753171D01*
X113680278Y-47924261D01*
X113733807Y-48089005D01*
X113812448Y-48243348D01*
X113914266Y-48383488D01*
X114036752Y-48505974D01*
X114176892Y-48607792D01*
X114331235Y-48686433D01*
X114495979Y-48739962D01*
X114667069Y-48767060D01*
X114667070Y-48767060D01*
X115640290Y-48767060D01*
X115640291Y-48767060D01*
X115811381Y-48739962D01*
X115976125Y-48686433D01*
X116130468Y-48607792D01*
X116270608Y-48505974D01*
X116393094Y-48383488D01*
X116494912Y-48243348D01*
X116541887Y-48151153D01*
X129789500Y-48151153D01*
X129789500Y-48308846D01*
X129820261Y-48463489D01*
X129820264Y-48463501D01*
X129880602Y-48609172D01*
X129880609Y-48609184D01*
X129943602Y-48703459D01*
X129964480Y-48770136D01*
X129964500Y-48772350D01*
X129964500Y-59867650D01*
X129944815Y-59934689D01*
X129943626Y-59936503D01*
X129931659Y-59954415D01*
X129880609Y-60030815D01*
X129880602Y-60030828D01*
X129820264Y-60176498D01*
X129820261Y-60176510D01*
X129789500Y-60331153D01*
X129789500Y-60488846D01*
X129820261Y-60643489D01*
X129820264Y-60643501D01*
X129880602Y-60789172D01*
X129880609Y-60789185D01*
X129968210Y-60920288D01*
X129968213Y-60920292D01*
X130079707Y-61031786D01*
X130079711Y-61031789D01*
X130210814Y-61119390D01*
X130210827Y-61119397D01*
X130356498Y-61179735D01*
X130356503Y-61179737D01*
X130511153Y-61210499D01*
X130511156Y-61210500D01*
X130511158Y-61210500D01*
X130668844Y-61210500D01*
X130668845Y-61210499D01*
X130823497Y-61179737D01*
X130969179Y-61119394D01*
X131100289Y-61031789D01*
X131211789Y-60920289D01*
X131299394Y-60789179D01*
X131359737Y-60643497D01*
X131390500Y-60488842D01*
X131390500Y-60331158D01*
X131390500Y-60331155D01*
X131390499Y-60331153D01*
X131359999Y-60177816D01*
X131359999Y-60177815D01*
X131359739Y-60176512D01*
X131359738Y-60176509D01*
X131359737Y-60176503D01*
X131334908Y-60116559D01*
X139079564Y-60116559D01*
X139079565Y-60116560D01*
X140237994Y-60116560D01*
X140233600Y-60120954D01*
X140180939Y-60212166D01*
X140153680Y-60313899D01*
X140153680Y-60419221D01*
X140180939Y-60520954D01*
X140233600Y-60612166D01*
X140237994Y-60616560D01*
X139079565Y-60616560D01*
X139080765Y-60624144D01*
X139134271Y-60788815D01*
X139212875Y-60943084D01*
X139314647Y-61083162D01*
X139437077Y-61205592D01*
X139577155Y-61307364D01*
X139731422Y-61385968D01*
X139896095Y-61439474D01*
X140067109Y-61466560D01*
X140303680Y-61466560D01*
X140303680Y-60682246D01*
X140308074Y-60686640D01*
X140399286Y-60739301D01*
X140501019Y-60766560D01*
X140606341Y-60766560D01*
X140708074Y-60739301D01*
X140799286Y-60686640D01*
X140803680Y-60682246D01*
X140803680Y-61466560D01*
X141040251Y-61466560D01*
X141211264Y-61439474D01*
X141375937Y-61385968D01*
X141530208Y-61307361D01*
X141584800Y-61267698D01*
X141584806Y-61267694D01*
X141670282Y-61205592D01*
X141792712Y-61083162D01*
X141894484Y-60943084D01*
X141973088Y-60788815D01*
X142026594Y-60624144D01*
X142027795Y-60616560D01*
X140869366Y-60616560D01*
X140873760Y-60612166D01*
X140926421Y-60520954D01*
X140953680Y-60419221D01*
X140953680Y-60313899D01*
X140926421Y-60212166D01*
X140873760Y-60120954D01*
X140869366Y-60116560D01*
X142027795Y-60116560D01*
X142027795Y-60116559D01*
X142026594Y-60108975D01*
X141973088Y-59944304D01*
X141894484Y-59790035D01*
X141792712Y-59649957D01*
X141670282Y-59527527D01*
X141530204Y-59425755D01*
X141375937Y-59347151D01*
X141211264Y-59293645D01*
X141040251Y-59266560D01*
X140803680Y-59266560D01*
X140803680Y-60050874D01*
X140799286Y-60046480D01*
X140708074Y-59993819D01*
X140606341Y-59966560D01*
X140501019Y-59966560D01*
X140399286Y-59993819D01*
X140308074Y-60046480D01*
X140303680Y-60050874D01*
X140303680Y-59266560D01*
X140067109Y-59266560D01*
X139896095Y-59293645D01*
X139731422Y-59347151D01*
X139577155Y-59425755D01*
X139437077Y-59527527D01*
X139314647Y-59649957D01*
X139212875Y-59790035D01*
X139134271Y-59944304D01*
X139080765Y-60108975D01*
X139079564Y-60116559D01*
X131334908Y-60116559D01*
X131299397Y-60030828D01*
X131299396Y-60030827D01*
X131299394Y-60030821D01*
X131236397Y-59936539D01*
X131215520Y-59869863D01*
X131215500Y-59867650D01*
X131215500Y-57739949D01*
X139053180Y-57739949D01*
X139053180Y-57913171D01*
X139080278Y-58084261D01*
X139133807Y-58249005D01*
X139212448Y-58403348D01*
X139314266Y-58543488D01*
X139436752Y-58665974D01*
X139576892Y-58767792D01*
X139731235Y-58846433D01*
X139895979Y-58899962D01*
X140067069Y-58927060D01*
X140067070Y-58927060D01*
X141040290Y-58927060D01*
X141040291Y-58927060D01*
X141211381Y-58899962D01*
X141376125Y-58846433D01*
X141530468Y-58767792D01*
X141670608Y-58665974D01*
X141793094Y-58543488D01*
X141894912Y-58403348D01*
X141973553Y-58249005D01*
X142027082Y-58084261D01*
X142054180Y-57913171D01*
X142054180Y-57739949D01*
X142027082Y-57568859D01*
X141973553Y-57404115D01*
X141894912Y-57249772D01*
X141793094Y-57109632D01*
X141670608Y-56987146D01*
X141530468Y-56885328D01*
X141376125Y-56806687D01*
X141211381Y-56753158D01*
X141211379Y-56753157D01*
X141211378Y-56753157D01*
X141079951Y-56732341D01*
X141040291Y-56726060D01*
X140067069Y-56726060D01*
X140027408Y-56732341D01*
X139895982Y-56753157D01*
X139731232Y-56806688D01*
X139576891Y-56885328D01*
X139496936Y-56943419D01*
X139436752Y-56987146D01*
X139436750Y-56987148D01*
X139436749Y-56987148D01*
X139314268Y-57109629D01*
X139314268Y-57109630D01*
X139314266Y-57109632D01*
X139270539Y-57169816D01*
X139212448Y-57249771D01*
X139133808Y-57404112D01*
X139080277Y-57568862D01*
X139069642Y-57636013D01*
X139053180Y-57739949D01*
X131215500Y-57739949D01*
X131215500Y-55199949D01*
X139053180Y-55199949D01*
X139053180Y-55373171D01*
X139080278Y-55544261D01*
X139133807Y-55709005D01*
X139212448Y-55863348D01*
X139314266Y-56003488D01*
X139436752Y-56125974D01*
X139576892Y-56227792D01*
X139731235Y-56306433D01*
X139895979Y-56359962D01*
X140067069Y-56387060D01*
X140067070Y-56387060D01*
X141040290Y-56387060D01*
X141040291Y-56387060D01*
X141211381Y-56359962D01*
X141376125Y-56306433D01*
X141530468Y-56227792D01*
X141670608Y-56125974D01*
X141793094Y-56003488D01*
X141894912Y-55863348D01*
X141973553Y-55709005D01*
X142027082Y-55544261D01*
X142054180Y-55373171D01*
X142054180Y-55199949D01*
X142027082Y-55028859D01*
X141973553Y-54864115D01*
X141894912Y-54709772D01*
X141793094Y-54569632D01*
X141670608Y-54447146D01*
X141530468Y-54345328D01*
X141447064Y-54302832D01*
X141376127Y-54266688D01*
X141376126Y-54266687D01*
X141376125Y-54266687D01*
X141211381Y-54213158D01*
X141211379Y-54213157D01*
X141211378Y-54213157D01*
X141079951Y-54192341D01*
X141040291Y-54186060D01*
X140067069Y-54186060D01*
X140027408Y-54192341D01*
X139895982Y-54213157D01*
X139731232Y-54266688D01*
X139576891Y-54345328D01*
X139530300Y-54379179D01*
X139436752Y-54447146D01*
X139436750Y-54447148D01*
X139436749Y-54447148D01*
X139314268Y-54569629D01*
X139314268Y-54569630D01*
X139314266Y-54569632D01*
X139311308Y-54573704D01*
X139212448Y-54709771D01*
X139133808Y-54864112D01*
X139080277Y-55028862D01*
X139072309Y-55079172D01*
X139053180Y-55199949D01*
X131215500Y-55199949D01*
X131215500Y-52659949D01*
X139053180Y-52659949D01*
X139053180Y-52833171D01*
X139080278Y-53004261D01*
X139109129Y-53093056D01*
X139133808Y-53169007D01*
X139145778Y-53192500D01*
X139212448Y-53323348D01*
X139314266Y-53463488D01*
X139436752Y-53585974D01*
X139576892Y-53687792D01*
X139731235Y-53766433D01*
X139895979Y-53819962D01*
X140067069Y-53847060D01*
X140067070Y-53847060D01*
X141040290Y-53847060D01*
X141040291Y-53847060D01*
X141211381Y-53819962D01*
X141376125Y-53766433D01*
X141530468Y-53687792D01*
X141670608Y-53585974D01*
X141793094Y-53463488D01*
X141894912Y-53323348D01*
X141973553Y-53169005D01*
X142027082Y-53004261D01*
X142054180Y-52833171D01*
X142054180Y-52659949D01*
X142027082Y-52488859D01*
X141973553Y-52324115D01*
X141894912Y-52169772D01*
X141793094Y-52029632D01*
X141670608Y-51907146D01*
X141530468Y-51805328D01*
X141376125Y-51726687D01*
X141211381Y-51673158D01*
X141211379Y-51673157D01*
X141211378Y-51673157D01*
X141079951Y-51652341D01*
X141040291Y-51646060D01*
X140067069Y-51646060D01*
X140027408Y-51652341D01*
X139895982Y-51673157D01*
X139731232Y-51726688D01*
X139576891Y-51805328D01*
X139496936Y-51863419D01*
X139436752Y-51907146D01*
X139436750Y-51907148D01*
X139436749Y-51907148D01*
X139314268Y-52029629D01*
X139314268Y-52029630D01*
X139314266Y-52029632D01*
X139279130Y-52077993D01*
X139212448Y-52169771D01*
X139133808Y-52324112D01*
X139080277Y-52488862D01*
X139064146Y-52590711D01*
X139053180Y-52659949D01*
X131215500Y-52659949D01*
X131215500Y-50119949D01*
X139053180Y-50119949D01*
X139053180Y-50293170D01*
X139076878Y-50442799D01*
X139080278Y-50464261D01*
X139119999Y-50586510D01*
X139133808Y-50629007D01*
X139163167Y-50686627D01*
X139212448Y-50783348D01*
X139314266Y-50923488D01*
X139436752Y-51045974D01*
X139576892Y-51147792D01*
X139731235Y-51226433D01*
X139895979Y-51279962D01*
X140067069Y-51307060D01*
X140067070Y-51307060D01*
X141040290Y-51307060D01*
X141040291Y-51307060D01*
X141211381Y-51279962D01*
X141376125Y-51226433D01*
X141530468Y-51147792D01*
X141670608Y-51045974D01*
X141793094Y-50923488D01*
X141894912Y-50783348D01*
X141973553Y-50629005D01*
X142027082Y-50464261D01*
X142054180Y-50293171D01*
X142054180Y-50119949D01*
X142027082Y-49948859D01*
X141973553Y-49784115D01*
X141894912Y-49629772D01*
X141793094Y-49489632D01*
X141670608Y-49367146D01*
X141530468Y-49265328D01*
X141376125Y-49186687D01*
X141211381Y-49133158D01*
X141211379Y-49133157D01*
X141211378Y-49133157D01*
X141079951Y-49112341D01*
X141040291Y-49106060D01*
X140067069Y-49106060D01*
X140027408Y-49112341D01*
X139895982Y-49133157D01*
X139731232Y-49186688D01*
X139576891Y-49265328D01*
X139497686Y-49322875D01*
X139436752Y-49367146D01*
X139436750Y-49367148D01*
X139436749Y-49367148D01*
X139314268Y-49489629D01*
X139314268Y-49489630D01*
X139314266Y-49489632D01*
X139278543Y-49538800D01*
X139212448Y-49629771D01*
X139133808Y-49784112D01*
X139080277Y-49948862D01*
X139053180Y-50119949D01*
X131215500Y-50119949D01*
X131215500Y-48772350D01*
X131235185Y-48705311D01*
X131236398Y-48703459D01*
X131236809Y-48702843D01*
X131299394Y-48609179D01*
X131359737Y-48463497D01*
X131390500Y-48308842D01*
X131390500Y-48151158D01*
X131390500Y-48151155D01*
X131390499Y-48151153D01*
X131386343Y-48130261D01*
X131359737Y-47996503D01*
X131329812Y-47924257D01*
X131299397Y-47850827D01*
X131299390Y-47850814D01*
X131211789Y-47719711D01*
X131211786Y-47719707D01*
X131100292Y-47608213D01*
X131100288Y-47608210D01*
X131057993Y-47579949D01*
X139053180Y-47579949D01*
X139053180Y-47753171D01*
X139080278Y-47924261D01*
X139133807Y-48089005D01*
X139212448Y-48243348D01*
X139314266Y-48383488D01*
X139436752Y-48505974D01*
X139576892Y-48607792D01*
X139731235Y-48686433D01*
X139895979Y-48739962D01*
X140067069Y-48767060D01*
X140067070Y-48767060D01*
X141040290Y-48767060D01*
X141040291Y-48767060D01*
X141211381Y-48739962D01*
X141376125Y-48686433D01*
X141530468Y-48607792D01*
X141670608Y-48505974D01*
X141793094Y-48383488D01*
X141894912Y-48243348D01*
X141973553Y-48089005D01*
X142027082Y-47924261D01*
X142054180Y-47753171D01*
X142054180Y-47579949D01*
X142027082Y-47408859D01*
X141973553Y-47244115D01*
X141894912Y-47089772D01*
X141793094Y-46949632D01*
X141670608Y-46827146D01*
X141530468Y-46725328D01*
X141376125Y-46646687D01*
X141211381Y-46593158D01*
X141211379Y-46593157D01*
X141211378Y-46593157D01*
X141079951Y-46572341D01*
X141040291Y-46566060D01*
X140067069Y-46566060D01*
X140027408Y-46572341D01*
X139895982Y-46593157D01*
X139731232Y-46646688D01*
X139576891Y-46725328D01*
X139496936Y-46783419D01*
X139436752Y-46827146D01*
X139436750Y-46827148D01*
X139436749Y-46827148D01*
X139314268Y-46949629D01*
X139314268Y-46949630D01*
X139314266Y-46949632D01*
X139270539Y-47009816D01*
X139212448Y-47089771D01*
X139133808Y-47244112D01*
X139080277Y-47408862D01*
X139053180Y-47579949D01*
X131057993Y-47579949D01*
X130969185Y-47520609D01*
X130969172Y-47520602D01*
X130823501Y-47460264D01*
X130823489Y-47460261D01*
X130668845Y-47429500D01*
X130668842Y-47429500D01*
X130511158Y-47429500D01*
X130511155Y-47429500D01*
X130356510Y-47460261D01*
X130356498Y-47460264D01*
X130210827Y-47520602D01*
X130210814Y-47520609D01*
X130079711Y-47608210D01*
X130079707Y-47608213D01*
X129968213Y-47719707D01*
X129968210Y-47719711D01*
X129880609Y-47850814D01*
X129880602Y-47850827D01*
X129820264Y-47996498D01*
X129820261Y-47996510D01*
X129789500Y-48151153D01*
X116541887Y-48151153D01*
X116573553Y-48089005D01*
X116627082Y-47924261D01*
X116654180Y-47753171D01*
X116654180Y-47579949D01*
X116627082Y-47408859D01*
X116573553Y-47244115D01*
X116494912Y-47089772D01*
X116393094Y-46949632D01*
X116270608Y-46827146D01*
X116130468Y-46725328D01*
X115976125Y-46646687D01*
X115811381Y-46593158D01*
X115811379Y-46593157D01*
X115811378Y-46593157D01*
X115679951Y-46572341D01*
X115640291Y-46566060D01*
X114667069Y-46566060D01*
X114627408Y-46572341D01*
X114495982Y-46593157D01*
X114331232Y-46646688D01*
X114176891Y-46725328D01*
X114096936Y-46783419D01*
X114036752Y-46827146D01*
X114036750Y-46827148D01*
X114036749Y-46827148D01*
X113914268Y-46949629D01*
X113914268Y-46949630D01*
X113914266Y-46949632D01*
X113870539Y-47009816D01*
X113812448Y-47089771D01*
X113733808Y-47244112D01*
X113680277Y-47408862D01*
X113653180Y-47579949D01*
X54340500Y-47579949D01*
X54340500Y-42909569D01*
X57839475Y-42909569D01*
X57839475Y-43190430D01*
X57870919Y-43469500D01*
X57870921Y-43469516D01*
X57933415Y-43743324D01*
X57933419Y-43743336D01*
X58026173Y-44008410D01*
X58026179Y-44008424D01*
X58148032Y-44261454D01*
X58164415Y-44287527D01*
X58297456Y-44499262D01*
X58472565Y-44718842D01*
X58671158Y-44917435D01*
X58890738Y-45092544D01*
X59128543Y-45241966D01*
X59381583Y-45363824D01*
X59381589Y-45363826D01*
X59646663Y-45456580D01*
X59646675Y-45456584D01*
X59920487Y-45519079D01*
X60199569Y-45550524D01*
X60199570Y-45550525D01*
X60199574Y-45550525D01*
X60480430Y-45550525D01*
X60480430Y-45550524D01*
X60759513Y-45519079D01*
X61033325Y-45456584D01*
X61298417Y-45363824D01*
X61551457Y-45241966D01*
X61789262Y-45092544D01*
X62008842Y-44917435D01*
X62207435Y-44718842D01*
X62382544Y-44499262D01*
X62531966Y-44261457D01*
X62653824Y-44008417D01*
X62746584Y-43743325D01*
X62809079Y-43469513D01*
X62840525Y-43190426D01*
X62840525Y-42909574D01*
X62809079Y-42630487D01*
X62746584Y-42356675D01*
X62653824Y-42091583D01*
X62531966Y-41838543D01*
X62382544Y-41600738D01*
X62207435Y-41381158D01*
X62008842Y-41182565D01*
X61789262Y-41007456D01*
X61551457Y-40858034D01*
X61551454Y-40858032D01*
X61298424Y-40736179D01*
X61298410Y-40736173D01*
X61033336Y-40643419D01*
X61033324Y-40643415D01*
X60759516Y-40580921D01*
X60759500Y-40580919D01*
X60480430Y-40549475D01*
X60480426Y-40549475D01*
X60199574Y-40549475D01*
X60199570Y-40549475D01*
X59920499Y-40580919D01*
X59920483Y-40580921D01*
X59646675Y-40643415D01*
X59646663Y-40643419D01*
X59381589Y-40736173D01*
X59381575Y-40736179D01*
X59128545Y-40858032D01*
X58890739Y-41007455D01*
X58671158Y-41182564D01*
X58472564Y-41381158D01*
X58297455Y-41600739D01*
X58148032Y-41838545D01*
X58026179Y-42091575D01*
X58026173Y-42091589D01*
X57933419Y-42356663D01*
X57933415Y-42356675D01*
X57870921Y-42630483D01*
X57870919Y-42630499D01*
X57839475Y-42909569D01*
X54340500Y-42909569D01*
X54340500Y-41243051D01*
X54340649Y-41236967D01*
X54357052Y-40903072D01*
X54358245Y-40890962D01*
X54382685Y-40726199D01*
X54406849Y-40563296D01*
X54409218Y-40551385D01*
X54489710Y-40230043D01*
X54493240Y-40218411D01*
X54493803Y-40216838D01*
X54604835Y-39906525D01*
X54609476Y-39895318D01*
X54751124Y-39595828D01*
X54756840Y-39585136D01*
X54927145Y-39300998D01*
X54933888Y-39290905D01*
X55131232Y-39024818D01*
X55138935Y-39015433D01*
X55361405Y-38769975D01*
X55369975Y-38761405D01*
X55615433Y-38538935D01*
X55624818Y-38531232D01*
X55890905Y-38333888D01*
X55900998Y-38327145D01*
X56185136Y-38156840D01*
X56195828Y-38151124D01*
X56495318Y-38009476D01*
X56506525Y-38004835D01*
X56818412Y-37893239D01*
X56830043Y-37889710D01*
X57151385Y-37809218D01*
X57163296Y-37806849D01*
X57490962Y-37758244D01*
X57503068Y-37757052D01*
X57836967Y-37740648D01*
X57843051Y-37740500D01*
X57924243Y-37740500D01*
X57924254Y-37740497D01*
X115029681Y-37739625D01*
X115096718Y-37759309D01*
X115142474Y-37812112D01*
X115153680Y-37863625D01*
X115153680Y-43902060D01*
X115133995Y-43969099D01*
X115081191Y-44014854D01*
X115029680Y-44026060D01*
X114105809Y-44026060D01*
X114105803Y-44026061D01*
X114046196Y-44032468D01*
X113911351Y-44082762D01*
X113911344Y-44082766D01*
X113796135Y-44169012D01*
X113796132Y-44169015D01*
X113709886Y-44284224D01*
X113709882Y-44284231D01*
X113659588Y-44419077D01*
X113653181Y-44478676D01*
X113653181Y-44478683D01*
X113653180Y-44478695D01*
X113653180Y-45774430D01*
X113653181Y-45774436D01*
X113659588Y-45834043D01*
X113709882Y-45968888D01*
X113709886Y-45968895D01*
X113796132Y-46084104D01*
X113796135Y-46084107D01*
X113911344Y-46170353D01*
X113911351Y-46170357D01*
X114046197Y-46220651D01*
X114046196Y-46220651D01*
X114053124Y-46221395D01*
X114105807Y-46227060D01*
X116201552Y-46227059D01*
X116261163Y-46220651D01*
X116396011Y-46170356D01*
X116511226Y-46084106D01*
X116597476Y-45968891D01*
X116647771Y-45834043D01*
X116654180Y-45774433D01*
X116654179Y-45092544D01*
X116654179Y-44478689D01*
X116654178Y-44478683D01*
X116654177Y-44478676D01*
X116647771Y-44419077D01*
X116644369Y-44409957D01*
X116597477Y-44284231D01*
X116597475Y-44284228D01*
X116580429Y-44261457D01*
X116562664Y-44237727D01*
X116538247Y-44172264D01*
X116553098Y-44103990D01*
X116602503Y-44054585D01*
X116661881Y-44039416D01*
X139408998Y-44030622D01*
X139476043Y-44050281D01*
X139521818Y-44103067D01*
X139531789Y-44172222D01*
X139502788Y-44235788D01*
X139481929Y-44254940D01*
X139437084Y-44287521D01*
X139437079Y-44287525D01*
X139314647Y-44409957D01*
X139212875Y-44550035D01*
X139134271Y-44704304D01*
X139080765Y-44868975D01*
X139079564Y-44876559D01*
X139079565Y-44876560D01*
X140237994Y-44876560D01*
X140233600Y-44880954D01*
X140180939Y-44972166D01*
X140153680Y-45073899D01*
X140153680Y-45179221D01*
X140180939Y-45280954D01*
X140233600Y-45372166D01*
X140237994Y-45376560D01*
X139079565Y-45376560D01*
X139080765Y-45384144D01*
X139134271Y-45548815D01*
X139212875Y-45703084D01*
X139314647Y-45843162D01*
X139437077Y-45965592D01*
X139577155Y-46067364D01*
X139731422Y-46145968D01*
X139896095Y-46199474D01*
X140067109Y-46226560D01*
X140303680Y-46226560D01*
X140303680Y-45442246D01*
X140308074Y-45446640D01*
X140399286Y-45499301D01*
X140501019Y-45526560D01*
X140606341Y-45526560D01*
X140708074Y-45499301D01*
X140799286Y-45446640D01*
X140803680Y-45442246D01*
X140803680Y-46226560D01*
X141040251Y-46226560D01*
X141211264Y-46199474D01*
X141375937Y-46145968D01*
X141530204Y-46067364D01*
X141670282Y-45965592D01*
X141792712Y-45843162D01*
X141894484Y-45703084D01*
X141973088Y-45548815D01*
X142026594Y-45384144D01*
X142027795Y-45376560D01*
X140869366Y-45376560D01*
X140873760Y-45372166D01*
X140926421Y-45280954D01*
X140953680Y-45179221D01*
X140953680Y-45073899D01*
X140926421Y-44972166D01*
X140873760Y-44880954D01*
X140869366Y-44876560D01*
X142027795Y-44876560D01*
X142027795Y-44876559D01*
X142026594Y-44868975D01*
X141973088Y-44704304D01*
X141894484Y-44550035D01*
X141792712Y-44409957D01*
X141670282Y-44287527D01*
X141530204Y-44185755D01*
X141375937Y-44107151D01*
X141211265Y-44053646D01*
X141124601Y-44039919D01*
X141061466Y-44009989D01*
X141024536Y-43950677D01*
X141020000Y-43917446D01*
X141020000Y-42899568D01*
X155839500Y-42899568D01*
X155839500Y-43180431D01*
X155870942Y-43459494D01*
X155870945Y-43459512D01*
X155933439Y-43733317D01*
X155933443Y-43733329D01*
X156026200Y-43998411D01*
X156148053Y-44251442D01*
X156148055Y-44251445D01*
X156297477Y-44489248D01*
X156333866Y-44534878D01*
X156468978Y-44704304D01*
X156472584Y-44708825D01*
X156671175Y-44907416D01*
X156890752Y-45082523D01*
X157128555Y-45231945D01*
X157381592Y-45353801D01*
X157580680Y-45423465D01*
X157646670Y-45446556D01*
X157646682Y-45446560D01*
X157920491Y-45509055D01*
X157920497Y-45509055D01*
X157920505Y-45509057D01*
X158075853Y-45526560D01*
X158199569Y-45540499D01*
X158199572Y-45540500D01*
X158199575Y-45540500D01*
X158480428Y-45540500D01*
X158480429Y-45540499D01*
X158623055Y-45524429D01*
X158759494Y-45509057D01*
X158759499Y-45509056D01*
X158759509Y-45509055D01*
X159033318Y-45446560D01*
X159298408Y-45353801D01*
X159551445Y-45231945D01*
X159789248Y-45082523D01*
X160008825Y-44907416D01*
X160207416Y-44708825D01*
X160382523Y-44489248D01*
X160531945Y-44251445D01*
X160653801Y-43998408D01*
X160746560Y-43733318D01*
X160809055Y-43459509D01*
X160840500Y-43180425D01*
X160840500Y-42899575D01*
X160810183Y-42630499D01*
X160809057Y-42620505D01*
X160809054Y-42620487D01*
X160746560Y-42346682D01*
X160746556Y-42346670D01*
X160718503Y-42266500D01*
X160653801Y-42081592D01*
X160531945Y-41828555D01*
X160382523Y-41590752D01*
X160207416Y-41371175D01*
X160008825Y-41172584D01*
X159789248Y-40997477D01*
X159617224Y-40889387D01*
X159551442Y-40848053D01*
X159298411Y-40726200D01*
X159033329Y-40633443D01*
X159033317Y-40633439D01*
X158759512Y-40570945D01*
X158759494Y-40570942D01*
X158480431Y-40539500D01*
X158480425Y-40539500D01*
X158199575Y-40539500D01*
X158199568Y-40539500D01*
X157920505Y-40570942D01*
X157920487Y-40570945D01*
X157646682Y-40633439D01*
X157646670Y-40633443D01*
X157381588Y-40726200D01*
X157128557Y-40848053D01*
X156890753Y-40997476D01*
X156671175Y-41172583D01*
X156472583Y-41371175D01*
X156297476Y-41590753D01*
X156148053Y-41828557D01*
X156026200Y-42081588D01*
X155933443Y-42346670D01*
X155933439Y-42346682D01*
X155870945Y-42620487D01*
X155870942Y-42620505D01*
X155839500Y-42899568D01*
X141020000Y-42899568D01*
X141020000Y-37863227D01*
X141039685Y-37796188D01*
X141092489Y-37750433D01*
X141143997Y-37739227D01*
X160838521Y-37738927D01*
X160844605Y-37739075D01*
G37*
%TD.AperFunction*%
%TD*%
M02*
